<?xml version="1.0" encoding="UTF-8"?>
<svg id="Layer_1" data-name="Layer 1" xmlns="http://www.w3.org/2000/svg" viewBox="0 0 351.7 343.06">
  <defs>
    <style>
      .cls-1 {
        fill: #000;
        stroke-width: 0px;
      }
    </style>
  </defs>
  <path class="cls-1" d="M42.28,248c-19.4,16.87-30.78,19.9-42.28,11.72,4.44-2.38,9.29-4.17,13.17-7.2,10.79-8.43,15.81-20.54,19.44-33.23,3.17-11.07,5.24-22.3,4.77-33.97-.46-11.64-.71-23.33-.23-34.96.47-11.36,5.51-20.73,15.25-27.07,8.87-5.78,18.75-6.08,28.85-4.71,2.12.29,4.22.66,7.36,1.15-2.73-4.8-5.14-8.74-7.28-12.83-4.84-9.23-6.89-19.3-5.81-29.46.81-7.63-2.06-13.23-6.98-17.66-5.8-5.23-12.63-9.33-18.73-13.72,6.42-4.42,20.03-2.43,28.67,5.13,3.35,2.92,6.05,2.53,9.45,1.51,8.17-2.46,16.14-2.5,23.33,2.74,5.47,3.99,8.26,9.8,9.85,16.21,1.9,7.68,3.69,15.39,5.53,23.09.58-.04,1.16-.09,1.75-.13.15-1.65.34-3.31.45-4.96,1.05-15.28,6.53-28.28,19.21-37.64,5.75-4.25,12.4-5.52,19.27-5.78,5.82-.23,11.71-.48,17.49.08,20.61,1.99,38.68-4.63,55.23-16.07,12.39-8.56,24.35-17.72,36.52-26.6,1.44-1.05,2.94-2.01,5.29-3.62,2.53,8.52,2.58,16.35-1.93,23.25-4.17,6.37-9.61,11.9-14.55,17.88,2.5.13,5.39.27,9.8.49-5.58,8.84-14.79,10.56-22.16,15.74.89.53,1.67,1.24,2.58,1.49,1.6.44,3.43.28,4.87.98,1.69.82,3.07,2.28,4.59,3.46-1.28,1.59-2.24,3.85-3.9,4.63-5.08,2.39-10.43,4.2-15.66,6.25-.83.33-1.64.74-3.17,1.43,2.65,1.66,4.75,2.8,6.66,4.21,3.62,2.67,3.64,5.26-.46,6.96-4.55,1.9-9.48,2.88-14.27,4.2-1.66.46-3.37.74-6.15,1.33,4.47,2.3,7.89,3.87,11.08,5.8,1.07.65,2.3,2.33,2.15,3.35-.16,1.04-1.81,2.42-3,2.64-6.19,1.18-12.44,2.05-18.68,2.98-1.55.23-3.13.26-5.47.44,3.75,2.95,6.92,5.21,9.78,7.82,1.06.96,2.28,3.21,1.84,4.03-.7,1.31-2.69,2.63-4.19,2.69-7.48.28-14.98.16-22.47.18-.98,0-1.97,0-4.39,0,3.04,2.59,5.48,4.16,7.21,6.3,1.42,1.76,2,4.21,2.95,6.35-2.02.87-3.98,2.26-6.08,2.51-11.63,1.37-22.75-.7-33.57-5.13-5.73-2.35-12.06-2.18-17.84.02,3.77,6.1,6.84,12.63,11.41,17.81,2.23,2.52,7.2,3.05,11.06,3.62,18.28,2.71,35.79,1.06,51.35-10.21,5.42-3.92,9.99-8.33,12.91-14.65,5.29-11.47,21.56-14.72,30.73-6.02,2.59,2.46,4.39,6.82,4.67,10.46,1.11,14.15-4.53,22.91-19.39,30.59-18.62,9.61-38.67,9.89-58.94,7.1-5.24-.72-10.48-1.45-15.73-2.18l-.73,1.56c3.41,1.7,6.66,4.28,10.27,4.95,13.41,2.51,26.88,1.44,40.24-.82,5.7-.97,11.23-3.07,16.94-3.76,10.7-1.28,18.28-7.67,26.3-13.94,4.27-3.34,9.7-5.99,14.99-7.07,8.98-1.84,17.15,3.58,20.01,11.73,2.85,8.1-1.33,18.35-9.65,23.58-10.49,6.6-22.33,9.13-34.29,8.59-18.07-.82-36.07-3.15-54.09-4.92-4.27-.42-8.5-1.16-13.05-.64,5.14,1.68,10.2,3.66,15.42,4.97,16.66,4.18,33.57,7.75,50.78,5.98,12.3-1.27,24.42-4.38,36.56-6.91,9.63-2,21.95.03,25.64,9.69,4.26,11.14,1.79,21.51-10.8,25.53-16.91,5.39-33.49,3.33-49.89-2.24-7.5-2.55-14.92-5.34-22.86-7.09,5.4,2.96,10.86,5.81,16.18,8.9,18.77,10.91,36.65,22.9,49.37,41.1,4.64,6.64,7.78,13.86,8.9,21.92,1.52,10.97-2.52,19.8-10.77,23.56-10.56,4.81-19.12,1.6-26.64-6.66-5.32-5.85-8.01-13.07-9.43-20.98-2.15-11.99-8.34-22.25-15.58-31.82-14.17-18.7-32.38-32.94-51.63-45.97-.52-.35-1.21-.47-2.7-1.02.94,1.68,1.31,2.93,2.13,3.71,16.12,15.48,29.54,33.03,39.9,52.8,6.04,11.52,9.39,23.74,7.21,37.04-1.38,8.44-7.45,15.22-15.55,16.48-7.43,1.16-14.85-2.92-17.64-11.48-2.37-7.29-3.82-15.15-4.04-22.8-.44-16.02-3.87-31.28-9.09-46.28-4.69-13.47-11.63-25.68-21.42-36.43,1.69,4.09,3.29,8.23,5.09,12.27,6.31,14.17,11.19,28.84,13.64,44.14,1.85,11.56,2.4,23.27-4.28,33.88-5,7.94-13.46,11.22-22.35,8.79-6.26-1.71-13.31-10.4-12.64-18.04.69-7.8,3.04-15.52,5.28-23.1,5.97-20.14,8.74-40.33,1.86-60.79-1.33-3.97-3.65-7.6-5.51-11.39-.44.17-.89.34-1.33.5.35,2.47.52,4.99,1.07,7.42,3.55,15.59,4.43,31.37,2.56,47.18-1.25,10.57-4.54,20.6-14.9,26.09-9.94,5.26-21.49,2.73-24.09-11.02-1.42-7.51.66-14.17,4.89-20.25,11.79-16.93,17.84-35.43,15.96-56.26-.3-3.36-1.06-5.62-4.15-7.74-5.08-3.49-9.47-7.98-14.37-12.24-1.59,4.64.72,8.52,2.29,12.6,2.05,5.35,3.96,10.77,5.53,16.28.49,1.72-.31,3.81-.62,6.67-5.13-3.63-9.54-6.74-14.64-10.35,1.56,9.71,7.53,17.92,3.07,27.64-4.96-3.65-9.59-7.06-15.01-11.06q3.51,24.34-.75,28.77c-3.57-4.22-7.15-8.46-10.73-12.7l-1.3.67c-.21,9.25,1.95,19.33-7.81,25.24-2.5-4.87-4.86-9.45-7.22-14.04-.51.08-1.01.15-1.52.23-.15,7.57.38,15.34-5.49,21.65-2.44-4.29-4.74-8.37-7.05-12.44-.52.1-1.04.19-1.56.29-2.66,10.12-5.84,19.84-17.05,24.16-.36-5.14-.68-9.79-1.05-15.11Z"/>
  <path class="cls-1" d="M62.98,301.19c-6.7.07-11.85-4.69-12.1-11.15-.24-6.37,3.88-9.71,12.11-9.81,6.83-.08,10.55,3.92,10.67,11.48.1,6.18-3.53,9.41-10.69,9.48Z"/>
  <path class="cls-1" d="M311.52,319.4c7.67.04,11.77,4.16,11.58,11.63-.16,6.38-3.41,9.39-10.13,9.36-7.62-.02-12.32-4.57-12.27-11.85.05-6.37,3.37-9.19,10.81-9.14Z"/>
  <path class="cls-1" d="M270.98,90.59c-.03-6.47,3.34-9.45,10.66-9.44,7.63,0,11.64,3.78,11.76,11.09.11,6.72-3.27,9.99-10.22,9.87-7.45-.13-12.16-4.58-12.19-11.51Z"/>
  <path class="cls-1" d="M340.39,343.06c-6.67-.08-10.75-3.81-10.64-9.73.13-6.86,5.16-11.48,12.31-11.3,5.95.15,9.76,4.63,9.64,11.33-.11,6.1-4.41,9.79-11.31,9.71Z"/>
  <path class="cls-1" d="M315.39,100.02c-6.65-.09-10.99-3.89-10.9-9.51.1-6.3,5.95-11.64,12.55-11.47,6.24.16,9.48,4.12,9.37,11.44-.1,6.77-3.43,9.65-11.02,9.54Z"/>
  <path class="cls-1" d="M93.43,317.19c-6.15.16-9.67-3.17-9.83-9.3-.17-6.54,4.86-11.82,11.41-11.97,6.13-.14,10.16,4.57,10.3,12.05.11,5.61-4.29,9.02-11.88,9.22Z"/>
  <path class="cls-1" d="M90.77,280.21c-5.05,0-8.51-3.79-8.6-9.47-.09-5.41,5.36-10.27,11.3-10.06,4.91.17,9.1,4.47,9.17,9.41.08,5.52-5.31,10.11-11.87,10.13Z"/>
  <path class="cls-1" d="M303.42,53.25c5.36.17,9.44,4.12,9.24,8.95-.26,6.05-4.96,9.83-11.99,9.64-5.9-.16-8.68-3.31-8.52-9.65.15-5.76,4.44-9.16,11.27-8.95Z"/>
  <path class="cls-1" d="M330.95,310.26c-6.18.03-8.95-2.82-8.99-9.21-.03-6.2,3.24-9.15,10.26-9.22,6.54-.07,9.81,2.78,9.74,8.48-.08,6.34-4.04,9.92-11.02,9.95Z"/>
</svg>