<?xml version="1.0" encoding="UTF-8"?>
<svg id="Capa_1" data-name="Capa 1" xmlns="http://www.w3.org/2000/svg" xmlns:xlink="http://www.w3.org/1999/xlink" viewBox="0 0 566 313">
  <defs>
    <style>
      .cls-1 {
        clip-path: url(#clippath-2);
      }

      .cls-2 {
        clip-path: url(#clippath-6);
      }

      .cls-3 {
        clip-path: url(#clippath-7);
      }

      .cls-4 {
        clip-path: url(#clippath-1);
      }

      .cls-5 {
        clip-path: url(#clippath-4);
      }

      .cls-6, .cls-7 {
        fill: #fff;
      }

      .cls-8 {
        clip-path: url(#clippath);
      }

      .cls-9 {
        clip-path: url(#clippath-3);
      }

      .cls-7 {
        stroke-width: 0px;
      }

      .cls-10 {
        clip-path: url(#clippath-5);
      }
    </style>
    <clipPath id="clippath">
      <rect class="cls-7" x="299.34" y="167.88" width="15.9" height="12.71"/>
    </clipPath>
    <clipPath id="clippath-1">
      <polyline class="cls-7" points="150.03 244.08 150.03 105.52 130.41 116.83 130.41 145.85 139.13 151.03 139.13 244.08 119.51 244.08 119.51 139.58 99.76 151.03 99.76 244.08 86.81 244.08 86.81 68.06 67.06 79.5 67.06 135.63 73.6 139.45 73.6 244.08 53.84 244.08 53.84 128 34.09 139.45 34.09 244.08"/>
    </clipPath>
    <clipPath id="clippath-2">
      <path class="cls-7" d="M238.45,167.82v76.25h51.09v-12.64h-35.84l.11-50.87h35.84l-.11-12.74h-51.09ZM280.5,199.52h-24.07l7.08,14.16h16.99v-14.16Z"/>
    </clipPath>
    <clipPath id="clippath-3">
      <rect class="cls-7" x="299.34" y="193.26" width="15.9" height="50.81"/>
    </clipPath>
    <clipPath id="clippath-4">
      <path class="cls-7" d="M347.76,170c-4.76,2.03-8.9,4.81-12.42,8.33-3.52,3.52-6.3,7.66-8.33,12.42-2.03,4.76-3.05,9.82-3.05,15.2s1.02,10.44,3.05,15.2c2.03,4.76,4.81,8.9,8.33,12.42,3.52,3.52,7.66,6.3,12.42,8.33,4.76,2.03,9.82,3.05,15.2,3.05s10.39-1.02,15.03-3.05c4.65-2.03,8.66-4.81,12.04-8.33,3.38-3.52,6.03-7.66,7.95-12.42,1.92-4.76,2.89-9.82,2.89-15.2,0-1.09-.04-2.18-.11-3.27-.07-1.09-.18-2.18-.33-3.27h-43.79l6.97,14.16h20.7c-.65,2.61-1.65,4.99-3,7.13-1.35,2.14-2.92,4.01-4.74,5.61-1.82,1.6-3.89,2.83-6.21,3.7-2.32.87-4.79,1.31-7.41,1.31-3.27,0-6.32-.67-9.15-2.01-2.83-1.34-5.3-3.16-7.41-5.45-2.11-2.29-3.78-4.97-5.01-8.06-1.24-3.08-1.85-6.37-1.85-9.86s.62-6.77,1.85-9.86c1.23-3.09,2.9-5.77,5.01-8.06,2.11-2.29,4.58-4.1,7.41-5.45,2.83-1.34,5.88-2.01,9.15-2.01,4.43,0,8.44,1.18,12.04,3.54,3.6,2.36,6.37,5.5,8.33,9.42l12.75-8.17c-3.49-5.52-8.12-9.97-13.89-13.34-5.77-3.38-12.18-5.07-19.23-5.07-5.37,0-10.44,1.02-15.2,3.05"/>
    </clipPath>
    <clipPath id="clippath-5">
      <path class="cls-7" d="M409.58,167.82v76.25h51.09v-12.64h-35.84l.11-50.87h35.84l-.11-12.74h-51.09ZM451.63,199.52h-24.08l7.08,14.16h16.99v-14.16Z"/>
    </clipPath>
    <clipPath id="clippath-6">
      <path class="cls-7" d="M470.47,167.82v76.25h15.14v-63.07h19.28c1.6,0,3.1.36,4.52,1.09,1.42.73,2.63,1.67,3.65,2.83,1.02,1.16,1.83,2.49,2.45,3.98.62,1.49.92,3.03.92,4.63,0,1.89-.31,3.61-.92,5.17-.62,1.56-1.43,2.91-2.45,4.03-1.02,1.13-2.23,2-3.65,2.61-1.42.62-2.92.93-4.52.93h-16.78l8.28,15.25h8.5c3.71,0,7.19-.71,10.46-2.12,3.27-1.42,6.14-3.32,8.61-5.72,2.47-2.4,4.41-5.23,5.83-8.5,1.41-3.27,2.12-6.75,2.12-10.46s-.71-7.19-2.12-10.46c-1.42-3.27-3.36-6.12-5.83-8.55-2.47-2.43-5.34-4.36-8.61-5.77-3.27-1.42-6.75-2.12-10.46-2.12h-34.42Z"/>
    </clipPath>
    <clipPath id="clippath-7">
      <path class="cls-7" d="M181.31,170c-4.46,1.91-8.28,4.37-11.65,7.58v56.75c3.36,3.19,7.21,5.67,11.65,7.57,4.76,2.03,9.82,3.05,15.2,3.05,3.49,0,6.86-.43,10.13-1.31,3.27-.87,6.32-2.12,9.15-3.76,2.83-1.63,5.43-3.58,7.79-5.83,2.36-2.25,4.41-4.76,6.15-7.52l-12.74-8.17c-2.03,3.92-4.83,7.06-8.39,9.42-3.56,2.36-7.59,3.54-12.09,3.54-3.2,0-6.21-.67-9.04-2.01-2.83-1.34-5.3-3.16-7.41-5.45-2.11-2.29-3.78-4.97-5.01-8.06-1.24-3.08-1.85-6.37-1.85-9.86s.62-6.77,1.85-9.86c1.23-3.09,2.9-5.77,5.01-8.06,2.11-2.29,4.58-4.1,7.41-5.45,2.83-1.34,5.85-2.01,9.04-2.01,4.5,0,8.53,1.18,12.09,3.54,3.56,2.36,6.35,5.5,8.39,9.42l12.74-8.17c-1.74-2.76-3.8-5.26-6.15-7.52-2.36-2.25-4.96-4.19-7.79-5.83-2.83-1.63-5.88-2.89-9.15-3.76-3.27-.87-6.65-1.31-10.13-1.31-5.38,0-10.44,1.02-15.2,3.05"/>
    </clipPath>
  </defs>
  <g>
    <rect class="cls-6" x="299.34" y="167.88" width="15.9" height="12.71"/>
    <g class="cls-8">
      <rect class="cls-7" x="299.34" y="167.88" width="15.9" height="12.71"/>
    </g>
  </g>
  <g>
    <polyline class="cls-6" points="150.03 244.08 150.03 105.52 130.41 116.83 130.41 145.85 139.13 151.03 139.13 244.08 119.51 244.08 119.51 139.58 99.76 151.03 99.76 244.08 86.81 244.08 86.81 68.06 67.06 79.5 67.06 135.63 73.6 139.45 73.6 244.08 53.84 244.08 53.84 128 34.09 139.45 34.09 244.08"/>
    <g class="cls-4">
      <rect class="cls-7" x="34.09" y="68.06" width="115.94" height="176.02"/>
    </g>
  </g>
  <g>
    <path class="cls-6" d="M238.45,167.82v76.25h51.09v-12.64h-35.84l.11-50.87h35.84l-.11-12.74h-51.09ZM280.5,199.52h-24.07l7.08,14.16h16.99v-14.16Z"/>
    <g class="cls-1">
      <rect class="cls-7" x="238.45" y="167.82" width="51.2" height="76.25"/>
    </g>
  </g>
  <g>
    <rect class="cls-6" x="299.34" y="193.26" width="15.9" height="50.81"/>
    <g class="cls-9">
      <rect class="cls-7" x="299.34" y="193.26" width="15.9" height="50.81"/>
    </g>
  </g>
  <g>
    <path class="cls-6" d="M347.76,170c-4.76,2.03-8.9,4.81-12.42,8.33-3.52,3.52-6.3,7.66-8.33,12.42-2.03,4.76-3.05,9.82-3.05,15.2s1.02,10.44,3.05,15.2c2.03,4.76,4.81,8.9,8.33,12.42,3.52,3.52,7.66,6.3,12.42,8.33,4.76,2.03,9.82,3.05,15.2,3.05s10.39-1.02,15.03-3.05c4.65-2.03,8.66-4.81,12.04-8.33,3.38-3.52,6.03-7.66,7.95-12.42,1.92-4.76,2.89-9.82,2.89-15.2,0-1.09-.04-2.18-.11-3.27-.07-1.09-.18-2.18-.33-3.27h-43.79l6.97,14.16h20.7c-.65,2.61-1.65,4.99-3,7.13-1.35,2.14-2.92,4.01-4.74,5.61-1.82,1.6-3.89,2.83-6.21,3.7-2.32.87-4.79,1.31-7.41,1.31-3.27,0-6.32-.67-9.15-2.01-2.83-1.34-5.3-3.16-7.41-5.45-2.11-2.29-3.78-4.97-5.01-8.06-1.24-3.08-1.85-6.37-1.85-9.86s.62-6.77,1.85-9.86c1.23-3.09,2.9-5.77,5.01-8.06,2.11-2.29,4.58-4.1,7.41-5.45,2.83-1.34,5.88-2.01,9.15-2.01,4.43,0,8.44,1.18,12.04,3.54,3.6,2.36,6.37,5.5,8.33,9.42l12.75-8.17c-3.49-5.52-8.12-9.97-13.89-13.34-5.77-3.38-12.18-5.07-19.23-5.07-5.37,0-10.44,1.02-15.2,3.05"/>
    <g class="cls-5">
      <rect class="cls-7" x="323.96" y="166.95" width="76.91" height="78"/>
    </g>
  </g>
  <g>
    <path class="cls-6" d="M409.58,167.82v76.25h51.09v-12.64h-35.84l.11-50.87h35.84l-.11-12.74h-51.09ZM451.63,199.52h-24.08l7.08,14.16h16.99v-14.16Z"/>
    <g class="cls-10">
      <rect class="cls-7" x="409.58" y="167.82" width="51.2" height="76.25"/>
    </g>
  </g>
  <g>
    <path class="cls-6" d="M470.47,167.82v76.25h15.14v-63.07h19.28c1.6,0,3.1.36,4.52,1.09,1.42.73,2.63,1.67,3.65,2.83,1.02,1.16,1.83,2.49,2.45,3.98.62,1.49.92,3.03.92,4.63,0,1.89-.31,3.61-.92,5.17-.62,1.56-1.43,2.91-2.45,4.03-1.02,1.13-2.23,2-3.65,2.61-1.42.62-2.92.93-4.52.93h-16.78l8.28,15.25h8.5c3.71,0,7.19-.71,10.46-2.12,3.27-1.42,6.14-3.32,8.61-5.72,2.47-2.4,4.41-5.23,5.83-8.5,1.41-3.27,2.12-6.75,2.12-10.46s-.71-7.19-2.12-10.46c-1.42-3.27-3.36-6.12-5.83-8.55-2.47-2.43-5.34-4.36-8.61-5.77-3.27-1.42-6.75-2.12-10.46-2.12h-34.42Z"/>
    <g class="cls-2">
      <rect class="cls-7" x="470.47" y="167.82" width="61.44" height="76.25"/>
    </g>
  </g>
  <g>
    <path class="cls-6" d="M181.31,170c-4.46,1.91-8.28,4.37-11.65,7.58v56.75c3.36,3.19,7.21,5.67,11.65,7.57,4.76,2.03,9.82,3.05,15.2,3.05,3.49,0,6.86-.43,10.13-1.31,3.27-.87,6.32-2.12,9.15-3.76,2.83-1.63,5.43-3.58,7.79-5.83,2.36-2.25,4.41-4.76,6.15-7.52l-12.74-8.17c-2.03,3.92-4.83,7.06-8.39,9.42-3.56,2.36-7.59,3.54-12.09,3.54-3.2,0-6.21-.67-9.04-2.01-2.83-1.34-5.3-3.16-7.41-5.45-2.11-2.29-3.78-4.97-5.01-8.06-1.24-3.08-1.85-6.37-1.85-9.86s.62-6.77,1.85-9.86c1.23-3.09,2.9-5.77,5.01-8.06,2.11-2.29,4.58-4.1,7.41-5.45,2.83-1.34,5.85-2.01,9.04-2.01,4.5,0,8.53,1.18,12.09,3.54,3.56,2.36,6.35,5.5,8.39,9.42l12.74-8.17c-1.74-2.76-3.8-5.26-6.15-7.52-2.36-2.25-4.96-4.19-7.79-5.83-2.83-1.63-5.88-2.89-9.15-3.76-3.27-.87-6.65-1.31-10.13-1.31-5.38,0-10.44,1.02-15.2,3.05"/>
    <g class="cls-3">
      <rect class="cls-7" x="169.66" y="166.95" width="60.08" height="78"/>
    </g>
  </g>
</svg>