<?xml version="1.0" encoding="UTF-8"?>
<svg id="Capa_1" data-name="Capa 1" xmlns="http://www.w3.org/2000/svg" xmlns:xlink="http://www.w3.org/1999/xlink" viewBox="0 0 220 77.8">
  <defs>
    <style>
      .cls-1 {
        clip-path: url(#clippath-2);
      }

      .cls-2 {
        clip-path: url(#clippath-6);
      }

      .cls-3 {
        fill: none;
      }

      .cls-3, .cls-4 {
        stroke-width: 0px;
      }

      .cls-5 {
        clip-path: url(#clippath-7);
      }

      .cls-6 {
        clip-path: url(#clippath-1);
      }

      .cls-7 {
        clip-path: url(#clippath-4);
      }

      .cls-8 {
        clip-path: url(#clippath);
      }

      .cls-9 {
        clip-path: url(#clippath-3);
      }

      .cls-4 {
        fill: #fff;
      }

      .cls-10 {
        clip-path: url(#clippath-5);
      }
    </style>
    <clipPath id="clippath">
      <rect class="cls-3" x="117.3" y="44.1" width="7" height="5.6"/>
    </clipPath>
    <clipPath id="clippath-1">
      <path class="cls-3" d="M42.6,21.5v12.8l3.8,2.3v41.1h4.8V16.5l-8.6,5ZM14.6,5.1v24.8l2.9,1.7v46.2h-8.7V26.5L.1,31.5v46.3h37.7V31.6l-8.7,5.1v41.1h-5.7V0l-8.8,5.1Z"/>
    </clipPath>
    <clipPath id="clippath-2">
      <path class="cls-3" d="M98.3,58.1l3.1,6.2h7.5v-6.2h-10.6ZM90.4,44.1v33.7h22.6v-5.6h-15.9v-22.5h15.8v-5.6h-22.5Z"/>
    </clipPath>
    <clipPath id="clippath-3">
      <rect class="cls-3" x="117.3" y="55.3" width="7" height="22.4"/>
    </clipPath>
    <clipPath id="clippath-4">
      <path class="cls-3" d="M138.6,45c-4.1,1.7-7.4,5.1-9.2,9.2-3.7,8.7.4,18.9,9.1,22.6,2.1.9,4.4,1.4,6.8,1.4s4.5-.4,6.6-1.3c2-.9,3.8-2.1,5.3-3.7,1.5-1.6,2.7-3.4,3.5-5.5.8-2.1,1.3-4.3,1.3-6.5v-1.7c0-.5-.1-1-.1-1.4h-19.4l3.1,6.2h9.1c-.3,1.1-.7,2.2-1.4,3.2-.6.9-1.3,1.8-2.1,2.5s-1.7,1.3-2.7,1.6c-2.4.9-5,.8-7.3-.3-1.2-.6-2.3-1.4-3.3-2.4-1.9-2.2-3-5-3-7.9,0-1.5.3-3,.8-4.4.5-1.3,1.3-2.5,2.2-3.6.9-1,2-1.8,3.3-2.4,1.2-.6,2.6-.9,4-.9,1.9,0,3.8.5,5.4,1.5,1.6,1,2.9,2.5,3.7,4.2l5.6-3.6c-1.5-2.4-3.6-4.5-6.1-5.9-2.6-1.5-5.5-2.3-8.5-2.2-2.3-.1-4.5.4-6.7,1.3Z"/>
    </clipPath>
    <clipPath id="clippath-5">
      <path class="cls-3" d="M173.9,58.1l3.1,6.2h7.5v-6.2h-10.6ZM166,44.1v33.7h22.6v-5.6h-15.8l.1-22.5h15.8v-5.6h-22.7Z"/>
    </clipPath>
    <clipPath id="clippath-6">
      <path class="cls-3" d="M192.8,44.1v33.7h6.7v-27.9h8.5c.7,0,1.4.2,2,.5.6.3,1.2.7,1.6,1.2.5.5.8,1.1,1.1,1.8.3.6.4,1.3.4,2,0,.8-.1,1.6-.4,2.3-.2.7-.6,1.3-1.1,1.8-.4.5-1,.9-1.6,1.2-.6.3-1.3.4-2,.4h-7.4l3.7,6.7h3.8c1.6,0,3.2-.3,4.6-.9,1.4-.6,2.7-1.5,3.8-2.5,1.1-1.1,2-2.3,2.6-3.8,1.3-3,1.3-6.3,0-9.2-.6-1.4-1.5-2.7-2.6-3.7-1.1-1.1-2.4-1.9-3.8-2.6-1.5-.6-3-.9-4.6-.9h-15.3v-.1Z"/>
    </clipPath>
    <clipPath id="clippath-7">
      <path class="cls-3" d="M65.1,45c-1.9.8-3.6,1.9-5.1,3.3v25.1c3.2,3,7.5,4.7,11.9,4.7,1.5,0,3-.2,4.5-.6,1.4-.4,2.7-.9,4-1.7,1.2-.7,2.4-1.6,3.4-2.6s2-2.1,2.7-3.3l-5.6-3.6c-.9,1.7-2.1,3.1-3.7,4.2-1.6,1-3.4,1.6-5.3,1.6-1.4,0-2.7-.3-4-.9-1.2-.6-2.3-1.4-3.3-2.4-1.9-2.2-3-5-3-7.9,0-1.5.3-3,.8-4.4.5-1.3,1.3-2.5,2.2-3.6.9-1,2-1.8,3.3-2.4,1.2-.6,2.6-.9,4-.9,1.9,0,3.8.5,5.3,1.5,1.6,1,2.8,2.5,3.7,4.2l5.6-3.6c-.8-1.2-1.7-2.3-2.7-3.3s-2.2-1.9-3.4-2.6c-1.3-.7-2.6-1.3-4-1.7-1.5-.4-3-.6-4.5-.6-2.3.1-4.6.6-6.8,1.5Z"/>
    </clipPath>
  </defs>
  <rect class="cls-3" x="-14.6" y="-10.8" width="250" height="138.2"/>
  <g class="cls-8">
    <rect class="cls-4" x="117.3" y="44.1" width="7" height="5.6"/>
  </g>
  <g class="cls-6">
    <rect class="cls-4" x=".1" width="51.2" height="77.8"/>
  </g>
  <rect class="cls-3" x="-14.6" y="-10.8" width="250" height="138.2"/>
  <g class="cls-1">
    <rect class="cls-4" x="90.4" y="44.1" width="22.6" height="33.7"/>
  </g>
  <g class="cls-9">
    <rect class="cls-4" x="117.3" y="55.3" width="7" height="22.4"/>
  </g>
  <g class="cls-7">
    <rect class="cls-4" x="128.1" y="43.7" width="34" height="34.5"/>
  </g>
  <g class="cls-10">
    <rect class="cls-4" x="165.9" y="44.1" width="22.6" height="33.7"/>
  </g>
  <g class="cls-2">
    <rect class="cls-4" x="192.9" y="44.1" width="27.1" height="33.7"/>
  </g>
  <g class="cls-5">
    <rect class="cls-4" x="60" y="43.7" width="26.5" height="34.5"/>
  </g>
</svg>