<?xml version="1.0" encoding="UTF-8"?>
<svg id="Capa_2" data-name="Capa 2" xmlns="http://www.w3.org/2000/svg" viewBox="0 0 83.75 131.65">
  <defs>
    <style>
      .cls-1 {
        fill: #fff;
      }
    </style>
  </defs>
  <g id="Capa_1-2" data-name="Capa 1">
    <path class="cls-1" d="M81.11,17.85c.72-.2,1.34-.62,1.98-.97,.86-.47,.89-1.12,.08-1.7-.52-.38-1.04-.77-1.57-1.14-.28-.2-.35-.41-.27-.76,.31-1.42,.59-2.86,.88-4.29,.09-.43,.1-.86-.36-1.12-.45-.26-.8-.05-1.15,.24-.73,.62-1.46,1.23-2.32,1.95,.11-.46,.17-.75,.24-1.03,.1-.39,.14-.78-.22-1.07-.36-.29-.74-.23-1.14-.06-1.24,.52-2.49,1.03-3.74,1.53-.2,.08-.42,.14-.64,.17-.4,.07-.63-.07-.61-.53,.02-.59,.02-1.18,0-1.77-.02-.67-.42-1.11-1.08-1.19-.24-.03-.48-.02-.72-.02-4.23,0-8.46,0-12.69,0-.52,0-.71-.15-.7-.69,.03-1.37,.02-2.73,0-4.1,0-.82-.45-1.26-1.26-1.31-.13,0-.26,0-.39,0H26.91c-.15,0-.3,0-.44,0-.81,.07-1.2,.47-1.2,1.29,0,1.29,0,2.59,0,3.88q0,.92-.92,.92c-4.28,0-8.57,0-12.85,0-1.01,0-1.46,.45-1.49,1.44-.01,.39,0,.78,0,1.16,0,.58-.06,.62-.61,.4-.99-.4-1.98-.81-2.98-1.21-.37-.15-.75-.25-1.09,.07-.34,.31-.29,.69-.2,1.08,.06,.27,.21,.53,.1,.9-.78-.66-1.51-1.28-2.25-1.89-.33-.27-.7-.44-1.11-.17-.4,.27-.43,.64-.33,1.08,.3,1.39,.56,2.79,.86,4.18,.1,.44,0,.73-.38,.98-.55,.37-1.09,.76-1.61,1.18-.56,.45-.55,1.06,.03,1.43,.63,.39,1.27,.78,1.96,1.02,.5,.18,.46,.36,.3,.75-.55,1.27-1.07,2.55-1.59,3.84-.26,.63-.17,1.04,.35,1.27,.38,.17,.46,.4,.46,.77,0,2.55,0,5.1,0,7.65,0,.37-.09,.6-.44,.79-1.55,.86-1.6,2.88-.1,3.79,.4,.25,.55,.51,.55,.97-.01,7-.01,14,0,21,0,.43-.12,.69-.52,.92-1.51,.88-1.49,2.98,.05,3.8,.38,.2,.47,.44,.47,.83,0,7.02,0,14.04,0,21.06,0,.37-.1,.6-.45,.79-1.61,.91-1.61,2.93,0,3.85,.34,.2,.45,.42,.45,.79,0,7.04,0,14.08,0,21.11,0,.39-.11,.63-.48,.83-1.56,.89-1.56,2.94,0,3.83,.36,.21,.48,.45,.47,.84,0,.85-.03,1.7,.08,2.55,.37,3.06,3.01,5.45,6.08,5.47,1.24,0,2.47,0,3.71,0,.34,0,.58,.07,.75,.42,.4,.81,1.05,1.27,1.99,1.24,.92-.02,1.59-.44,1.96-1.28,.12-.28,.31-.39,.6-.38,.59,0,1.18,.02,1.77,0,.4-.02,.56,.15,.55,.55-.02,.74-.02,1.48,0,2.22,.02,.68,.4,1.26,1.01,1.36,.91,.15,1.84,.17,2.75-.02,.34-.07,.64-.08,.96,.02,2.2,.7,4.4,1.39,6.6,2.08,.46,.15,.92,.21,1.41,.14,.82-.12,1.65-.17,2.48-.26,1.41-.15,2.82-.3,4.24-.45,.4-.04,.71-.24,.84-.62,.14-.4,.04-.76-.28-1.06-.16-.15-.31-.32-.48-.46-.38-.32-.27-.48,.15-.61,.34-.1,.66-.23,.99-.35,.71-.27,.94-.58,.95-1.32,.01-.81,0-1.63,0-2.44,0-.61-.27-1.01-.81-1.26-.5-.23-.99-.49-1.51-.7-.38-.16-.48-.26-.09-.56,.43-.34,.81-.75,1.21-1.14,.2-.2,.33-.45,.23-.75-.11-.32-.37-.45-.68-.48-2.42-.26-4.84-.52-7.26-.77-.5-.05-.98,.02-1.47,.17-2.29,.73-4.58,1.44-6.87,2.16-.19,.06-.39,.12-.59,.08-.79-.15-1.58-.1-2.37-.04-.92,.07-1.39,.58-1.41,1.51,0,.5-.01,1,0,1.5,0,.36-.15,.5-.5,.49-.61-.01-1.22-.01-1.83,0-.29,0-.46-.11-.6-.38-.41-.79-1.04-1.29-1.98-1.28-.92,0-1.58,.45-1.98,1.27-.14,.3-.33,.4-.65,.4-1.26-.01-2.51,.02-3.77-.01-2.48-.06-4.52-1.8-5.01-4.23-.18-.9-.05-1.81-.1-2.71-.02-.41,.11-.66,.48-.89,1.62-1.02,1.57-2.93-.1-3.87-.38-.21-.38-.49-.38-.83,0-3.1,0-6.21,0-9.31,0-3.9,0-7.79,0-11.69,0-.34,0-.64,.4-.81,.8-.35,1.2-1.05,1.24-1.89,.04-.88-.38-1.58-1.16-1.99-.4-.21-.48-.48-.48-.89,0-6.96,0-13.93,0-20.89,0-.43,.11-.69,.52-.92,1.52-.88,1.51-2.95-.02-3.79-.42-.23-.5-.51-.5-.93,0-6.98,.01-13.96,0-20.95,0-.45,.11-.72,.54-.97,1.36-.78,1.58-2.73,.31-3.52-.82-.51-.9-1.09-.84-1.87,.01-.18,.02-.37,0-.55-.03-.36,.13-.57,.45-.74,1.27-.67,2.53-1.37,3.8-2.06,.68-.38,.73-.36,.72,.4-.03,3.73-.06,7.46-.07,11.19-.05,21.85-.02,43.71-.02,65.56,0,.54,.03,1.07,.08,1.6,.45,4,3.48,7.32,7.44,8.07,2.93,.55,5.91,.56,8.87,.76,2.38,.16,4.75,.32,7.1,.7,3.21,.51,6.32,1.37,9.2,2.9,.83,.44,1.59,.48,2.41,.04,1.33-.72,2.74-1.28,4.19-1.72,4.04-1.25,8.22-1.52,12.41-1.77,2.3-.14,4.6-.24,6.89-.59,2.42-.36,4.51-1.42,6.2-3.17,2.08-2.16,3.04-4.78,3.04-7.79-.02-19.66,0-39.31,0-58.97,0-5.62,0-11.23,0-16.85,0-.68,.04-.71,.63-.39,.98,.52,1.91,1.14,2.93,1.56,1.26,.5,1.73,1.31,1.51,2.62-.06,.36-.11,.59-.47,.77-1.55,.8-1.64,2.93-.13,3.79,.51,.29,.58,.6,.58,1.1,0,6.93-.01,13.86,0,20.78,0,.47-.1,.77-.55,1.01-.77,.4-1.13,1.1-1.1,1.97,.03,.85,.44,1.49,1.2,1.85,.38,.17,.45,.41,.45,.78,0,7.04,0,14.08,0,21.11,0,.05,0,.11,0,.17,.01,.27-.09,.44-.35,.55-.84,.37-1.28,1.05-1.29,1.96-.01,.92,.43,1.6,1.25,2,.32,.16,.4,.37,.4,.7,0,7.08,0,14.15,0,21.23,0,.35-.1,.56-.44,.73-.8,.39-1.21,1.07-1.21,1.96,0,.89,.41,1.57,1.23,1.93,.33,.15,.42,.36,.42,.68-.01,.66,0,1.33,0,1.99-.02,2.46-1.9,4.65-4.34,5.02-1.56,.24-3.13,.06-4.7,.1-.3,0-.41-.19-.52-.42-.41-.82-1.08-1.25-2-1.23-.91,.02-1.58,.46-1.97,1.29-.12,.25-.27,.37-.55,.36-.65-.01-1.29-.01-1.94,0-.33,0-.46-.15-.46-.47,0-.61,0-1.22,0-1.83-.01-.76-.41-1.28-1.16-1.39-.86-.12-1.74-.14-2.58,.08-.33,.08-.6,.08-.91-.02-2.17-.68-4.34-1.35-6.5-2.05-.58-.19-1.16-.22-1.75-.16-1.36,.14-2.71,.28-4.07,.42-.81,.08-1.61,.16-2.42,.26-.41,.05-.75,.25-.87,.67-.12,.4,0,.76,.31,1.05,.19,.17,.37,.36,.56,.54,.24,.21,.23,.35-.09,.45-.4,.13-.8,.3-1.2,.42-.66,.21-.94,.68-.95,1.34,0,.68,.03,1.37-.01,2.05-.05,.91,.34,1.47,1.17,1.79,.55,.21,1.08,.45,1.41,.65-.37,.46-.74,.94-1.15,1.39-.25,.28-.53,.53-.38,.96,.15,.42,.55,.47,.91,.51,2.16,.23,4.33,.43,6.49,.68,.84,.1,1.63,0,2.44-.27,2.12-.7,4.26-1.35,6.39-2.01,.17-.05,.37-.12,.54-.1,.76,.11,1.51,.05,2.27,.05,1.06,0,1.54-.49,1.55-1.57,0-.59,.02-1.18,0-1.77-.02-.47,.13-.68,.62-.65,.53,.03,1.07,.02,1.61,0,.38-.01,.6,.1,.77,.46,.38,.77,1.03,1.2,1.9,1.2,.89,0,1.58-.36,1.97-1.17,.18-.38,.42-.49,.82-.49,1.18,.02,2.36,.01,3.54,0,3.53-.01,6.25-2.72,6.27-6.24,0-.57,.02-1.15,0-1.72-.02-.44,.11-.69,.53-.91,.74-.38,1.13-1.03,1.14-1.89,.01-.89-.38-1.55-1.14-1.94-.42-.21-.53-.47-.53-.9,.01-6.96,.01-13.93,0-20.89,0-.46,.11-.73,.55-.96,.77-.39,1.14-1.07,1.12-1.95-.02-.86-.39-1.51-1.15-1.88-.43-.21-.52-.48-.52-.91,0-6.95,.01-13.89,0-20.84,0-.46,.11-.72,.55-.95,.74-.38,1.11-1.04,1.12-1.9,0-.86-.37-1.53-1.11-1.9-.47-.24-.56-.53-.56-1,.01-5.74,0-11.49,0-17.24,0-1.26,0-2.51,0-3.77,0-.31,.03-.57,.37-.72,.84-.37,1.27-1.03,1.29-1.95,.02-.96-.44-1.62-1.27-2.03-.26-.13-.39-.3-.39-.6,0-2.66,0-5.32,0-7.98,0-.18,.01-.35,.21-.47,.88-.53,.91-.69,.51-1.63-.53-1.26-1.04-2.53-1.56-3.79-.07-.18-.22-.37,.12-.46M38.38,124.89c.09-.26-.22-.81,.42-.82,.7,0,.37,.57,.44,.9,.04,.17,0,.36,0,.55,0,.32-.19,.4-.47,.39-.28,0-.39-.15-.39-.42,0-.18,0-.36,0-.61m-12.97-3.58c1.92-.61,3.84-1.19,5.76-1.82,.51-.17,.99-.02,1.48,.02,1.8,.16,3.59,.36,5.39,.55,.11,.01,.24,0,.29,.11,.07,.16-.07,.23-.15,.32-.2,.22-.45,.2-.72,.16-1.22-.22-2.44-.42-3.65-.66-.41-.08-.76-.02-1.12,.16-2.61,1.3-5.23,2.58-7.85,3.88q-.67,.33-.67-.43c0-.2,0-.41,0-.61,0-1.28,0-1.29,1.23-1.68m11.74,.78c.41,.03,.68,.31,.64,.8-.03,.32-.03,.59-.46,.57-.59-.03-.33-.5-.44-.79,.13-.19-.16-.61,.26-.58m.62,2.91c0,.2,0,.41,0,.61-.01,.23-.18,.3-.38,.31-.22,0-.43-.03-.45-.3-.02-.41-.02-.81,0-1.22,0-.26,.18-.34,.41-.34,.23,0,.41,.07,.43,.33,.01,.2,0,.4,0,.61m-.84,2.39c0-.15,0-.29,0-.44,0-.16,.06-.29,.24-.32,.18-.03,.37-.07,.52,.08,.23,.23,.08,1.2-.2,1.35-.41,.22-.56,.14-.57-.33,0-.11,0-.22,0-.33h0Zm-1.54,.67c-.02-.14,0-.29,0-.44h0c0-.2,0-.41,0-.61,0-.32,.17-.41,.45-.41,.28,0,.4,.14,.4,.41,0,.35,0,.7,0,1.05,0,.4-.23,.51-.57,.52-.42,.01-.26-.32-.29-.52m.43-2.15c-.66,0-.37-.53-.43-.86-.03-.18,0-.37,0-.55,0-.29,.11-.44,.42-.44,.3,0,.44,.12,.43,.43,0,.18,0,.37,0,.6-.1,.26,.25,.81-.42,.82m-.43-3.5c0-.17,0-.33,0-.5,.01-.19-.06-.46,.23-.48,.26-.01,.56,.08,.59,.39,.05,.45,.03,.92,0,1.38,0,.24-.22,.26-.41,.26-.2,0-.39-.03-.4-.28-.02-.26,0-.52,0-.77h-.01m-1.48,4.64c-.02-.25-.01-.45,.32-.44,.28,0,.48,.07,.48,.39,0,.48,0,.96,0,1.44,0,.32-.23,.4-.49,.42-.31,.02-.28-.23-.3-.42-.02-.26-.03-.51-.04-.77,.01,0,.02,0,.03,0,0-.2,.01-.41,0-.61m.35-1.13c-.32,0-.42-.17-.41-.46,0-.31,0-.63,0-.94,0-.33,.16-.47,.48-.46,.33,0,.39,.22,.38,.49,0,.15,0,.29,0,.44,0,.15,0,.3,0,.44,0,.31-.11,.49-.45,.48m-.41-3.64c0-.24,0-.48,0-.72,0-.23,.08-.4,.35-.39,.27,0,.49,.07,.5,.38,.01,.51,.01,1.03,0,1.54,0,.25-.14,.36-.39,.36-.25,0-.45-.06-.46-.35-.01-.28,0-.55,0-.83h0Zm-.6,3.24c0,.28-.14,.39-.41,.39-.25,0-.44-.08-.44-.36,0-.37,0-.73,0-1.1,0-.28,.15-.38,.42-.39,.3,0,.45,.11,.44,.42,0,.18,0,.37,0,.55h0c0,.16,0,.33,0,.5m-.43-2.06c-.31,0-.44-.14-.44-.43,0-.41,0-.81,0-1.22,0-.38,.29-.48,.58-.58,.2-.06,.27,.07,.27,.24,0,.28,0,.55,0,.83h0c0,.24,0,.48,0,.72,0,.3-.12,.44-.43,.44m-.42,3.42c.01-.28,.24-.28,.45-.28,.2,0,.38,.05,.38,.29,.01,.29,0,.59,0,.88h.01c0,.17,.02,.33,0,.5-.03,.18,.13,.49-.17,.49-.27,0-.63-.1-.67-.45-.05-.47-.03-.95,0-1.43m-.68-4.24c-.08,.33,.17,.81-.46,.82-.51,0-.41-.36-.42-.66,0-.47,.32-.91,.67-.83,.39,.09,.11,.46,.21,.67m-.26,5.37c-.41-.02-.68-.31-.62-.79,.03-.29-.05-.61,.41-.62,.62,0,.41,.46,.47,.8-.12,.18,.19,.62-.26,.61m-.62-3.47c0-.31,.09-.48,.44-.48,.35,0,.44,.19,.43,.49,0,.15,0,.29,0,.44h-.01c0,.2,.01,.4,0,.6-.02,.26-.2,.32-.43,.32s-.41-.07-.41-.33c-.01-.35,0-.7-.01-1.04m-.6,.99c0,.28-.15,.39-.42,.39-.26,0-.42-.11-.43-.39,0-.18,0-.37,0-.55s0-.37,0-.55c0-.25,.15-.36,.39-.36,.25,0,.45,.07,.45,.36,.01,.37,0,.74,0,1.11m-1.54-1.09c0,.18,0,.36,0,.55h0c0,.2,0,.4,0,.6-.01,.26-.19,.33-.42,.33-.22,0-.41-.06-.42-.32-.01-.38,0-.77,0-1.15,0-.29,.16-.38,.42-.38s.43,.08,.42,.37m-1.53,1c.01,.34-.1,.45-.42,.27-.34-.18-.69-.34-1.04-.52-.24-.12-.25-.25,0-.37,.3-.15,.59-.3,.89-.44,.51-.24,.55-.22,.57,.34,0,.11,0,.22,0,.33,0,.13,0,.26,0,.39m-2.99,.93c0-.68,.04-.7,.63-.41,2.4,1.18,4.81,2.34,7.19,3.56,.85,.44,1.66,.6,2.6,.36,.91-.23,1.85-.34,2.77-.51q.63-.11,1.13,.51c-1.51,.16-2.94,.31-4.36,.46-.33,.04-.66,.05-.99,.11-1.18,.24-2.29,0-3.41-.39-1.62-.56-3.26-1.05-4.91-1.53-.48-.14-.72-.36-.67-.89,.04-.42,0-.85,0-1.27m-3.23-4.63c.53-.02,1.07-.02,1.6,0,.41,0,.51,.29,.51,.64,0,.9,0,1.81,0,2.71s0,1.84,0,2.76c0,.42-.18,.61-.6,.6-.5,0-.99,0-1.49,0-.36,0-.55-.19-.55-.55,0-1.86,0-3.72,0-5.58,0-.36,.17-.57,.53-.58m-6.47,1.89c.58-.02,1.13,.52,1.14,1.12,0,.61-.51,1.14-1.11,1.14-.6,0-1.12-.5-1.13-1.12-.01-.61,.49-1.13,1.11-1.15m31.38-3.57c1.96-.21,3.92-.41,5.88-.62,.3-.03,.58-.02,.87,.07,2.04,.65,4.08,1.28,6.12,1.93,.88,.28,.88,.28,.88,1.22v.39q0,1.36-1.24,.75c-2.43-1.2-4.86-2.39-7.29-3.6-.39-.2-.77-.28-1.22-.19-1.16,.24-2.32,.43-3.48,.63-.18,.03-.37,.06-.55,.03-.22-.04-.46-.21-.46-.41,0-.29,.31-.17,.48-.19m12.3,5.08c-.14,.08-.29,.17-.44,.22-.37,.13-.81,.63-1.07,.38-.31-.3-.08-.91-.1-1.38,0-.13,.05-.22,.27-.17,.42,.21,.9,.45,1.37,.7,.14,.07,.09,.18-.03,.25m-2.3-.15c0,.18,0,.36,0,.55,0,.25-.14,.36-.38,.36-.24,0-.39-.11-.39-.36,0-.36,0-.73,0-1.1,0-.27,.14-.4,.41-.39,.26,0,.36,.15,.36,.38,0,.18,0,.36,0,.55m-1.46,.44c0,.31-.1,.48-.44,.47-.36,0-.43-.21-.42-.5,0-.15,0-.29,0-.44h0c0-.18,0-.37,0-.55,0-.29,.19-.36,.44-.36,.27,0,.42,.11,.41,.39,0,.33,0,.66,0,.99m-2.42,1.94c.06-.33-.14-.77,.44-.78,.49,0,.43,.34,.43,.65,0,.44-.31,.85-.65,.79-.41-.08-.13-.46-.23-.66m.88-1.88c0,.31-.16,.41-.45,.41-.27,0-.41-.12-.41-.4,0-.31,0-.62,0-.93-.01-.32,.07-.53,.45-.52,.36,.01,.42,.22,.41,.51,0,.13,0,.26,0,.39h0c0,.18,0,.37,0,.55m-.41-2.12c-.63,0-.38-.49-.48-.8,.12-.19-.15-.61,.23-.59,.39,.02,.7,.28,.66,.78-.03,.29,.02,.61-.42,.61m-1.91,4.35h0v-.72c0-.31,.18-.41,.47-.41,.29,0,.39,.16,.39,.42,0,.39,0,.77,0,1.16,0,.11-.04,.24-.11,.3-.17,.17-.39,.35-.62,.28-.22-.06-.11-.32-.12-.49-.02-.18,0-.37,0-.55m.86-2.71h0c0,.18,0,.37,0,.55,0,.26-.16,.34-.4,.34-.25,0-.44-.06-.45-.35,0-.37,0-.73,0-1.1,0-.31,.18-.4,.46-.4,.28,0,.4,.14,.39,.41,0,.18,0,.37,0,.55m0-1.96c0,.26-.19,.32-.42,.32-.23,0-.41-.07-.42-.33-.01-.28,0-.55,0-.83h-.01c0-.15-.02-.3,0-.44,.03-.19-.12-.52,.22-.51,.26,.01,.58,.13,.61,.46,.04,.44,.02,.88,.02,1.32m-2.38,1.4c0-.28,.14-.39,.41-.39,.25,0,.44,.07,.44,.36,0,.37,0,.73,0,1.1,0,.28-.14,.39-.41,.39-.3,0-.45-.11-.44-.42,0-.18,0-.37,0-.55h0c0-.16,0-.33,0-.49m0,2.51c0-.3,.2-.36,.45-.36,.24,0,.39,.1,.4,.36,0,.26,0,.52,0,.77h0c0,.24,0,.48,0,.72,0,.2,.02,.45-.3,.41-.25-.03-.55-.03-.55-.4,0-.5,0-.99,0-1.49m.85-4.74v.77c0,.28-.15,.39-.42,.39-.26,0-.43-.1-.43-.38,0-.46,0-.92,0-1.38,0-.38,.25-.44,.55-.46,.37-.02,.29,.24,.3,.45,0,.2,0,.4,0,.61h0Zm-2.39,2.8c-.04-.17,0-.36,0-.55,0-.26,.11-.41,.39-.41,.28,0,.47,.08,.47,.4v.61c-.09,.27,.25,.85-.45,.83-.66-.02-.33-.56-.4-.88m0-3.05c-.02-.4,.22-.52,.54-.53,.38-.02,.31,.28,.32,.51,.01,.15,0,.29,0,.44,0,.16,0,.33,0,.49,0,.29-.07,.5-.42,.51-.34,0-.45-.17-.44-.48,0-.31,.02-.62,0-.93m.02,4.92c0-.24,.19-.29,.39-.29,.22,0,.42,.05,.44,.31,.02,.22,0,.44,0,.66h.01c0,.17,0,.33,0,.5-.01,.22,.02,.48-.31,.48-.25,0-.5-.1-.52-.39-.03-.42-.02-.85,0-1.27m-.83,1.05c-.37,.05-.65-.32-.65-.79,0-.3,.03-.56,.43-.55,.59,0,.39,.45,.45,.78-.09,.17,.16,.51-.23,.56m-.25-4.56c-.09,0-.19-.02-.26-.07-.28-.21-.15-1.2,.18-1.36,.43-.21,.54-.14,.56,.33,0,.09,0,.18,0,.32-.06,.29,.19,.8-.47,.78m.06,.68c.41,0,.42,.26,.42,.56,0,.11,0,.22,0,.33,0,.17,0,.33,0,.5,.01,.31-.1,.48-.44,.48-.36,0-.43-.21-.42-.5,0-.27,0-.55,0-.83,0-.31,.06-.54,.45-.53m-1.13,.93c0,.2,0,.41,0,.61-.02,.27-.2,.32-.42,.32s-.41-.05-.42-.32c-.01-.39,0-.77,0-1.16,0-.29,.17-.38,.43-.38s.43,.09,.43,.38v.55h0m13.82,3.45c-2.2,.68-4.4,1.39-6.6,2.07-.58,.18-1.17,0-1.76-.05-1.72-.17-3.44-.36-5.17-.54-.09,0-.19,0-.26-.13,.19-.32,.42-.53,.87-.44,1.18,.23,2.36,.41,3.54,.64,.49,.09,.93,.03,1.39-.2,2.62-1.31,5.26-2.6,7.89-3.9,.55-.27,.56-.26,.57,.36,0,.52-.01,1.03,0,1.55,.01,.35-.14,.54-.47,.64m4.14-.74c0,.41-.2,.56-.59,.55-.44,0-.89-.02-1.33,0-.51,.02-.74-.19-.73-.72,.02-.89,0-1.77,0-2.66s.02-1.74,0-2.6c-.01-.51,.2-.7,.69-.68,.46,.02,.92,.01,1.38,0,.39,0,.57,.16,.57,.56,0,1.85,0,3.69,0,5.54m5.92-1.8c-.6-.02-1.04-.5-1.04-1.14,0-.66,.48-1.14,1.11-1.13,.59,0,1.11,.56,1.09,1.17-.02,.6-.56,1.12-1.17,1.1M80.84,9.1c.12-.1,.23-.31,.41-.22s.07,.3,.04,.45c-.23,1.16-.51,2.31-.69,3.47-.1,.61-.43,.78-.97,.8-1.27,.06-2.54,.15-3.81,.22-1.54,.08-3.09,.16-4.63,.24v.02c-.18,0-.37-.01-.55,0-.53,.04-.8-.25-.73-.78,.05-.35,.35-.29,.57-.31,.95-.06,1.91-.11,2.87-.13,.81-.01,1.62-.06,2.43-.12,.27-.02,.49-.13,.72-.26,1.6-.94,2.92-2.24,4.35-3.4m-18.53,7.07c-2.15-.36-4.29-.73-6.44-1.09-.33-.05-.55-.16-.57-.54,0-.39,.11-.6,.54-.57,.18,.01,.37,0,.55,0,0,0,0-.01,0-.02,1.4,.11,2.79,.22,4.19,.32,.28,.02,.55,.03,.83,.03,.3,0,.35-.21,.37-.45,.02-.24-.12-.32-.34-.34-.4-.03-.81-.1-1.21-.11-.46,0-.48-.28-.48-.62s.04-.58,.47-.58c.61,0,1.27-.11,1.81,.13,.62,.27,1.06,.88,1.65,1.25,.07,.04,.04,.24,.05,.37,.03,.35,.2,.63,.52,.72,.92,.26,1.85,.54,2.83,.36,.61-.11,1.15-.38,1.63-.78,.12-.1,.22-.33,.39-.22,.1,.07,.13,.3,.15,.46,.11,1.42-.32,2.68-1.16,3.83-.79,1.1-1.63,1.53-3.07,1.02-2.48-.89-5.05-1.52-7.58-2.26-.19-.06-.4-.11-.56-.22-.22-.15-.42-.4-.34-.64,.09-.26,.39-.11,.59-.07,1.69,.28,3.38,.57,5.07,.86,.29,.05,.5,.07,.57-.31,.07-.4-.15-.47-.46-.52m2.27-2.48c0-.18,.17-.23,.32-.26,1.18-.28,2.36-.56,3.54-.83,.11-.03,.23-.05,.31,.05,.09,.12,.06,.25-.03,.36-.58,.71-1.27,1.22-2.34,1.27-.41-.08-.94-.17-1.46-.28-.16-.03-.35-.08-.34-.3m3.53,5.92c.21-.1,.31,.05,.41,.18,.91,1.11,1.82,2.22,2.72,3.34,.21,.26,.13,1.16-.11,1.39-.05,.05-.13,.07-.19,.08-.09,0-.18-.02-.27-.04q-1.65-.34-2.12-1.99c-.24-.83-.47-1.67-.68-2.4-.03-.31,.05-.46,.24-.55m3.14,2.25c-.63-.99-1.44-1.87-2.22-2.76-.29-.33-.09-.51,.06-.76,.17-.3,.35-.16,.55-.05,2.3,1.36,4.61,2.72,6.92,4.08,.27,.16,.37,.29,.06,.52-.31,.23-.6,.49-.91,.73-.13,.11-.28,.19-.58,.17-1.27-.49-2.91-.41-3.87-1.92m5.07-.58c-2.09-1.24-4.18-2.48-6.28-3.71-.23-.14-.46-.27-.27-.59,.06-.1,.12-.19,.3-.16,.08,.04,.19,.1,.3,.17,2.09,1.24,4.19,2.48,6.27,3.72,.18,.11,.54,.16,.37,.49-.16,.33-.43,.24-.7,.08m-3.54-10.85c.42-.01,.8-.09,1.18-.25,1.07-.45,2.15-.89,3.22-1.33,.17-.07,.35-.22,.52-.1,.18,.13,.04,.34,0,.52-.03,.15-.09,.29-.09,.43-.01,1.1-.73,1.66-1.59,2.12-.15,.08-.3,.13-.47,.13-1.8,.08-3.61,.15-5.41,.23-.3,.01-.58,0-.82-.24-.32-.31-.72-.24-1.1-.15-1.17,.27-2.34,.54-3.5,.84-.49,.13-.9,0-1.39-.33,.97-.54,1.84-1.05,2.73-1.53,.14-.08,.32-.1,.48-.1,2.08-.08,4.16-.16,6.24-.23M11.11,7.93c0-.7,.02-.73,.71-.73,1.55,0,3.1,0,4.65,0,2.73,0,5.47,0,8.2,0,1.24,0,1.63-.39,1.63-1.63,0-1.27,.02-2.55,0-3.82,0-.47,.13-.65,.63-.65,9.51,.01,19.02,.01,28.53,0,.49,0,.64,.18,.63,.65-.02,1.27,0,2.55,0,3.82,0,1.28,.35,1.63,1.66,1.63,4.19,0,8.38,0,12.57,0,.18,0,.37,0,.55,0,.28,0,.4,.15,.4,.42,0,.54,0,1.07,0,1.61,0,.28-.14,.41-.4,.42-.35,.03-.7,.07-1.05,.08-1.18,.05-2.36,.08-3.54,.12-.29,0-.54,.11-.78,.25-.59,.34-1.19,.67-1.77,1.03-.34,.21-.7,.3-1.1,.29-.91-.02-1.81-.02-2.71-.02-.7,0-.92,.24-.94,.93,0,.11-.01,.22,0,.33,.07,.55-.22,.65-.7,.61-.9-.09-1.8-.15-2.7-.19-.8-.03-1.11,.29-1.12,1.08,0,.28,0,.56,.02,.83,.02,.24,.08,.52,.32,.61,.63,.24,.84,.8,1.09,1.33,.22,.47,.57,.73,1.07,.87,3.04,.87,6.06,1.76,9.1,2.64,.12,.04,.26,.12,.37,.09,.68-.13,.82,.3,.95,.83,.24,.97,.55,1.92,.81,2.88,.1,.38,.31,.64,.69,.71,.93,.17,1.81,.68,2.81,.45,.09-.02,.22,.03,.31,.08,.8,.43,1.59,.86,2.39,1.29,.23,.13,.34,.31,.34,.58,0,2.86,0,5.73-.01,8.59,0,.03-.02,.07-.05,.14-.23-.1-.34-.32-.48-.5-3.92-4.92-7.85-9.84-11.77-14.77-.42-.53-.93-.76-1.59-.68-.53,.06-1.07,.1-1.6,.14-.51,.04-.88,.32-1.26,.64-1.72,1.46-2.95,3.3-4,5.26-.37,.68-.83,.92-1.59,.87-1.53-.08-3.06-.07-4.59-.12-.61-.02-1.13,.14-1.54,.61-.36,.41-.77,.48-1.24,.23-.13-.07-.28-.1-.41-.17-1.22-.7-2.54-.47-3.84-.39-.34,.02-.64,.17-.92,.37-.45,.32-.92,.61-1.38,.93-.36,.25-.64,.24-.96-.11-.91-1.04-2.36-.95-3.17,.18-.56,.78-1.13,1.55-1.7,2.33-.43,.58-.65,.61-1.23,.17-2.31-1.78-4.62-3.57-6.92-5.35-.69-.53-1.38-1.06-2.06-1.59-.49-.38-1-.42-1.61-.31-1.6,.28-2.66,1.16-3.61,2.46-2.5,3.46-5.13,6.82-7.71,10.21-.11,.14-.16,.34-.38,.38-.13-.17-.07-.36-.07-.53,0-2.9,0-5.8-.01-8.7,0-.48,.1-.82,.58-1,.2-.07,.41-.19,.57-.33,1.14-.96,2.59-.86,3.93-1.1,1-.18,1.53-.63,1.72-1.62,.18-.9,.5-1.78,.73-2.67,.08-.29,.17-.47,.52-.37,.26,.07,.51-.04,.76-.11,2.91-.85,5.81-1.72,8.72-2.53,.73-.2,1.21-.57,1.5-1.24,.17-.4,.36-.8,.84-.97,.27-.1,.4-.37,.4-.68,0-.26,0-.52,0-.78,0-.91-.29-1.19-1.21-1.15-.85,.04-1.69,.1-2.54,.17-.61,.05-.68,0-.69-.59-.03-1.06-.23-1.27-1.27-1.27-.52,0-1.04-.03-1.55,.02-.98,.09-1.88-.06-2.65-.69-1.16-.94-2.56-.92-3.94-.97-1.25-.05-2.51-.1-3.76-.12-.44,0-.59-.18-.57-.6,.02-.37,0-.74,0-1.11m40.95,26.58c-.74-.48-1.52-.83-2.42-.86-2.17-.07-4.02-1.05-5.77-2.19-1.04-.68-2.14-.72-3.29-.67-.23,.01-.42,.14-.6,.26-.67,.43-1.37,.81-2,1.29-1.98,1.5-4.26,2.33-6.56,3.16-.17,.06-.35,.12-.52,.2-1.87,.89-3.82,1.17-5.9,1.13-4.56-.1-9.12-.03-13.68-.03-.21,0-.5,.12-.61-.11-.08-.18,.16-.35,.28-.51,2.61-3.44,5.23-6.88,7.82-10.34,.35-.46,.83-.56,1.29-.76,.96-.43,1.71-.22,2.49,.46,1.23,1.06,2.55,2.01,3.83,3.01,.1,.08,.23,.12,.26,.38h-.64c-1.35,0-2.7,0-4.05,0-.38,0-.52,.16-.52,.54,0,.37,.18,.48,.51,.48,1.53,0,3.07,.06,4.6-.02,1.14-.06,2.09,.18,2.91,.99,.43,.42,.95,.76,1.44,1.12,.86,.64,1.66,.54,2.31-.31,.63-.82,1.22-1.67,1.83-2.5,.51-.69,1.11-.7,1.68-.05,.52,.6,1.27,.74,1.95,.35,.43-.25,.84-.54,1.25-.82,1.1-.77,2.31-.62,3.51-.4,.46,.09,.9,.33,1.35,.5,.66,.25,1.29,.25,1.79-.29,.48-.52,1.05-.62,1.7-.55,1.57,.16,3.14,.08,4.71,.1,.34,0,.65,.07,.96,.22,3.3,1.57,6.61,3.12,9.91,4.69,.34,.16,.59,.23,.8-.2,.23-.46-.04-.57-.37-.72-3.12-1.48-6.24-2.97-9.36-4.43-.49-.23-.52-.43-.23-.85,.42-.61,.82-1.23,1.15-1.89,.69-1.35,1.84-2.3,2.9-3.32,.46-.44,1.13-.23,1.7-.36,.56-.12,.96,.11,1.32,.57,1.73,2.21,3.49,4.4,5.23,6.6,.12,.15,.37,.29,.26,.5-.09,.16-.34,.07-.52,.07-1.03,0-2.07,0-3.1,0-.36,0-.61,.08-.62,.51-.01,.45,.24,.51,.6,.5,1.39,0,2.77,0,4.16,0,.35,0,.58,.11,.8,.38,1.57,1.99,3.15,3.96,4.72,5.94,.1,.12,.3,.24,.23,.41-.09,.21-.32,.1-.5,.13-.07,0-.15,0-.22,0-5.45,0-10.89,0-16.34,0-.53,0-.97-.13-1.4-.4-1.01-.64-2.05-1.24-3.06-1.9m1.48,2.26H31.26s-.02-.06-.03-.1c.59-.22,1.17-.48,1.78-.67,2.11-.64,3.99-1.72,5.79-2.97,.35-.24,.72-.45,1.06-.7,1.06-.76,2.14-.74,3.25-.1,1.04,.6,2.1,1.16,3.15,1.73,.84,.46,1.79,.52,2.68,.57,1.86,.1,3.15,1.29,4.59,2.22M7.31,22.34c1.52-.91,3.04-1.81,4.57-2.71,.73-.43,1.46-.87,2.19-1.3,.18-.1,.37-.3,.58-.03,.17,.24,.37,.46,.1,.78-1.01,1.22-2.01,2.46-3.01,3.69-.05,.06-.1,.12-.17,.14-1,.4-2.05,.6-2.98,.9-.3-.01-1.54-.9-1.59-1.09-.07-.26,.17-.3,.31-.39m-.64-1.19c-.08-.19,.11-.25,.23-.32,2.2-1.31,4.4-2.61,6.6-3.92,.12-.07,.26-.2,.4-.07,.08,.08,.12,.22,.15,.29-.01,.25-.17,.33-.31,.41-2.09,1.24-4.18,2.48-6.27,3.71-.11,.07-.23,.13-.36,.15-.2,.03-.37-.09-.44-.26m8.75-6.62c.75,.48,1.56,.64,2.44,.51,.31-.04,.61-.14,.92-.18,.73-.09,1.28-.36,1.3-1.21,0-.05,.02-.13,.05-.15,.53-.32,.93-.85,1.42-1.13,.59-.34,1.4-.22,2.12-.14,.4,.05,.26,.42,.28,.68,.02,.27-.07,.46-.39,.48-.4,.03-.81,.08-1.21,.11-.27,.02-.41,.13-.4,.41,.01,.27,.16,.4,.43,.39,.7-.05,1.4-.1,2.1-.15,1.14-.07,2.28-.13,3.42-.19,.29-.02,.56-.01,.58,.4,.02,.38-.05,.63-.5,.7-2.17,.35-4.33,.73-6.49,1.1-.26,.04-.54,.05-.52,.43,.02,.39,.23,.48,.6,.41,1.69-.3,3.38-.58,5.07-.86,.2-.03,.5-.2,.59,.05,.09,.23-.12,.49-.32,.66-.12,.1-.3,.14-.46,.18-2.87,.84-5.74,1.66-8.6,2.52-.56,.17-.93,.06-1.33-.34-1.43-1.41-1.97-2.51-1.99-4.27,.03-.28-.14-.76,.09-.89,.27-.16,.53,.29,.79,.46m-.47-1.8c.07-.14,.19-.16,.33-.13,1.2,.28,2.4,.57,3.6,.85,.13,.03,.25,.1,.26,.25,.01,.19-.14,.24-.29,.27-.52,.11-1.05,.21-1.47,.29-1.06-.04-1.78-.52-2.37-1.23-.08-.09-.12-.19-.06-.3m.93,7.46c-.25,.87-.49,1.74-.74,2.61-.41,1.47-.56,1.59-2.09,1.77-.04,0-.07,0-.11,.01-.19,.01-.34-.04-.39-.23-.11-.41-.39-.81-.02-1.25,.79-.95,1.56-1.92,2.34-2.87,.1-.13,.2-.27,.31-.39,.13-.14,.23-.37,.49-.22,.21,.13,.28,.32,.21,.57M6.42,8.79c.82,.35,1.66,.62,2.45,1.02,1.11,.56,2.28,.68,3.48,.71,1.58,.05,3.17,.09,4.75,.13,.32,0,.61,.09,.89,.25,.65,.39,1.31,.75,1.97,1.13,.12,.07,.31,.11,.31,.28,0,.2-.23,.21-.36,.29-.24,.14-.48,.12-.75,.05-1.16-.28-2.33-.55-3.5-.82-.2-.05-.4-.08-.61-.12-.14,.03-.33,0-.42,.09-.66,.64-1.46,.36-2.21,.35-1.36-.02-2.72-.13-4.08-.2-.84-.04-1.87-.88-2.07-1.7-.09-.38-.17-.76-.27-1.13-.11-.42,.02-.5,.41-.34m-4.06,.03s.09-.04,.14-.07c.93,.78,1.87,1.55,2.79,2.34,.65,.56,1.36,1.02,2.08,1.46,.56,.34,1.22,.25,1.84,.28,1.33,.07,2.66,.09,3.98,.15,.65,.03,.71,.17,.58,.8-.07,.33-.24,.34-.52,.32-2.34-.14-4.68-.26-7.02-.39-.77-.04-1.55-.09-2.32-.13-.43-.02-.64-.21-.73-.66-.25-1.37-.55-2.74-.83-4.11m-1.34,7.27c-.15-.07,0-.19,.07-.25,.61-.45,1.22-.9,1.84-1.32,.31-.21,.68-.09,1.06-.11,3.03,.18,6.1,.37,9.17,.55,.23,.01,.44,.03,.47,.34,.02,.32-.16,.42-.43,.45-1.28,.15-2.56,.31-3.84,.46-2.1,.25-4.2,.5-6.31,.73-.82,.09-1.38-.54-2.04-.86m.87,6.59c.44-1.07,.99-2.11,1.29-3.22,.39-1.42,1.19-1.95,2.66-2.02,2.03-.09,4.05-.45,6.12-.59-3.32,1.97-6.64,3.94-9.95,5.91-.04-.03-.08-.05-.11-.08m1.69,91.83c0,.66-.48,1.1-1.13,1.08-.63-.02-1.09-.52-1.07-1.16,.02-.63,.47-1.05,1.11-1.04,.66,0,1.1,.46,1.09,1.13m0-26.62c0,.66-.44,1.1-1.11,1.1-.64,0-1.09-.44-1.1-1.06,0-.64,.47-1.14,1.09-1.15,.65-.01,1.11,.44,1.11,1.1m0-26.51c0,.64-.43,1.1-1.05,1.11-.66,.01-1.16-.48-1.16-1.14,0-.62,.45-1.06,1.09-1.07,.66,0,1.11,.43,1.12,1.1m0-26.6c0,.64-.49,1.11-1.13,1.1-.62-.01-1.09-.52-1.08-1.16,.01-.59,.52-1.08,1.11-1.08,.61,0,1.1,.51,1.09,1.15m.03-5.82c-.56,.3-.58,.29-.58-.38,0-.42,0-.85,0-1.27-.42-1.48,.31-2.29,1.6-2.8,.19-.07,.35-.21,.52-.31,.23-.12,.28-.27,.14-.49-.13-.21-.27-.36-.53-.2-.44,.26-.89,.52-1.34,.78-.25,.15-.36,.1-.39-.2-.06-.6-.02-1.09,.65-1.38,.6-.26,1.16-.65,1.72-1,.21-.13,.39-.17,.6,0,.23,.18,.19,.35,.08,.58-.19,.41-.04,.76,.28,1.04,.25,.22,.51,.43,.78,.62,.3,.22,.29,.39-.03,.57-.5,.28-.98,.59-1.48,.86-.25,.14-.36,.27-.19,.56,.17,.28,.34,.3,.59,.14,.06-.04,.13-.07,.19-.11,1.45-1.05,3.11-1.58,4.82-1.99,.23-.06,.47-.18,.58,.18,.1,.31-.02,.47-.29,.61-2.58,1.39-5.16,2.8-7.73,4.2M74.7,104.16c0,5.2-3.51,9.19-8.67,9.91-2.23,.31-4.48,.41-6.72,.55-4.37,.26-8.73,.58-12.93,1.97-1.32,.43-2.61,.94-3.83,1.6-.5,.27-.95,.28-1.46,.01-3.55-1.87-7.37-2.79-11.32-3.27-3.04-.37-6.1-.5-9.16-.67-1.56-.09-3.13-.21-4.68-.45-3.66-.57-6.55-3.61-6.94-7.28-.06-.57-.08-1.14-.08-1.71,0-19.82-.01-39.64,.02-59.46,0-2.06,.07-4.13,.09-6.2,0-.76,.61-1.34,1.38-1.34,5.91,0,11.82,.02,17.73,.02,14.97,0,29.95-.01,44.92-.02,.11,0,.22,0,.33,0,1.01,.01,1.32,.32,1.32,1.34,0,10.93,0,21.87,0,32.8h0c0,10.73,0,21.46,0,32.19m3.96-79.86c.54,.32,1.07,.65,1.63,.94,.37,.2,.52,.46,.51,.88-.03,.9-.02,1.81,0,2.72,0,.41-.11,.49-.48,.29-2.21-1.22-4.44-2.42-6.66-3.64-.4-.22-.81-.45-1.22-.66-.31-.16-.43-.38-.28-.72,.15-.36,.41-.15,.61-.11,1.63,.37,3.18,.93,4.56,1.91,.12,.09,.26,.14,.39,.21,.24,.14,.37,.03,.49-.17,.13-.21,.12-.38-.1-.51-.51-.3-1.02-.6-1.53-.9-.29-.16-.33-.31-.05-.53,.29-.22,.58-.46,.86-.7,.34-.29,.49-.65,.26-1.08-.12-.23-.06-.37,.11-.53,.19-.17,.35-.13,.55-.02,.7,.42,1.39,.85,2.1,1.24,.39,.22,.39,.54,.36,.98-.04,.13,.13,.42-.1,.53-.19,.1-.36-.13-.54-.22-.37-.21-.74-.41-1.1-.64-.26-.16-.44-.21-.63,.11-.21,.35,.03,.46,.25,.6m3.79,90.21c0,.62-.5,1.1-1.14,1.1-.59,0-1.09-.49-1.1-1.09-.02-.61,.49-1.11,1.12-1.12,.64,0,1.12,.46,1.12,1.11m0-26.57c-.01,.65-.48,1.09-1.14,1.08-.6,0-1.09-.49-1.1-1.08,0-.61,.51-1.13,1.12-1.13,.61,0,1.14,.53,1.12,1.13m0-26.49c-.02,.6-.5,1.06-1.12,1.07-.61,0-1.13-.51-1.13-1.12,0-.61,.52-1.09,1.16-1.08,.64,0,1.11,.49,1.09,1.14m0-26.66c0,.58-.5,1.1-1.08,1.12-.63,.01-1.15-.47-1.16-1.09-.01-.59,.53-1.14,1.12-1.15,.61-.01,1.12,.5,1.12,1.13m-.58-12.12s-.07,.07-.1,.11c-3.31-1.96-6.61-3.92-9.92-5.88,.02-.04,.03-.07,.04-.11,1.64,.19,3.28,.38,4.92,.57,.82,.1,1.65,.2,2.47,.29,.28,.03,.55,.07,.68,.38,.64,1.55,1.28,3.09,1.91,4.64m-2.13-5.77c-2.91-.44-5.85-.72-8.78-1.06-.15-.02-.29-.05-.44-.07-.27-.03-.46-.11-.44-.44,.02-.35,.28-.34,.52-.35,2.61-.15,5.22-.3,7.84-.45,.46-.03,.91-.14,1.4-.08,.62-.15,1.12,.09,1.6,.5,.35,.3,.74,.56,1.12,.82,.26,.18,.34,.31,0,.5-.88,.49-1.72,.8-2.81,.64"/>
    <path class="cls-1" d="M72.49,42.91c-.07-1.21-1.15-1.95-2.06-1.71-.24,.07-.52,.03-.77,.02-9.51-.06-19.01,.04-28.52-.08-9.3-.12-18.61-.03-27.92-.02-.13,0-.26,0-.39,.01-.85,.09-1.51,.71-1.64,1.55-.05,.35-.07,.7-.08,1.05,0,1.85,0,3.69,0,5.54,0,17.71,0,35.43,0,53.14,0,1.61,.28,3.16,1.08,4.58,1.7,2.99,4.39,4.28,7.71,4.52,2.83,.21,5.67,.25,8.51,.41,4.35,.25,8.59,.92,12.49,3,.6,.32,1.2,.3,1.81,0,.44-.22,.89-.44,1.35-.65,3.55-1.59,7.34-2.01,11.17-2.21,2.69-.14,5.38-.18,8.06-.45,5.41-.54,9.19-4.66,9.19-10.1,0-9.62,0-19.25,0-28.87,0-9.7,0-19.39,0-29.09,0-.22,0-.44,0-.66m-8.85,67.61c-2.18,.26-4.38,.33-6.57,.42-3.69,.15-7.37,.36-10.94,1.45-1.24,.38-2.44,.84-3.59,1.46-.5,.27-.95,.24-1.46-.02-2.66-1.36-5.49-2.14-8.44-2.55-2.69-.37-5.4-.48-8.11-.58-2.12-.08-4.25-.08-6.34-.49-3.49-.7-5.97-3.7-5.97-7.26,0-9.88,0-19.76,0-29.65v-29.64c0-.22,0-.44,0-.67,.03-.48,.26-.76,.77-.76,.2,0,.4,0,.61,0,9.14,0,18.28,.08,27.42-.02,9.51-.11,19.02-.01,28.52-.07,.2,0,.41,0,.61,0,1,.02,1.24,.26,1.24,1.25,0,19.45-.03,38.9,.02,58.35,.01,4.16-3.09,8.22-7.77,8.78"/>
    <path class="cls-1" d="M30.03,9.56c-.09,.14-.15,.29-.22,.45-.61,1.51-.06,2.58,1.51,2.96,.11,.03,.21,.06,.33,.07,.48,.05,.52,.26,.31,.66-.59,1.1-.63,2.22-.08,3.35,.12,.24,.11,.43-.02,.67-.41,.73-.36,1.46,.2,2.04,.33,.34,.57,.68,.67,1.16,.12,.55,.53,.86,1.1,.81,.45-.03,.81,0,1.08,.41,.12,.17,.38,.26,.6,.24,.53-.06,1-.05,1.41,.38,.15,.16,.43,.14,.64,.09,.41-.09,.73,.14,1.08,.2,.97,.17,1.95,.35,2.94,.28,.16-.01,.3-.12,.48-.04,.47,.21,.94,.16,1.38-.09,.15-.08,.3-.12,.48-.07,.55,.18,1.06,.1,1.51-.27,.11-.09,.23-.11,.37-.07,1.05,.29,1.85-.75,2.89-.54,.07,.02,.2-.1,.26-.19,.2-.3,.44-.43,.75-.32,.84,.03,1.26-.25,1.39-1.01,.06-.36,.23-.59,.48-.83,.71-.67,.81-1.41,.3-2.23-.13-.21-.11-.35-.01-.55,.55-1.12,.53-2.24,0-3.36q-.29-.61,.38-.75c.11-.02,.22-.04,.33-.06,1.68-.37,1.82-1.56,1.4-2.89-.05-.14-.11-.28-.19-.4-.43-.66-.29-1.2,.19-1.79,.94-1.15,.51-2.2-.96-2.48-.22-.04-.44-.05-.66-.06-.19,0-.35-.06-.5-.19-1.44-1.27-2.33-1.35-3.97-.34-.23,.14-.36,.14-.56-.07-.88-.91-2.02-.93-2.88-.05-.2,.21-.3,.23-.53,.04-1.33-1.11-2.65-1.12-4.01-.03-.23,.18-.34,.23-.58,0-.87-.87-1.94-.88-2.78,0-.28,.29-.42,.32-.74,.06-1.01-.81-2.46-.84-3.37-.02-.47,.42-.95,.59-1.56,.67-1.62,.21-2.05,1.31-1.01,2.56,.44,.52,.55,1.02,.18,1.61m13.05,4.53c.26,.24,.53,.46,.79,.69,.08,.07,.17,.16,.13,.28-.04,.13-.18,.12-.28,.12-1.24,0-2.47,0-3.71,0-.11,0-.24,.02-.29-.1-.06-.15,.06-.24,.15-.33,.3-.28,.62-.53,.91-.81,.5-.49,.56-.85,.28-1.44-.27-.56-.8-.91-1.37-.84-.36,.04-.74,.11-1.07,.25-.55,.23-.99,.11-1.41-.3,3.12-1.01,6.2-1,9.33,0-.34,.33-.66,.55-1.15,.38-.35-.12-.71-.22-1.07-.29-.71-.15-1.3,.14-1.61,.77-.3,.61-.19,1.11,.38,1.63m-5.69-1.44c.27,.19,.52,.23,.83,.15,.46-.12,.9-.33,1.39-.37,.34-.03,.63,.05,.78,.39,.16,.34-.03,.57-.27,.77-.53,.44-1.05,.87-1.38,1.49-.12,.24-.41,.26-.64,.25-.25-.01-.19-.28-.24-.44-.39-1.4-1.7-2.18-3.02-1.79-1.27,.38-1.94,1.83-1.48,3.2,.08,.22,.31,.47-.12,.61-.35,.11-.63,.14-.8-.3-.14-.39-.23-.78-.21-1.19,.02-1.4,.78-2.35,1.96-2.98,1.08-.58,2.17-.5,3.18,.22m-.88,3.46c-.38,.19-.77,.36-1.13,.57-.46,.26-.81,.12-1.11-.26-.43-.55-.43-1.16-.16-1.77,.27-.59,.72-.92,1.39-.89,.67-.05,1.12,.31,1.46,.82,.39,.6,.19,1.21-.45,1.53m-.81,5.49c-.45,.02-.53-.3-.55-.66-.04-.55,.4-.54,.74-.6,.38-.07,.32,.24,.35,.45-.03,.38,0,.78-.53,.8m2.3,0c0,.34-.18,.51-.5,.54-.31,.02-.52-.15-.54-.44-.03-.53-.07-1.07,0-1.59,.06-.42,.52-.53,.86-.69,.17-.08,.18,.14,.18,.26,0,.33,0,.66,0,.99,0,.31,0,.62,0,.94m1.79-.94c0,.42,0,.85,0,1.27,0,.32-.13,.54-.48,.55-.35,0-.57-.17-.58-.53-.02-.87-.02-1.73,0-2.6,0-.4,.33-.37,.61-.38,.29,0,.46,.1,.46,.41,0,.42,0,.85,0,1.27m1.67,1.48c0,.28-.05,.54-.41,.53-.3,0-.48-.19-.48-.49,0-.94,0-1.88,0-2.82,0-.28,.15-.39,.42-.39,.28,0,.47,.09,.47,.4,0,.5,0,.99,0,1.49h0c0,.42,0,.85,0,1.27m1.75-.06c0,.38-.17,.61-.56,.6-.38,0-.42-.28-.42-.58,0-.44,0-.89,0-1.33,0-.44,.01-.89,0-1.33-.01-.36,.17-.48,.51-.48,.32,0,.47,.12,.47,.46,0,.89,0,1.77,0,2.66m1.77-.13c0,.36-.2,.54-.56,.53-.34,0-.5-.2-.51-.53,0-.44,0-.88,0-1.32h0c0-.4,0-.81,0-1.21-.01-.33,.15-.46,.47-.45,.32,0,.61,.02,.61,.45,0,.85,0,1.69,0,2.54m1.79-1.39c-.03,.1,0,.22,0,.33h-.02c0,.28,.02,.55,0,.83-.02,.28-.2,.43-.48,.42-.28,0-.47-.16-.48-.44-.02-.68-.02-1.36-.01-2.04,0-.29,.15-.29,.36-.17,.41,.24,.79,.49,.64,1.06m1.29,1.05c-.51,0-.52-.35-.51-.76,.05-.17-.11-.56,.32-.49,.3,.05,.78-.01,.74,.52-.02,.34-.04,.72-.55,.73m3.18-2.45c-.31,.44-.75,.63-1.28,.66-1.13,.07-2.21-.13-3.17-.77-.86-.58-1.78-.83-2.82-.79-1.46,.05-2.92,.03-4.37,0-.92-.02-1.75,.18-2.51,.7-.98,.67-2.07,.94-3.26,.86-.51-.04-.98-.19-1.31-.62-.4-.54-.28-1.06,.3-1.39,.39-.22,.82-.2,1.33-.2,.7,.06,1.43-.14,2.08-.55,1.46-.92,3.03-1.25,4.74-1.13,1.21,.09,2.43,0,3.65,0,.32,0,.62,.06,.91,.19,.53,.25,1.09,.47,1.6,.76,.92,.52,1.88,.84,2.95,.74,.3-.03,.59,.06,.85,.21,.51,.3,.64,.83,.3,1.32m-4.68-3.81c-.02-.89,.74-1.62,1.68-1.6,.69,.01,1.18,.32,1.4,.96,.23,.64,.2,1.27-.28,1.81-.25,.27-.54,.37-.9,.2-.51-.25-1.03-.5-1.54-.75-.26-.13-.36-.34-.36-.63m4.66,1.36c-.11,.24-.26,.31-.53,.25-.41-.09-.53-.2-.35-.66,.52-1.28-.18-2.83-1.37-3.19-1.43-.42-2.78,.39-3.1,1.85-.03,.16-.02,.37-.25,.37-.24,0-.51-.03-.64-.26-.36-.65-.9-1.11-1.46-1.57-.2-.16-.32-.36-.22-.63,.11-.29,.3-.45,.62-.46,.51,0,.98,.18,1.45,.34,.35,.11,.66,.11,.99-.12,1.06-.76,2.18-.76,3.29-.15,1.17,.64,1.8,1.66,1.88,2.87,0,.56-.12,.97-.31,1.36m1.22-10.02c0-.19-.19-.48,.14-.56,.35-.08,.7,0,.97,.27,.19,.2,.24,.42,.09,.65-.17,.27-.36,.51-.55,.76-.42,.56-.47,1.14-.16,1.77,.25,.49,.49,.99,.48,1.57-.01,.48-.22,.82-.69,.95-.5,.14-1,.24-1.51,.35-.16,.04-.3-.02-.41-.11-1.21-.96-2.7-1.13-4.12-1.5-.91-.23-1.82-.41-2.84-.64,.69-.46,1.28-.87,1.65-1.52,.18-.32,.3-.04,.38,.1,.86,1.46,3.05,1.93,4.69,1.19,1.26-.57,1.93-1.76,1.89-3.29m-6.04,1.28c1.85,1.57,3.52,1.27,5.07-.5-.02,1.06-.88,1.86-2.08,2.03-1.34,.2-2.61-.42-2.99-1.54m1.44-1.82c.23-.67,1.06-1.23,1.81-1.24,.77,0,1.53,.49,1.82,1.21,.06,.15,.23,.36-.02,.48-.24,.11-.35-.08-.45-.28-.42-.82-1.02-1.12-1.77-.89-.46,.14-.77,.43-.9,.89-.07,.23-.19,.38-.43,.29-.26-.09-.12-.31-.07-.47m2.34,1.33c-.56,.93-2.08,.95-3,0h3Zm-5-2.41c.41-.28,.89-.28,1.3,0,.42,.28,.53,.74,.47,1.23-.03,.24-.19,.35-.42,.35-.24,0-.48,0-.72,0h0c-.07,0-.15,.01-.22,0-.32-.04-.76,.15-.86-.36-.1-.49,.03-.94,.45-1.22m-5.28,1.02c.24-.77,1.12-1.39,1.94-1.4,.91,0,1.75,.6,2,1.45,.05,.16,.2,.37-.06,.47-.26,.1-.4-.05-.48-.3-.2-.64-.6-1.04-1.3-1.1-.77-.06-1.29,.29-1.53,1.05-.08,.24-.15,.43-.44,.36-.34-.09-.2-.34-.13-.54m3.67,1.26c-.75,.96-2.63,1.01-3.17,.14,1.03-.22,2.07-.13,3.17-.14m-4.3,.33c1.44,1.61,3.64,1.66,5.12,.12,.16-.16,.29-.57,.57-.36,.21,.15,0,.48-.11,.71-.46,1.02-1.55,1.62-3.31,1.62-.89-.03-1.98-.4-2.61-1.61-.08-.15-.13-.31-.18-.46-.03-.1-.06-.22,.07-.29,.1-.05,.18,0,.25,.07,.07,.06,.13,.13,.19,.2m-2.39-2.12c.24-.56,.89-.82,1.47-.59,.52,.21,.82,.87,.65,1.43-.06,.2-.19,.26-.37,.26-.26,0-.51,0-.77,0h0s-.27,0-.27,0c-.79,0-1.03-.36-.71-1.1m.4,2.48c-.28,1.02-1.52,1.65-2.83,1.49-1.18-.14-2.19-.95-2.12-2.04,1.52,1.66,3.15,1.86,4.95,.55m-1.1-.68c.11,0,.24,0,.28,.13,.04,.13-.08,.19-.17,.26-.76,.58-2.13,.44-2.86-.39,.99,0,1.87,0,2.75,0m-3.95-1.14c.21-.69,1.12-1.31,1.9-1.29,.8,.03,1.62,.62,1.81,1.32,.02,.05,.03,.11,.04,.16-.02,.24-.17,.27-.35,.2-.07-.03-.13-.12-.17-.2-.86-1.42-1.95-1.42-2.75,0-.1,.18-.21,.27-.39,.18-.18-.08-.12-.24-.08-.38m-2.08,.25c.21-.3,.56-.34,.9-.33,.24,0,.28,.16,.28,.38,0,1.46,.32,2.79,1.79,3.45,1.45,.66,2.87,.54,4.17-.46,.28-.22,.48-.51,.67-.8,.09-.15,.22-.24,.33-.04,.34,.66,.92,1.08,1.67,1.55-1.06,.24-1.96,.42-2.85,.64-1.47,.35-2.98,.58-4.22,1.55-.15,.11-.31,.1-.47,.06-.4-.09-.79-.16-1.19-.27-.76-.2-1.01-.62-.87-1.4,.07-.4,.23-.78,.43-1.13,.38-.68,.31-1.3-.18-1.9-.12-.14-.23-.29-.33-.44-.2-.27-.33-.56-.11-.87"/>
    <path class="cls-1" d="M66.23,77.57c-4.64,0-9.27,0-13.91,0-.18,0-.37,0-.55,0-.27,0-.39-.14-.43-.4-.11-.81-.14-1.62-.13-2.43,0-.28,.11-.45,.41-.49,1.35-.21,2.07-1.44,1.23-2.91-.84-1.47-1.75-2.92-2.61-4.38-.17-.28-.34-.33-.64-.2-.56,.25-1.14,.43-1.74,.56-1.71,.39-3.33,.24-4.81-.81-.48-.34-.7-.71-.7-1.32,.03-4.3,.01-8.61,.01-12.91,0-.18,0-.37,0-.55,0-.25-.12-.36-.37-.39-.48-.05-.63,.1-.63,.71,0,4.14-.06,8.28,.03,12.41,.03,1.26-.53,1.91-1.51,2.41-.45,.23-.9,.42-1.4,.52-1.55,.32-3.01-.02-4.43-.59-.32-.13-.57-.18-.78,.2-.85,1.47-1.77,2.9-2.59,4.39-.77,1.38-.27,2.47,1.24,2.85,.33,.08,.44,.24,.45,.57,.02,.67-.08,1.33-.13,1.99-.06,.76-.11,.79-.88,.79-4.52,0-9.05,0-13.57,0-.19,0-.37,0-.55,0-.25,0-.36,.13-.38,.38-.05,.5,.07,.62,.7,.62,4.53,0,9.05,0,13.57,0,.81,0,.81,0,.61,.81-.23,.93-.58,1.83-.76,2.78-.57,2.97,.65,5.24,3.44,6.4,1.06,.44,2.17,.71,3.31,.89,.55,.08,1.1,.15,1.64,.23,.76,.11,1.3,.6,1.81,1.11,.33,.34,.17,.81,.17,1.23,.01,2.35,0,4.69,0,7.04,0,2.55,0,5.1,0,7.65,0,.29-.05,.61,.38,.68,.48,.08,.63-.07,.63-.68,0-5.01,0-10.01,0-15.02,0-1.01,.46-1.62,1.45-1.91,.18-.05,.36-.09,.54-.12,1.19-.17,2.38-.3,3.53-.66,1.49-.45,2.88-1.1,3.84-2.38,1.2-1.61,1.12-3.42,.65-5.25-.16-.63-.37-1.24-.54-1.86-.25-.93-.24-.94,.7-.94,4.45,0,8.9,0,13.35,0,.19,0,.37,0,.55,0,.39,0,.51-.2,.5-.56-.01-.53-.4-.44-.72-.44m-16.18,9.29c-.95,.72-2.04,1.11-3.18,1.35-.88,.18-1.78,.31-2.67,.44-.79,.11-1.49,.42-2.06,.97-.25,.24-.47,.27-.71,.02-.76-.77-1.74-.98-2.77-1.09-1.59-.17-3.13-.5-4.55-1.29-.24-.13-.47-.3-.69-.46-.1-.07-.27-.13-.21-.28,.05-.13,.21-.13,.34-.14,2.82-.29,5.62-.89,8.45-.65,2.7-.21,5.32,.26,7.95,.62,.14,.02,.34-.04,.38,.14,.05,.19-.15,.28-.28,.37m-15.12-4.62c0-.72,.01-1.44,0-2.16,0-.4,.2-.5,.55-.5,.37,0,.54,.12,.54,.51-.01,1.33,0,2.66,0,3.99,0,.35-.55,.77-.89,.72-.25-.04-.19-.24-.19-.39,0-.72,0-1.44,0-2.16m4.43,1.5c0,.41-.11,.59-.56,.6-1.78,.04-1.78,.05-1.78-1.72,0-1.14,.02-2.29,0-3.43-.01-.49,.21-.72,.65-.79,.22-.03,.44-.05,.66-.04,.86,.03,1.02,.2,1.02,1.05,0,.67,0,1.33,0,1.99,0,.77-.01,1.55,0,2.33m3.99,.36h-.09c0-.72,0-1.45,0-2.16-.01-.85-.62-1.47-1.4-1.47-.76,0-1.33,.62-1.36,1.44-.01,.51-.03,2.19-.03,2.19h-.1c0-1.84,0-3.68,0-5.53,0-.3,.14-.44,.44-.44,.66,0,1.33,.01,1.99,0,.41-.01,.55,.18,.55,.57-.01,1.79,0,3.61,0,5.4m-1.01-.54c0,.29-.11,.44-.42,.44-.29,0-.45-.11-.45-.42,0-.55,0-1.1,0-1.65,0-.24,.1-.44,.38-.45,.29,0,.45,.16,.47,.43l.02,1.65Zm4.44-2.1c0,.79,0,1.58,0,2.38,0,.35-.13,.51-.49,.5-.5-.01-.99,0-1.49,0-.3,0-.44-.13-.44-.43,0-1.62,0-3.24,0-4.86,0-.06,0-.11,.02-.16,.11-.4,.76-.61,1.56-.49,.43,.06,.84,.17,.83,.76-.02,.77,0,1.55,0,2.32m2.09,2.68c0,.21,.14,.52-.23,.58-.35,.06-.83-.29-.83-.62-.02-.7,0-1.4-.01-2.1,0-.63,.01-1.26,0-1.88-.01-.41,.17-.55,.57-.55,.38,0,.53,.16,.52,.53-.01,.7,0,1.4,0,2.1,0,.65,.01,1.29,0,1.94m2.64,.71c-.14,.62-.5,.65-1.02,.58-.51-.07-.72-.26-.71-.81,.03-1.79,0-3.58,.02-5.37,0-.54-.18-.74-.71-.69-.24,.02-.48,0-.72,0-.29,.01-.47-.1-.68-.33-.73-.8-1.69-1-2.73-.83-.27,.04-.52,.19-.7-.18-.07-.15-.3-.1-.47-.1-1.29,0-2.58,0-3.88,0-.11,0-.28-.03-.32,.03-.36,.5-.82,.19-1.25,.2-.92,.02-1.81,.16-2.35,1.04-.11,.17-.27,.17-.44,.17-.35,0-.7,.02-1.05,0-.43-.03-.6,.15-.59,.58,.02,.94,0,1.88,0,2.83h0c0,.94-.01,1.88,0,2.83,0,.42-.18,.59-.58,.64-1.12,.14-1.21,.06-1.42-1.07-.21-1.13,.05-2.2,.37-3.27,.65-2.13,1.15-4.28,1.07-6.52,0-.13,0-.26-.02-.39q-.09-.93-1.03-.95c-.86-.03-1.21-.57-.78-1.34,.71-1.27,1.49-2.51,2.23-3.77,.19-.33,.43-.19,.67-.11,1.32,.43,2.65,.63,4.04,.39,1.1-.19,2.08-.64,2.92-1.38,.26-.23,.45-.24,.71-.02,1.95,1.66,4.17,1.79,6.52,1.14,1.15-.32,.83-.47,1.47,.58,.63,1.02,1.23,2.06,1.84,3.1,.18,.32,.38,.67,.11,1.03-.26,.36-.67,.37-1.05,.36-.71-.03-.73,0-.8,.74-.24,2.56,.37,4.98,1.1,7.39,.35,1.15,.48,2.3,.2,3.49"/>
    <path class="cls-1" d="M16.86,59.65c0,.71,.05,.76,.75,.76,1.15,0,2.29,0,3.43,0,.14,0,.33-.06,.41,.08,.09,.17-.1,.3-.18,.43-.22,.36-.53,.14-.8,.09-1.35-.29-1.35-.29-1.64,1.06-.3,1.39-.52,1.31,1.04,1.62,.38,.08,.54,.26,.68,.65,.32,.83,.01,1.31-.66,1.71-.13,.08-.24,.18-.35,.27-.2,.15-.24,.31-.07,.52,.42,.52,.84,1.03,1.25,1.56,.17,.22,.35,.24,.56,.06,.27-.22,.55-.43,.82-.66,.25-.22,.49-.3,.79-.06,.11,.09,.25,.18,.39,.2,.56,.1,.67,.44,.66,.96-.02,1.31-.14,1.19,1.18,1.19q1.45,0,1.5-1.48c0-.22,0-.42,.25-.56,1.09-.59,1.08-.6,2.07,.18,.1,.08,.21,.15,.31,.23,.22,.19,.39,.14,.56-.07,.39-.49,.79-.98,1.18-1.47,.2-.25,.17-.47-.08-.66-.29-.22-.57-.46-.87-.68-.24-.18-.25-.37-.21-.67,.11-.83,.5-1.3,1.36-1.33,.14,0,.29-.07,.43-.11,.27-.07,.35-.24,.29-.5-.14-.61-.29-1.22-.42-1.83-.07-.33-.27-.4-.58-.31-.36,.1-.72,.18-1.08,.24-.43,.08-.67-.26-.7-.55-.03-.36,.37-.17,.56-.18,1.11-.03,2.22-.04,3.32-.01,.54,.01,.72-.2,.7-.72-.03-.76,0-1.51,0-2.27,0-1.39,0-2.77,0-4.16,0-.22,.03-.58-.37-.37-.57,.31-.59,0-.61-.45-.09-1.84-.22-3.68-.32-5.52-.02-.39-.19-.51-.55-.51-.65,.01-1.29,.02-1.94,0-.47-.02-.64,.15-.66,.64-.1,2.04-.24,4.09-.37,6.3-.1-.87-.45-.43-.69-.3-.32,.19-.44,.17-.46-.24-.1-1.93-.23-3.87-.32-5.8-.02-.41-.15-.61-.59-.59-.4,.02-.81,0-1.22,0-1.45,.04-1.29-.32-1.41,1.38-.16,2.26-.26,4.53-.38,6.79-.03,0-.05,0-.08,.01,0-.24,.02-.48,0-.71-.03-.34,.17-.81-.12-.99-.3-.19-.62,.21-.91,.37-.59,.33-.68,.28-.71-.39-.1-1.99-.22-3.98-.33-5.97-.02-.35-.17-.5-.51-.49-.66,.01-1.33,.02-1.99,0-.44-.02-.61,.13-.64,.59-.16,2.8-.35,5.59-.51,8.39-.03,.44-.16,.74-.57,.9-.45,.17-.58,.5-.56,.96,.03,.83,0,1.66,0,2.49m13.2,2.15c.74-.18,.77-.15,.92,.56,.07,.35-.06,.51-.36,.53-.93,.07-1.52,.45-1.43,1.49,0,.07-.03,.14-.05,.21q-.3,.99,.54,1.66c.46,.36,.37,1.01-.16,1.23-.12,.05-.21,0-.3-.07-.12-.09-.23-.18-.35-.27-.28-.21-.53-.52-.84-.61-.34-.1-.51,.35-.8,.5-.3,.15-.61,.27-.94,.32-.33,.04-.44,.21-.43,.52,0,.28-.02,.56,0,.83,.03,.43-.16,.57-.58,.6-.46,.04-.67-.07-.62-.55,.02-.15-.01-.3,0-.44,.07-.59-.04-1-.77-1.01-.37,0-.71-.24-.92-.56-.24-.35-.44-.3-.7-.05-.2,.19-.43,.35-.64,.52-.28,.24-.51,.44-.85,0-.33-.43-.33-.7,.13-.97,.06-.04,.12-.09,.18-.13q.7-.55,.38-1.37c-.13-.32-.18-.65-.13-.98,.08-.44-.13-.6-.52-.66-.31-.05-.61-.12-.92-.21-.46-.12-.31-.45-.25-.76,.06-.33,.2-.53,.56-.39,.91,.38,1.58,.23,2.01-.76,.27-.62,.85-.68,1.54-.52-2.3,1.58-1.94,4.1-.79,5.28,1.39,1.42,3.64,1.31,4.95-.24,1.35-1.59,.88-3.63-1.18-5.12,.95-.21,1.34-.04,1.95,.87q.5,.75,1.4,.53m-4.77-.88c1.46,0,2.56,1.11,2.54,2.57-.02,1.42-1.13,2.49-2.57,2.47-1.36-.02-2.49-1.14-2.48-2.47,.01-1.42,1.14-2.57,2.51-2.57m4.34-7.05c.11-2.06,.22-4.12,.34-6.18,.04-.64,.17-.68,1.16-.67,.55,0,.55,.33,.57,.73,.09,1.75,.19,3.5,.31,5.24,.02,.36-.05,.59-.38,.76-.51,.26-.99,.57-1.49,.85-.48,.27-.52,.24-.53-.29,0-.15,0-.3,0-.44h.02m-4.66-6.38c.02-.33,.18-.44,.49-.46,1.09-.08,1.21,.03,1.26,1.09,.07,1.47,.15,2.95,.24,4.57,.35,.77-.22,1.15-.92,1.49-.38,.18-.74,.42-1.1,.63-.22,.13-.39,.16-.36-.2,.14-2.37,.28-4.75,.41-7.12m-5.76,.04c.03-.63,.47-.48,.8-.51,.85,0,.9,.05,.94,.86,.1,1.84,.2,3.68,.32,5.52,.02,.38-.07,.62-.43,.8-.59,.3-1.16,.65-1.73,.98-.26,.15-.36,.1-.34-.21,.15-2.48,.3-4.97,.43-7.45m.04,8.49c1.09-.46,2.08-1.19,3.12-1.78,.58-.33,.58-.32,.59,.32,0,.55,.01,1.11,0,1.66-.01,.46,.14,.57,.55,.33,1.32-.77,2.65-1.54,3.98-2.3,.16-.09,.31-.29,.48-.2,.19,.09,.09,.33,.09,.51,.01,.52,0,1.03,0,1.55,0,.53,.08,.57,.53,.31,1.28-.73,2.56-1.46,3.83-2.21,.39-.23,.53-.23,.52,.28-.02,1.48-.02,2.95,0,4.43,0,.45-.15,.62-.61,.61-1.59-.02-3.17,0-5.55,0-2.27-.07-5.33,.16-8.39,.11-.72-.01-.64-.02-.75-.75-.21-1.41,.26-2.29,1.61-2.85"/>
    <path class="cls-1" d="M36.58,103.47c-1.45-1.11-2.87-2.26-4.32-3.38-.29-.22-.45-.46-.43-.84,.03-.64-.15-1.24-.44-1.81-.35-.69-.82-1.26-1.51-1.64-.68-.38-1.3-.86-2.12-.9-.18,0-.27-.23-.39-.38-1.02-1.33-2.05-2.66-3.07-3.99-.23-.29-.43-.59-.53-.96-.09-.34-.28-.68-.62-.82-.85-.36-1.09-1.21-1.54-1.88-.24-.36,.27-.48,.47-.69,.1-.1,.2-.1,.3,.06,.3,.5,.8,.57,1.15,.09,.73-1.01,1.69-1.73,2.85-2.17,.14-.05,.32-.19,.46-.03,.1,.13-.01,.28-.07,.41-.28,.65-.52,1.31-.65,2-.22,1.2-.08,2.35,.52,3.43,.12,.22,.27,.43,.54,.41,.31-.03,.41,.17,.54,.38,.58,1.02,1.26,1.96,2.24,2.64,1.27,.88,2.14,2.02,2.47,3.54,.06,.25,.17,.52,.49,.52,.33,0,.49-.22,.58-.51,.1-.34,.18-.68,.29-1.1,.71,1.03,1.19,2.06,1.5,3.17,.06,.21,.12,.4,.41,.32,.27-.08,.28-.28,.22-.48-.4-1.42-1.04-2.72-1.96-3.88-.15-.19-.35-.27-.59-.19-.24,.08-.33,.28-.33,.52,0,.3,0,.59,0,.89-.57-1.36-1.41-2.41-2.58-3.24-1.03-.73-1.77-1.72-2.32-2.85-.17-.34-.32-.67-.8-.62-.2,.02-.28-.16-.34-.32-.12-.31-.22-.62-.27-.96-.22-1.43,.33-2.68,.88-3.94,.13-.28,.36-.55,.09-.86-.25-.29-.57-.17-.88-.09-1.49,.4-2.73,1.19-3.68,2.42-.39-.6-.61-.65-1.19-.29-.18,.12-.37,.24-.53,.39-.25,.22-.43,.21-.61-.09-.18-.3-.4-.58-.6-.87-.84-1.24-.83-1.23-2.04-.33-.27,.2-.29,.38-.1,.64,.47,.67,.9,1.35,1.38,2.01,.23,.32,.27,.6,.08,.97-.5,.97-.69,2.06-.71,3.14-.02,1.38,.12,2.73,.53,4.12-.39-.04-.7-.11-.87,.23-.16,.31,.05,.53,.2,.76,.78,1.17,1.27,2.45,1.4,3.86,.04,.46,.05,.92-.02,1.38-.03,.24,.02,.46,.32,.48,.29,.02,.31-.2,.34-.41,0-.05,0-.11,0-.17,.12-1.71-.22-3.31-1.07-4.79-.11-.19-.29-.36,.11-.47,.42-.12,.41-.47,.29-.82-.56-1.56-.62-3.18-.54-4.81,.03-.67,.17-1.32,.46-1.93,.06-.12,.15-.42,.32-.19,.31,.42,.78,.79,.77,1.36,0,.52,.24,.85,.61,1.13,.17,.12,.32,.28,.43,.46,1.19,1.85,2.38,3.7,3.58,5.54,.16,.24,.15,.54,.02,.79-.24,.46-.31,.97-.19,1.47,.2,.86-.18,1.46-.78,1.99-1.85,1.63-3.74,3.19-5.88,4.43-.22,.13-.23,.43-.03,.58,.11,.08,.27,.08,.38,0,.8-.53,1.55-1.03,2.29-1.54,.76-.52,1.5-1.07,2.17-1.7,.32-.3,.51-.33,.69,.09,.45,1.03,1.12,1.91,2.02,2.6,.26,.2,.32,.38,.07,.62-.11,.11-.21,.23-.3,.35-.06,.07-.08,.17-.06,.26,.05,.26,.38,.35,.56,.16,.28-.31,.56-.61,.84-.92,.06-.07,.16-.17,.14-.22-.16-.44,.16-.64,.4-.87,.28-.25,.39-.49,.03-.76-.2-.15-.17-.34-.08-.54,.15-.31,.32-.57,.64-.73,.45-.22,.82-.56,1.12-.97,.47-.66,.36-.46,1.23,.57,.84,1,1.61,2.06,2.39,3.12,.28,.39,.51,.38,.91,.03,.59-.52,1.21-1.01,1.89-1.41,.73-.43,.9-.6,.39-.98m-14.78-14.25c-.26,.1-.3-.24-.44-.31-.39-.17-.62-.57-.77-.97-.27-.71-.71-1.29-1.13-1.9-.11-.16-.1-.3,.07-.43,.28-.2,.56-.15,.63,.94,.06,1.04,.85,1.79,1.83,2.15,.09,.03,.09,.13,.11,.2-.03,.18-.15,.26-.29,.31m9.14,9.16c-.07-.08-.18-.15-.2-.25-.18-.67-.76-.93-1.29-1.18-.38-.18-.49-.43-.53-.79,1.14,.31,1.8,1.07,2.02,2.23m-6.42-4.38c-.59-.91-1.17-1.82-1.76-2.74-.09-.14-.29-.3-.1-.48,.17-.16,.38-.27,.54-.38,.21,.02,.28,.14,.35,.24,.76,.99,1.51,1.99,2.27,2.98,.24,.31,.13,.46-.17,.63-.71,.4-.71,.41-1.14-.25m1.01,1.57c-.14-.21-.08-.46,.15-.58,.17-.09,.34-.19,.51-.29,.25-.15,.45-.12,.61,.14,.29,.49,.7,.79,1.31,.85-.57,.25-.8,.77-1.07,1.24-.2,.36-.36,.43-.6,.03-.28-.47-.59-.93-.9-1.39m1.16,9.57c-.91-.72-1.51-1.66-1.89-2.74-.07-.2,.04-.32,.2-.4,.16-.08,.24,.04,.3,.16,.47,.92,1.13,1.68,1.94,2.31,.08,.06,.13,.17,.18,.22,0,.34-.5,.63-.73,.45m3.6-5.75c-.35,.44-.53,.95-.64,1.51-.15,.75-.63,1.3-1.31,1.62-.4,.19-.66,.44-.82,.83-.04,.11-.08,.26-.28,.26-.07-.06-.16-.12-.23-.2-.37-.37-.66-.79-.95-1.22-.31-.47-.51-.91-.03-1.43,.25-.27,.19-.7,.18-1.07,0-.37-.03-.74,0-1.1,.02-.23,.04-.55,.41-.2,.25,.24,.36-.05,.43-.22,.2-.53,.6-.93,.85-1.42,.06-.11,.12-.25,.27-.24,.19,.02,.19,.2,.23,.34,.04,.18,.07,.36,.1,.54,.03,.18,.13,.35,.32,.31,.9-.2,1.14,.56,1.53,1.06,.15,.19,.09,.42-.06,.61m5.2,4.8c-.46,.31-.92,.63-1.35,.98-.46,.37-.52-.15-1.33-1.6-.52-.94-1.29-1.7-2.13-2.37-.2-.15-.29-.34-.28-.56,0-.28,.13-.52,.34-.66,.25-.16,.4,.09,.57,.22,1.39,1.09,2.77,2.2,4.18,3.27,.42,.32,.35,.49,0,.74"/>
    <path class="cls-1" d="M41.82,69.21c-1.79,.03-3.14,1.39-3.15,3.18,0,1.8,1.4,3.21,3.18,3.2,1.7,0,3.16-1.49,3.16-3.21,0-1.71-1.49-3.19-3.19-3.17m0,5.38c-1.21,0-2.18-.96-2.21-2.17-.02-1.17,1.02-2.23,2.22-2.24,1.19,0,2.18,.98,2.18,2.19,0,1.26-.94,2.21-2.2,2.21"/>
    <path class="cls-1" d="M66.12,83.48c-.15-.08-.33-.02-.41,.13-1.23,2.34-3.39,5.09-5.3,7.51-.45,.58-.89,1.13-1.28,1.64-1.42,.54-2.6,1.67-3.23,3.05,0-.08-.02-.16-.03-.24,.08-.53,.19-1.09,.32-1.69,2.81-.85,2.28-4.56,2.02-6.38-.01-.09-.07-.17-.15-.22-.08-.05-.18-.05-.26-.02l-.04,.02c-1.19,.47-2.11,1.49-2.53,2.78-.42,1.27-.28,2.61,.37,3.69-.03,.14-.06,.27-.09,.4-.61-1.6-1.82-2.97-3.37-3.73-.1-.05-.23-.04-.32,.03-.09,.07-.13,.19-.11,.3,.41,2.13,1.22,4.96,3.46,5.5-.15,1.4-.1,2.77,.16,4.64,.02,.15,.15,.26,.3,.26,.01,0,.03,0,.04,0,.17-.02,.28-.18,.26-.34-.15-1.03-.22-1.9-.23-2.71,0,0,.01,0,.02,0h0c3.07-.01,4.48-3.69,4.94-5.27,0,0,0,0,0-.01,.02-.09,0-.19-.06-.27-.07-.08-.17-.12-.27-.11-.07,0-.14,.03-.21,.04,.25-.32,.51-.65,.78-.99,1.93-2.45,4.11-5.22,5.36-7.61,.08-.15,.02-.33-.13-.41m-10.33,6.78c.33-1,1-1.81,1.86-2.26,.29,2.22,.28,4.43-1.31,5.18,.1-.41,.2-.84,.32-1.29,.04-.16-.06-.33-.22-.37-.16-.04-.33,.06-.37,.22-.1,.38-.19,.73-.27,1.08-.28-.79-.3-1.69-.01-2.56m-3.37,1.03c1.25,.79,2.19,2.04,2.63,3.45-.22-.32-.47-.64-.74-.93-.11-.12-.31-.13-.43-.01-.12,.11-.13,.31-.02,.43,.36,.39,.66,.82,.93,1.27-1.36-.67-2.01-2.55-2.38-4.2m4.06,6.1c.41-.43,.89-.86,1.45-1.19,.15-.09,.19-.27,.11-.42-.09-.15-.27-.2-.42-.11-.57,.33-1.05,.75-1.46,1.17,.47-1.78,1.94-3.27,3.74-3.7-.48,1.42-1.53,3.73-3.43,4.25"/>
    <path class="cls-1" d="M64.79,94.51l-4.85,4.75c-.13-.44-.37-.85-.73-1.19-.12-.12-.31-.12-.43,0-.12,.12-.12,.31,0,.43,.53,.51,.74,1.19,.62,1.95-.24,1.56-1.75,3.22-3.94,4.32-.71,.31-1.49,.47-2.23,.59-.41,.07-.82,.13-1.22,.16-.06-.11-.12-.2-.19-.28-.07-.09-.13-.16-.16-.24-.05-.17-.04-.31,.04-.44,.28-.46,1.33-.66,1.68-.73,.12-.02,.26-.05,.39-.1,.17-.07,.3-.16,.42-.25,.09-.06,.17-.12,.26-.16,.23-.11,.48-.17,.73-.18,.04,0,.12,0,.21-.06,.1-.05,.14-.13,.17-.17,.15-.25,.39-.43,.67-.5,.16-.04,.26-.21,.22-.37-.04-.16-.21-.26-.37-.22-.4,.11-.76,.36-1,.72-.3,.02-.6,.1-.88,.23-.14,.06-.25,.15-.35,.22-.1,.07-.19,.14-.29,.18-.08,.03-.18,.05-.28,.07-.78,.15-1.72,.39-2.09,1.01-.17,.27-.2,.6-.1,.93,.05,.15,.13,.27,.21,.38-.23,0-.46-.03-.68-.07-.11-.02-.22-.06-.31-.1-.1-.05-.14-.09-.14-.1,0,0,0-.03,.01-.1,.04-.13,.15-.25,.26-.38,.06-.07,.11-.14,.17-.21,0,0,.01-.02,.02-.03,0,0,.02-.02,.02-.03,0,0,0-.01,0-.02,.02-.03,.05-.05,.06-.09,.17-.62,.92-1.04,1.64-1.45,.54-.3,1.1-.62,1.46-1.04,.11-.13,.09-.32-.03-.43-.13-.11-.32-.09-.43,.03-.29,.34-.78,.61-1.3,.91-.7,.39-1.41,.8-1.76,1.43-.02-.02-.04-.04-.05-.05-.1-.13-.16-.28-.19-.42-.03-.19,.03-.34,.18-.47,.12-.1,.25-.18,.39-.27,.12-.08,.24-.15,.36-.24l.23-.18c.18-.14,.36-.27,.55-.4,.37-.25,.76-.52,1.1-.85,.6-.59,.98-1.37,1.09-2.28,.01-.11-.03-.22-.12-.28-.09-.07-.21-.08-.31-.03-.31,.14-.91,.26-1.26,.25-.09,0-.19,.04-.24,.11-.06,.07-.08,.17-.06,.26,.15,.64-.35,1.05-.5,1.17-.29,.21-.64,.31-.91,.27,.03-.11,.06-.21,.09-.31,.53-1.93,.77-2.81,2.94-3.57,.16-.05,.24-.23,.19-.39-.06-.16-.23-.24-.39-.19-2.48,.86-2.78,1.97-3.33,3.98-.05,.18-.1,.38-.16,.58-.04,.13,.02,.27,.13,.34,.48,.3,1.2,.21,1.79-.22,.51-.37,.79-.89,.78-1.44,.21-.02,.44-.06,.66-.12-.15,.56-.42,1.04-.82,1.43-.31,.3-.67,.54-1.02,.78-.2,.13-.39,.28-.57,.42l-.23,.17c-.1,.07-.21,.14-.31,.21-.15,.1-.31,.19-.46,.32-.32,.27-.46,.63-.39,1.03,.04,.24,.14,.48,.3,.7,0,0,.08,.11,.2,.22-.14,.16-.3,.34-.37,.59-.05,.17-.05,.32-.01,.46,.06,.2,.22,.35,.47,.47,.13,.06,.28,.11,.44,.14,.31,.07,.62,.09,.95,.09,.61,0,1.24-.09,1.89-.2,.78-.13,1.61-.3,2.39-.64,2.37-1.2,4.01-3.03,4.28-4.78,.03-.19,.04-.37,.03-.55,0,0,.01,0,.01,0l5.16-5.04c.12-.12,.12-.31,0-.43-.12-.12-.31-.12-.43,0"/>
    <path class="cls-1" d="M46.52,48.49h0c.51,0,.83,.41,1.2,.88,.42,.54,.89,1.14,1.75,1.14h.01c.89,0,1.27-.67,1.58-1.2,.31-.54,.51-.85,.98-.85,.52,0,.83,.4,1.2,.88,.42,.54,.89,1.14,1.76,1.14,.89,0,1.28-.67,1.58-1.21,.31-.54,.51-.85,.98-.85h0c.51,0,.83,.4,1.2,.87,.42,.54,.9,1.16,1.76,1.14,.89,0,1.27-.67,1.58-1.2,.31-.54,.51-.85,.98-.85,.19,0,.35-.16,.35-.35,0-.19-.16-.35-.35-.35h0c-.89,0-1.28,.67-1.58,1.21-.31,.54-.51,.85-.98,.85-.52,.02-.84-.4-1.2-.87-.42-.54-.89-1.14-1.75-1.14h-.01c-.89,0-1.28,.67-1.58,1.2-.31,.54-.51,.85-.98,.85h0c-.51,0-.83-.41-1.19-.88-.42-.54-.9-1.14-1.76-1.14-.89,0-1.27,.67-1.58,1.2-.31,.54-.51,.85-.98,.85h0c-.51,0-.83-.41-1.19-.88-.42-.54-.89-1.16-1.76-1.14-.19,0-.35,.16-.35,.35,0,.19,.16,.35,.35,.35"/>
    <path class="cls-1" d="M46.52,51.7h0c.51,0,.83,.41,1.2,.88,.42,.54,.89,1.15,1.75,1.15h.01c.89,0,1.27-.67,1.58-1.21,.31-.54,.51-.85,.98-.85h0c.51,0,.83,.41,1.19,.88,.42,.54,.89,1.14,1.75,1.14h.01c.89,0,1.28-.67,1.58-1.21,.31-.54,.51-.85,.98-.85h0c.51,0,.83,.4,1.2,.87,.42,.54,.89,1.14,1.75,1.14h.01c.89,0,1.27-.67,1.58-1.2,.31-.54,.51-.85,.98-.85,.19,0,.35-.16,.35-.35,0-.19-.15-.34-.35-.35-.89,0-1.28,.67-1.58,1.21-.31,.54-.51,.85-.98,.85h0c-.51,0-.83-.4-1.2-.87-.42-.54-.89-1.15-1.75-1.15h-.01c-.89,0-1.28,.67-1.58,1.2-.31,.54-.51,.85-.98,.85h0c-.51,0-.83-.41-1.19-.88-.42-.54-.89-1.14-1.75-1.14h-.01c-.89,0-1.27,.67-1.58,1.21-.31,.54-.51,.85-.98,.85h0c-.51,0-.83-.41-1.19-.87-.42-.54-.89-1.14-1.75-1.14h-.01c-.19,0-.35,.16-.35,.35,0,.19,.16,.35,.35,.35"/>
    <path class="cls-1" d="M46.52,55.07h0c.51,0,.83,.41,1.2,.88,.42,.54,.89,1.14,1.75,1.14h.01c.89,0,1.27-.67,1.58-1.2,.31-.54,.51-.85,.98-.85,.52,0,.83,.4,1.2,.88,.42,.54,.89,1.14,1.76,1.14,.89,0,1.28-.67,1.58-1.21,.31-.54,.51-.85,.98-.85h0c.51,0,.83,.4,1.2,.87,.42,.54,.9,1.16,1.76,1.14,.89,0,1.27-.67,1.58-1.2,.31-.54,.51-.85,.98-.85,.19,0,.35-.16,.35-.35,0-.19-.16-.35-.35-.35h0c-.89,0-1.28,.67-1.58,1.21-.31,.54-.51,.85-.98,.85-.52,.02-.84-.4-1.2-.87-.42-.54-.89-1.14-1.75-1.14h-.01c-.89,0-1.28,.67-1.58,1.2-.31,.54-.51,.85-.98,.85h0c-.51,0-.83-.41-1.19-.88-.42-.54-.9-1.14-1.76-1.14-.89,0-1.27,.67-1.58,1.2-.31,.54-.51,.85-.98,.85h0c-.51,0-.83-.41-1.19-.87-.42-.54-.89-1.14-1.75-1.14h-.01c-.19,0-.35,.16-.35,.35,0,.19,.16,.35,.35,.35"/>
    <path class="cls-1" d="M46.52,58.69h0c.51,0,.83,.41,1.2,.88,.42,.54,.89,1.15,1.75,1.15h.01c.89,0,1.27-.67,1.58-1.21,.31-.54,.51-.85,.98-.85h0c.51,0,.83,.41,1.19,.88,.42,.54,.89,1.14,1.75,1.14h.01c.89,0,1.28-.67,1.58-1.21,.31-.54,.51-.85,.98-.85,.53-.01,.83,.4,1.2,.87,.42,.54,.89,1.14,1.75,1.14h.01c.89,0,1.27-.67,1.58-1.2,.31-.54,.51-.85,.98-.85,.19,0,.35-.16,.35-.35,0-.19-.16-.35-.35-.35h0c-.89,0-1.28,.67-1.58,1.21-.31,.54-.51,.85-.98,.85-.52,0-.84-.4-1.2-.87-.42-.54-.9-1.16-1.76-1.14-.89,0-1.28,.67-1.58,1.2-.31,.54-.51,.85-.98,.85-.52,.01-.83-.4-1.2-.88-.42-.54-.9-1.16-1.76-1.14-.89,0-1.27,.67-1.58,1.21-.31,.54-.51,.85-.98,.85-.52,0-.83-.4-1.2-.88-.42-.54-.89-1.14-1.75-1.14h-.01c-.19,0-.35,.16-.35,.35,0,.19,.16,.35,.35,.35"/>
    <path class="cls-1" d="M46.52,62.31h0c.52-.01,.83,.4,1.2,.87,.42,.54,.89,1.15,1.75,1.15h.01c.89,0,1.27-.67,1.58-1.21,.31-.54,.51-.85,.98-.85h0c.51,0,.83,.41,1.2,.88,.42,.54,.89,1.14,1.75,1.14h.01c.89,0,1.28-.67,1.58-1.2,.31-.54,.51-.85,.98-.85h0c.51,0,.83,.4,1.2,.87,.42,.54,.89,1.14,1.75,1.14h.01c.89,0,1.27-.67,1.58-1.2,.31-.54,.51-.85,.98-.85,.19,0,.35-.16,.35-.35,0-.19-.16-.35-.35-.35h0c-.89,0-1.28,.67-1.58,1.21-.31,.54-.51,.85-.98,.85h0c-.51,0-.83-.4-1.2-.87-.42-.54-.89-1.15-1.75-1.15h-.01c-.89,0-1.28,.67-1.58,1.21-.31,.54-.51,.85-.98,.85-.52,0-.83-.4-1.2-.88-.42-.54-.89-1.14-1.75-1.14h-.01c-.89,0-1.27,.67-1.58,1.2-.31,.54-.51,.85-.98,.85h0c-.51,0-.83-.41-1.19-.88-.42-.54-.89-1.15-1.76-1.14-.19,0-.35,.16-.35,.35,0,.19,.16,.35,.35,.35"/>
    <path class="cls-1" d="M67.54,45.45c-.19,0-.35,.16-.35,.35v1.5l-1.17-1.7s-.02-.01-.02-.02c-.02-.02-.03-.03-.05-.05-.02-.01-.04-.03-.05-.04-.02-.01-.04-.02-.06-.02-.02,0-.05-.01-.07-.02-.01,0-.02,0-.03,0-.01,0-.02,0-.03,0-.02,0-.05,0-.07,.02-.02,0-.04,.02-.07,.03-.01,0-.02,0-.03,.01,0,0-.01,.02-.02,.02-.02,.02-.03,.03-.05,.05-.01,.02-.03,.03-.04,.05-.01,.02-.02,.04-.02,.06,0,.02-.01,.05-.01,.07,0,.01,0,.02,0,.03v18.94c0,.19,.16,.35,.35,.35s.35-.16,.35-.35v-2.33l1.1,1.59s0,0,.01,.01v.73c0,.19,.16,.35,.35,.35s.35-.16,.35-.35v-18.94c0-.2-.16-.35-.35-.35m-1.4,10.64l1.05-1.53v3.06l-1.05-1.53Zm-.06-1.16v-2.84l.98,1.42-.98,1.42Zm.06-4l1.05-1.53v3.06l-1.05-1.53Zm-.06-1.16v-2.84l.98,1.42-.98,1.42Zm0,7.48l.98,1.42-.98,1.42v-2.84Zm.06,4l1.05-1.53v3.06l-1.05-1.53Z"/>
  </g>
</svg>