<?xml version="1.0" encoding="UTF-8"?>
<svg id="Capa_2" data-name="Capa 2" xmlns="http://www.w3.org/2000/svg" xmlns:xlink="http://www.w3.org/1999/xlink" viewBox="0 0 755.08 324.42">
  <defs>
    <style>
      .cls-1 {
        clip-path: url(#clippath);
      }

      .cls-2 {
        fill: none;
      }

      .cls-3 {
        fill: #484747;
      }

      .cls-4 {
        fill: #920b32;
      }
    </style>
    <clipPath id="clippath">
      <rect class="cls-2" width="755.08" height="324.42"/>
    </clipPath>
  </defs>
  <g id="Capa_1-2" data-name="Capa 1">
    <g class="cls-1">
      <polygon class="cls-4" points="754.45 221.28 234.18 221.28 234.18 226.71 754.45 226.71 754.45 223.62 754.45 221.28"/>
      <path class="cls-3" d="M200.09,44.16c1.77-.5,3.29-1.53,4.88-2.39,2.1-1.14,2.18-2.74,.2-4.18-1.28-.94-2.56-1.89-3.86-2.8-.69-.48-.86-1.01-.68-1.86,.77-3.51,1.46-7.03,2.17-10.54,.21-1.07,.24-2.12-.88-2.76-1.11-.64-1.98-.12-2.82,.6-1.79,1.53-3.59,3.03-5.7,4.79,.26-1.13,.41-1.84,.59-2.54,.25-.97,.35-1.91-.53-2.62-.89-.72-1.82-.57-2.81-.14-3.05,1.29-6.13,2.53-9.2,3.77-.5,.2-1.04,.33-1.57,.42-.99,.17-1.55-.16-1.5-1.3,.06-1.45,.04-2.91,0-4.36-.05-1.65-1.03-2.72-2.65-2.93-.58-.08-1.18-.06-1.77-.06-10.4,0-20.8-.02-31.2,.02-1.29,0-1.76-.38-1.73-1.7,.07-3.36,.05-6.73,.01-10.09-.02-2.01-1.11-3.1-3.11-3.22-.32-.02-.64-.01-.95-.01H66.8c-.36,0-.73,0-1.09,.02-2,.16-2.95,1.16-2.95,3.17-.02,3.18,0,6.36,0,9.54q0,2.26-2.26,2.27c-10.54,0-21.07,0-31.61,0-2.47,0-3.59,1.1-3.66,3.55-.03,.95,0,1.91-.01,2.86-.02,1.43-.16,1.52-1.5,.99-2.44-.98-4.88-1.99-7.32-2.97-.91-.36-1.84-.61-2.68,.16-.83,.76-.7,1.69-.48,2.66,.15,.66,.52,1.31,.25,2.23-1.93-1.62-3.71-3.15-5.53-4.64-.81-.67-1.71-1.09-2.74-.41-.99,.65-1.05,1.58-.82,2.65,.73,3.42,1.38,6.86,2.13,10.27,.24,1.09,0,1.8-.94,2.42-1.36,.91-2.69,1.87-3.95,2.9-1.37,1.11-1.35,2.62,.08,3.51,1.54,.96,3.12,1.91,4.82,2.52,1.24,.44,1.14,.89,.73,1.84-1.34,3.13-2.63,6.28-3.92,9.44-.63,1.54-.41,2.57,.87,3.13,.94,.41,1.13,.98,1.12,1.89-.02,6.27-.02,12.54,0,18.81,0,.9-.22,1.46-1.09,1.94-3.81,2.1-3.95,7.07-.25,9.33,.99,.61,1.36,1.24,1.35,2.38-.03,17.22-.03,34.44,0,51.66,0,1.07-.31,1.69-1.29,2.26-3.73,2.16-3.66,7.32,.11,9.33,.93,.5,1.17,1.08,1.17,2.04-.02,17.27-.02,34.53,0,51.8,0,.9-.24,1.47-1.1,1.95-3.95,2.24-3.95,7.21,0,9.47,.85,.48,1.1,1.04,1.1,1.95-.02,17.31-.02,34.62,0,51.93,0,.97-.29,1.54-1.18,2.05-3.83,2.19-3.83,7.23,0,9.42,.89,.51,1.17,1.1,1.17,2.06,0,2.09-.07,4.17,.19,6.26,.92,7.52,7.41,13.4,14.95,13.46,3.04,.02,6.09,.02,9.13,0,.85,0,1.43,.18,1.85,1.03,.98,2,2.58,3.12,4.89,3.06,2.26-.05,3.91-1.08,4.83-3.15,.31-.69,.75-.95,1.47-.94,1.45,.02,2.91,.04,4.36,0,1-.04,1.39,.36,1.36,1.36-.04,1.82-.04,3.64,0,5.45,.04,1.68,.99,3.1,2.48,3.35,2.24,.38,4.53,.41,6.76-.04,.84-.17,1.57-.21,2.37,.05,5.41,1.72,10.83,3.42,16.24,5.13,1.14,.36,2.26,.52,3.48,.33,2.01-.31,4.06-.43,6.09-.64,3.48-.36,6.95-.73,10.42-1.11,.98-.11,1.74-.59,2.08-1.54,.35-.99,.09-1.87-.69-2.6-.4-.37-.76-.78-1.18-1.13-.94-.78-.67-1.19,.37-1.5,.83-.24,1.63-.57,2.44-.87,1.74-.65,2.31-1.43,2.34-3.25,.03-2-.02-4,.01-6,.02-1.5-.65-2.49-1.99-3.11-1.24-.57-2.44-1.21-3.7-1.73-.93-.38-1.19-.63-.23-1.38,1.07-.83,2-1.84,2.97-2.8,.5-.5,.82-1.1,.56-1.85-.27-.8-.91-1.1-1.68-1.18-5.95-.64-11.91-1.27-17.86-1.9-1.23-.13-2.42,.04-3.62,.42-5.62,1.8-11.26,3.54-16.9,5.31-.48,.15-.95,.29-1.46,.2-1.94-.36-3.89-.25-5.84-.1-2.27,.17-3.41,1.42-3.46,3.72-.02,1.23-.03,2.45,0,3.68,.02,.88-.37,1.22-1.23,1.2-1.5-.03-3-.02-4.5,0-.73,.01-1.13-.28-1.47-.94-1.01-1.95-2.56-3.16-4.86-3.15-2.27,.02-3.9,1.11-4.87,3.12-.35,.73-.81,.98-1.59,.97-3.09-.03-6.18,.05-9.27-.02-6.1-.14-11.11-4.43-12.31-10.42-.44-2.21-.12-4.44-.24-6.66-.05-1.01,.27-1.62,1.18-2.19,3.98-2.5,3.86-7.21-.24-9.52-.92-.52-.94-1.22-.94-2.05,0-7.63,0-15.27,0-22.9,0-9.59,0-19.17,0-28.76,0-.84-.01-1.57,.98-2,1.98-.87,2.96-2.58,3.05-4.64,.1-2.17-.95-3.89-2.86-4.91-.98-.52-1.18-1.19-1.18-2.19,.02-17.13,.02-34.26,0-51.39,0-1.06,.28-1.7,1.27-2.27,3.74-2.16,3.72-7.25-.05-9.32-1.03-.57-1.22-1.26-1.22-2.29,.02-17.17,.02-34.35,0-51.52,0-1.11,.27-1.78,1.32-2.38,3.34-1.91,3.89-6.71,.76-8.65-2.02-1.26-2.2-2.69-2.06-4.59,.03-.45,.04-.91,0-1.36-.08-.89,.32-1.41,1.1-1.82,3.13-1.66,6.23-3.37,9.34-5.07,1.68-.93,1.79-.89,1.77,.99-.08,9.17-.15,18.35-.17,27.52-.12,53.75-.06,107.5-.05,161.26,0,1.32,.06,2.62,.21,3.94,1.1,9.84,8.56,17.99,18.3,19.84,7.2,1.36,14.53,1.37,21.82,1.86,5.84,.39,11.68,.79,17.46,1.71,7.9,1.25,15.54,3.38,22.64,7.13,2.04,1.08,3.9,1.19,5.93,.09,3.28-1.78,6.74-3.14,10.32-4.24,9.94-3.07,20.23-3.73,30.52-4.34,5.66-.33,11.33-.6,16.94-1.44,5.95-.89,11.1-3.48,15.25-7.8,5.11-5.31,7.47-11.74,7.46-19.16-.04-48.34-.02-96.69-.02-145.03,0-13.81,0-27.63,.02-41.44,0-1.67,.09-1.74,1.55-.96,2.41,1.28,4.7,2.82,7.21,3.83,3.09,1.24,4.26,3.22,3.72,6.46-.15,.88-.28,1.45-1.15,1.9-3.81,1.98-4.03,7.21-.31,9.33,1.25,.71,1.44,1.49,1.44,2.69-.02,17.04-.02,34.08,0,51.12,0,1.15-.24,1.89-1.36,2.47-1.89,.98-2.78,2.7-2.71,4.84,.06,2.09,1.07,3.67,2.95,4.54,.93,.43,1.11,1.01,1.11,1.91-.02,17.31-.01,34.62-.01,51.93,0,.14,0,.28,0,.41,.03,.66-.22,1.07-.87,1.36-2.07,.92-3.14,2.59-3.17,4.83-.03,2.26,1.07,3.92,3.07,4.91,.79,.39,.99,.91,.99,1.72-.02,17.4-.02,34.8,0,52.21,0,.87-.26,1.39-1.09,1.79-1.98,.95-2.98,2.63-2.97,4.82,0,2.2,1.02,3.86,3.04,4.76,.82,.37,1.04,.88,1.02,1.69-.03,1.63,0,3.27-.01,4.91-.06,6.05-4.67,11.44-10.67,12.35-3.83,.58-7.71,.14-11.56,.24-.73,.02-1-.48-1.28-1.03-1.02-2.02-2.66-3.08-4.92-3.03-2.24,.05-3.89,1.13-4.84,3.18-.28,.62-.66,.91-1.35,.9-1.59-.03-3.18-.02-4.77,0-.82,.01-1.14-.36-1.13-1.16,.02-1.5,.02-3,0-4.5-.03-1.88-1.01-3.16-2.85-3.42-2.12-.31-4.27-.35-6.36,.19-.81,.21-1.49,.19-2.24-.05-5.32-1.68-10.67-3.33-15.98-5.05-1.43-.46-2.84-.54-4.3-.39-3.34,.35-6.68,.69-10.02,1.04-1.98,.21-3.97,.4-5.95,.64-1.01,.12-1.84,.62-2.15,1.64-.31,1-.01,1.87,.78,2.58,.47,.43,.9,.9,1.37,1.32,.58,.52,.57,.85-.22,1.1-.99,.32-1.96,.73-2.95,1.04-1.61,.52-2.31,1.67-2.33,3.29-.02,1.68,.08,3.37-.03,5.04-.13,2.23,.85,3.61,2.89,4.39,1.35,.52,2.66,1.12,3.46,1.61-.92,1.12-1.83,2.31-2.82,3.42-.62,.7-1.31,1.32-.93,2.36,.38,1.05,1.34,1.15,2.24,1.24,5.32,.57,10.65,1.07,15.97,1.68,2.08,.24,4.01,0,6-.66,5.21-1.73,10.48-3.31,15.72-4.95,.43-.13,.9-.31,1.32-.24,1.86,.27,3.72,.12,5.58,.13,2.6,.02,3.79-1.22,3.81-3.86,.01-1.45,.06-2.91-.02-4.36-.06-1.16,.31-1.67,1.54-1.6,1.31,.08,2.63,.06,3.95,0,.92-.04,1.47,.25,1.9,1.14,.93,1.9,2.53,2.94,4.68,2.95,2.19,.01,3.9-.88,4.85-2.89,.44-.93,1.04-1.22,2.02-1.2,2.91,.05,5.81,.02,8.72,.01,8.69-.03,15.37-6.69,15.41-15.36,0-1.41,.05-2.82-.02-4.23-.05-1.07,.27-1.7,1.31-2.23,1.83-.92,2.77-2.53,2.8-4.64,.03-2.18-.93-3.82-2.81-4.77-1.04-.53-1.3-1.16-1.3-2.22,.03-17.13,.03-34.26,0-51.39,0-1.12,.28-1.81,1.35-2.36,1.88-.97,2.81-2.62,2.76-4.79-.05-2.11-.97-3.72-2.83-4.62-1.07-.51-1.28-1.19-1.27-2.24,.02-17.08,.02-34.17,0-51.25,0-1.12,.27-1.78,1.36-2.33,1.82-.93,2.74-2.56,2.75-4.67,.02-2.12-.91-3.75-2.74-4.67-1.16-.58-1.37-1.31-1.37-2.46,.03-14.13,.02-28.26,.02-42.39,0-3.09,0-6.18,0-9.27,0-.77,.08-1.41,.92-1.78,2.07-.91,3.12-2.53,3.18-4.81,.05-2.36-1.08-3.97-3.12-4.99-.65-.32-.96-.74-.96-1.48,.01-6.54,0-13.09,0-19.63,0-.45,.03-.86,.52-1.16,2.16-1.32,2.24-1.69,1.26-4.01-1.3-3.1-2.57-6.21-3.85-9.32-.18-.44-.54-.91,.31-1.14M95.01,307.43c.21-.64-.55-1.99,1.03-2.01,1.72-.02,.9,1.39,1.07,2.22,.09,.43,0,.89,0,1.34,0,.77-.47,.98-1.15,.97-.69-.01-.96-.38-.96-1.02,0-.45,0-.9,0-1.49m-31.9-8.79c4.72-1.49,9.45-2.93,14.15-4.47,1.25-.41,2.44-.06,3.63,.04,4.43,.39,8.84,.89,13.26,1.35,.27,.03,.59,0,.72,.28,.18,.38-.17,.56-.37,.79-.49,.55-1.11,.5-1.76,.39-2.99-.54-5.99-1.03-8.98-1.62-1-.2-1.86-.05-2.75,.39-6.43,3.19-12.86,6.36-19.3,9.53q-1.64,.81-1.64-1.05c0-.5,0-1,0-1.5,0-3.15,0-3.17,3.02-4.12m28.88,1.91c1.01,.07,1.67,.76,1.57,1.97-.06,.78-.06,1.46-1.14,1.4-1.46-.08-.81-1.22-1.08-1.93,.32-.47-.38-1.5,.65-1.43m1.52,7.15c0,.5,.02,1,0,1.5-.03,.58-.43,.75-.94,.75-.53,0-1.06-.07-1.1-.73-.05-1-.04-2-.03-3,0-.65,.43-.83,1.01-.83,.56,0,1.01,.17,1.05,.8,.04,.5,0,1,0,1.5m-2.08,5.87c0-.36-.01-.73,0-1.08,.02-.39,.15-.72,.59-.79,.45-.07,.92-.17,1.29,.2,.57,.56,.21,2.94-.48,3.31-1.01,.54-1.37,.33-1.41-.82-.01-.27,0-.54,0-.81h.02Zm-3.79,1.65c-.05-.35-.01-.72-.01-1.08h.01c0-.5,0-1,0-1.5-.02-.78,.41-1.01,1.11-1,.69,.01,.99,.34,.98,1,0,.86-.02,1.72,0,2.58,.02,.98-.58,1.25-1.39,1.27-1.03,.03-.63-.77-.7-1.28m1.06-5.29c-1.62,.01-.92-1.31-1.06-2.11-.08-.44,0-.9-.01-1.35-.02-.72,.28-1.08,1.04-1.08,.73,0,1.09,.31,1.07,1.05-.01,.45,0,.9,0,1.48-.25,.63,.61,2-1.03,2.02m-1.07-8.6c0-.41-.02-.82,0-1.22,.03-.46-.15-1.14,.57-1.18,.64-.03,1.38,.2,1.45,.95,.11,1.12,.07,2.26,.02,3.39-.02,.6-.54,.64-1.02,.64-.49,0-.95-.08-.99-.68-.04-.63,0-1.27,0-1.9h-.04m-3.64,11.4c-.05-.61-.03-1.1,.78-1.09,.68,0,1.17,.16,1.18,.96,0,1.18,0,2.36,0,3.54,0,.79-.58,.98-1.2,1.02-.77,.06-.69-.55-.73-1.04-.05-.63-.07-1.26-.1-1.9,.03,0,.05,0,.08,0,0-.5,.03-1,0-1.5m.86-2.77c-.78-.01-1.03-.43-1.02-1.13,.01-.77,.01-1.54,0-2.31,0-.8,.39-1.15,1.18-1.12,.82,.02,.95,.54,.94,1.2,0,.36,0,.72,0,1.09,0,.37,0,.73,0,1.09,.02,.76-.26,1.2-1.11,1.19m-1.01-8.95c0-.59,0-1.18,0-1.77,0-.56,.19-.97,.85-.97,.65,0,1.21,.18,1.23,.95,.03,1.26,.02,2.53,.02,3.8,0,.62-.35,.89-.95,.89-.61,0-1.1-.16-1.13-.87-.03-.68,0-1.36,0-2.03h-.02Zm-1.48,7.98c0,.68-.35,.97-1.02,.97-.62,0-1.07-.19-1.08-.9-.02-.9,0-1.81-.01-2.71,0-.69,.37-.94,1.03-.96,.72-.01,1.11,.27,1.09,1.03-.01,.45,0,.9,0,1.35h0c0,.41,0,.81,0,1.22m-1.05-5.07c-.75,0-1.08-.33-1.07-1.07,.01-1,0-2,.01-3,0-.93,.72-1.19,1.42-1.42,.49-.16,.66,.18,.67,.59,.02,.68,0,1.36,0,2.04h.01c0,.59-.01,1.18,0,1.77,.02,.73-.29,1.08-1.05,1.07m-1.02,8.42c.02-.68,.58-.7,1.1-.7,.5,0,.92,.14,.94,.72,.03,.72,0,1.44,0,2.16h.03c0,.41,.05,.82-.01,1.21-.07,.43,.31,1.2-.41,1.21-.67,.01-1.56-.23-1.64-1.11-.12-1.16-.07-2.34-.02-3.51m-1.68-10.44c-.19,.81,.42,2-1.14,2.02-1.25,0-1.01-.9-1.02-1.63-.01-1.14,.8-2.24,1.64-2.05,.96,.22,.26,1.14,.52,1.66m-.65,13.2c-1.01-.05-1.67-.76-1.53-1.95,.08-.7-.12-1.5,1.01-1.51,1.53-.02,1.02,1.13,1.17,1.98-.29,.45,.47,1.54-.64,1.49m-1.52-8.53c-.02-.76,.23-1.19,1.08-1.18,.86,0,1.08,.48,1.06,1.21-.01,.36,0,.72,0,1.08h-.03c0,.5,.02,.99,0,1.49-.04,.65-.5,.78-1.05,.78s-1-.17-1.02-.81c-.03-.85,0-1.71-.03-2.57m-1.47,2.43c0,.69-.38,.96-1.04,.95-.65,0-1.04-.26-1.06-.95-.01-.45,0-.9,0-1.36s0-.91,0-1.36c0-.62,.36-.88,.96-.89,.62,0,1.1,.17,1.12,.88,.03,.91,.02,1.81,.02,2.72m-3.79-2.69c0,.45,0,.9,0,1.35h-.01c0,.5,.02,.99,0,1.49-.03,.64-.46,.8-1.02,.8-.55,0-1.01-.14-1.03-.8-.03-.94-.01-1.89-.02-2.83,0-.71,.4-.93,1.04-.93s1.05,.21,1.05,.92m-3.76,2.46c.03,.83-.25,1.1-1.04,.67-.84-.45-1.7-.85-2.55-1.27-.6-.3-.61-.61,0-.91,.73-.36,1.45-.74,2.18-1.09,1.25-.6,1.36-.53,1.4,.84,0,.27,0,.54,0,.81,0,.32-.01,.63,0,.95m-7.35,2.3c.01-1.67,.1-1.72,1.55-1.01,5.9,2.9,11.83,5.75,17.68,8.75,2.09,1.08,4.08,1.46,6.39,.88,2.24-.57,4.54-.85,6.82-1.25q1.55-.28,2.79,1.25c-3.72,.39-7.22,.76-10.72,1.14-.81,.08-1.63,.11-2.43,.27-2.9,.59-5.63,0-8.38-.95-3.98-1.38-8.03-2.58-12.07-3.78-1.19-.35-1.77-.88-1.64-2.18,.11-1.03,.02-2.09,.02-3.13m-7.95-11.38c1.31-.04,2.63-.04,3.94-.01,1.02,.02,1.25,.71,1.25,1.58,0,2.22,0,4.44,0,6.66s-.02,4.53,0,6.8c.01,1.04-.44,1.5-1.47,1.49-1.22-.02-2.44,0-3.67,0-.89,0-1.34-.47-1.35-1.35,0-4.58,0-9.15,0-13.73,0-.88,.42-1.39,1.29-1.42m-15.9,4.64c1.43-.04,2.78,1.28,2.79,2.76,.01,1.49-1.25,2.79-2.73,2.81-1.48,.02-2.76-1.24-2.78-2.75-.02-1.5,1.2-2.77,2.72-2.82m77.17-8.78c4.82-.52,9.64-1.01,14.46-1.53,.74-.08,1.43-.06,2.14,.16,5.01,1.59,10.03,3.15,15.05,4.74,2.17,.68,2.17,.69,2.17,3v.95q0,3.35-3.04,1.85c-5.97-2.95-11.96-5.89-17.93-8.85-.97-.48-1.9-.68-3-.46-2.84,.58-5.71,1.06-8.56,1.56-.44,.08-.91,.16-1.34,.08-.55-.1-1.14-.51-1.14-1.02,0-.72,.76-.43,1.19-.48m30.26,12.49c-.35,.2-.71,.42-1.09,.55-.92,.32-2,1.56-2.62,.94-.76-.75-.21-2.24-.25-3.4-.01-.31,.13-.53,.67-.42,1.03,.52,2.21,1.1,3.37,1.72,.34,.18,.21,.46-.07,.62m-5.65-.37c0,.45,0,.9,0,1.35-.02,.61-.34,.89-.94,.89-.6,0-.95-.26-.96-.87-.02-.9-.01-1.8-.01-2.7,0-.67,.34-.97,1.02-.96,.63,.02,.88,.36,.89,.94,0,.45,0,.9,0,1.35m-3.58,1.09c.02,.77-.25,1.18-1.09,1.17-.88,0-1.06-.51-1.04-1.23,.01-.36,0-.72,0-1.08h.01c0-.45,0-.9,0-1.35,0-.72,.46-.89,1.08-.89,.66,0,1.02,.26,1.02,.95,0,.81-.01,1.62,.01,2.44m-5.94,4.77c.15-.8-.35-1.9,1.09-1.92,1.2-.01,1.07,.85,1.07,1.61,0,1.08-.76,2.1-1.59,1.94-1-.19-.32-1.12-.57-1.63m2.15-4.62c0,.76-.4,1.02-1.12,1.01-.67,0-1-.3-1-.97,0-.77,.01-1.53-.01-2.3-.03-.79,.16-1.31,1.11-1.29,.89,.03,1.04,.55,1.02,1.25,0,.32,0,.63,0,.95h0c0,.45,0,.9,0,1.35m-1.02-5.22c-1.55,.01-.93-1.2-1.17-1.96,.31-.48-.38-1.5,.58-1.46,.96,.04,1.73,.69,1.62,1.91-.06,.72,.06,1.5-1.03,1.51m-4.7,10.68h.01v-1.77c0-.77,.44-1.01,1.15-1,.7,.01,.97,.39,.96,1.04,0,.95,.01,1.9-.02,2.85,0,.26-.09,.58-.26,.75-.42,.41-.95,.86-1.54,.7-.53-.15-.26-.78-.3-1.21-.04-.45,0-.9,0-1.36m2.12-6.65h-.01c0,.45,.01,.9,0,1.35-.02,.64-.4,.84-.98,.84-.61,0-1.09-.14-1.1-.87-.02-.9-.01-1.8-.01-2.7,0-.78,.45-.99,1.14-.98,.69,0,.98,.35,.97,1.01,0,.45,0,.9,0,1.35m-.03-4.83c-.01,.65-.47,.8-1.03,.8-.56,0-1-.18-1.03-.82-.03-.68,0-1.36,0-2.03h-.03c0-.36-.04-.73,.01-1.08,.07-.47-.29-1.28,.55-1.25,.63,.03,1.43,.33,1.5,1.14,.1,1.07,.06,2.17,.04,3.25m-5.86,3.44c-.01-.69,.35-.96,1.01-.96,.62,0,1.07,.17,1.07,.89,0,.9,0,1.8,0,2.7,0,.69-.35,.95-1.01,.96-.73,.01-1.1-.28-1.08-1.03,.01-.45,0-.9,0-1.35h0c0-.41,0-.81,0-1.22m0,6.17c0-.73,.48-.89,1.1-.88,.58,0,.96,.24,.97,.87,0,.64,0,1.27,0,1.9h.02c0,.59,.02,1.18,0,1.77-.02,.49,.05,1.11-.73,1.01-.61-.08-1.35-.08-1.35-.99-.01-1.22,0-2.45,0-3.67m2.08-11.65v1.9c0,.69-.38,.95-1.03,.95-.65,0-1.05-.23-1.05-.93,0-1.13,0-2.26,0-3.39-.01-.94,.61-1.08,1.35-1.13,.91-.06,.72,.6,.74,1.11,.02,.5,0,.99,0,1.49h-.01Zm-5.88,6.89c-.09-.43,0-.9,0-1.35,0-.65,.27-1,.97-1.01,.69,0,1.15,.2,1.15,.98v1.51c-.23,.65,.62,2.09-1.11,2.05-1.62-.04-.82-1.38-.99-2.17m-.02-7.5c-.05-.97,.54-1.27,1.34-1.31,.92-.05,.75,.69,.79,1.25,.03,.36,0,.72,0,1.08,0,.4,0,.81,0,1.21,.01,.72-.18,1.23-1.04,1.25-.84,.02-1.1-.43-1.09-1.18,.01-.77,.03-1.53,0-2.29m.06,12.1c.02-.58,.47-.71,.97-.71,.55,0,1.03,.12,1.07,.77,.04,.54,0,1.09,0,1.64h.03c0,.41,.02,.82,0,1.23-.03,.54,.04,1.19-.77,1.17-.62-.01-1.23-.25-1.29-.96-.08-1.04-.05-2.08-.02-3.13m-2.05,2.58c-.92,.11-1.59-.78-1.59-1.93,0-.74,.07-1.37,1.06-1.36,1.46,.01,.96,1.11,1.1,1.92-.22,.43,.39,1.27-.57,1.38m-.62-11.22c-.22,0-.47-.06-.63-.18-.69-.51-.36-2.95,.43-3.34,1.06-.52,1.34-.35,1.37,.82,0,.22,0,.45,0,.78-.15,.7,.47,1.97-1.17,1.92m.14,1.68c1.01,0,1.04,.65,1.03,1.37,0,.27,0,.54,0,.81,0,.41-.01,.81,0,1.22,.03,.77-.25,1.18-1.09,1.18-.88-.01-1.06-.51-1.04-1.24,.01-.68,.02-1.36,0-2.03-.02-.77,.15-1.32,1.11-1.31m-2.79,2.29c0,.5,.02,1,0,1.49-.04,.65-.49,.79-1.04,.79s-1.01-.13-1.03-.79c-.03-.95,0-1.9-.01-2.85,0-.71,.41-.92,1.05-.92s1.05,.22,1.05,.93v1.35h-.01m33.99,8.5c-5.41,1.68-10.82,3.41-16.23,5.09-1.44,.45-2.89,.02-4.32-.13-4.24-.42-8.47-.89-12.7-1.34-.22-.02-.46,0-.64-.31,.48-.79,1.03-1.3,2.14-1.08,2.89,.57,5.81,1.01,8.7,1.57,1.21,.23,2.3,.08,3.41-.48,6.45-3.22,12.93-6.4,19.4-9.59,1.35-.67,1.38-.64,1.39,.89,0,1.27-.03,2.54,0,3.81,.03,.87-.35,1.32-1.16,1.57m10.19-1.82c0,1-.5,1.37-1.44,1.35-1.09-.02-2.18-.04-3.27,0-1.27,.05-1.83-.48-1.8-1.77,.05-2.18,.01-4.36,.01-6.54s.04-4.27-.02-6.4c-.04-1.26,.5-1.72,1.7-1.67,1.13,.05,2.27,.03,3.41,.01,.96-.02,1.41,.41,1.41,1.39-.01,4.54-.01,9.09,0,13.63m14.55-4.43c-1.49-.05-2.56-1.23-2.55-2.8,0-1.61,1.17-2.79,2.73-2.77,1.46,.02,2.73,1.37,2.69,2.87-.04,1.48-1.39,2.76-2.87,2.7M199.44,22.65c.3-.24,.56-.77,1-.54,.44,.23,.18,.74,.1,1.11-.57,2.85-1.24,5.68-1.7,8.54-.24,1.51-1.05,1.92-2.38,1.98-3.12,.15-6.24,.36-9.36,.53-3.8,.21-7.6,.39-11.4,.59v.05c-.45,0-.91-.02-1.36,0-1.31,.09-1.98-.61-1.79-1.92,.12-.85,.87-.72,1.39-.75,2.35-.15,4.7-.28,7.06-.32,2-.03,3.98-.14,5.97-.29,.67-.05,1.21-.32,1.76-.65,3.94-2.31,7.19-5.5,10.71-8.35m-45.58,17.39c-5.28-.89-10.55-1.8-15.83-2.69-.8-.13-1.36-.38-1.39-1.34-.02-.95,.28-1.48,1.32-1.41,.45,.03,.91,0,1.36,0,0-.02,0-.03,0-.04,3.43,.27,6.87,.54,10.3,.8,.68,.05,1.36,.07,2.04,.07,.74,0,.86-.53,.91-1.11,.04-.59-.31-.79-.83-.84-.99-.08-1.98-.26-2.98-.26-1.14,0-1.19-.69-1.19-1.54s.1-1.43,1.15-1.42c1.5,.02,3.11-.27,4.45,.31,1.54,.66,2.6,2.16,4.06,3.08,.17,.11,.1,.6,.12,.92,.07,.85,.5,1.55,1.28,1.78,2.26,.65,4.55,1.32,6.95,.88,1.5-.28,2.83-.95,4.01-1.92,.29-.24,.54-.82,.96-.54,.26,.17,.33,.73,.36,1.12,.26,3.5-.8,6.59-2.84,9.43-1.95,2.71-4.01,3.77-7.54,2.5-6.1-2.18-12.42-3.73-18.65-5.56-.47-.14-.98-.27-1.39-.54-.54-.36-1.04-.98-.83-1.58,.23-.63,.95-.26,1.45-.18,4.16,.69,8.32,1.39,12.48,2.11,.7,.12,1.23,.17,1.39-.76,.17-.98-.37-1.16-1.12-1.28m5.59-6.09c.02-.44,.42-.55,.78-.64,2.9-.69,5.81-1.37,8.72-2.05,.27-.06,.56-.13,.75,.12,.23,.29,.14,.62-.07,.88-1.42,1.75-3.12,3.01-5.76,3.12-1.02-.2-2.31-.43-3.59-.69-.39-.08-.85-.21-.83-.73m8.67,14.56c.51-.26,.76,.13,1.01,.44,2.24,2.73,4.47,5.47,6.69,8.22,.52,.65,.32,2.86-.27,3.41-.12,.11-.31,.18-.47,.19-.22,.01-.45-.05-.67-.1q-4.05-.83-5.21-4.9c-.58-2.05-1.15-4.1-1.66-5.91-.08-.77,.13-1.13,.58-1.36m7.72,5.53c-1.54-2.44-3.55-4.6-5.46-6.79-.71-.82-.22-1.25,.14-1.87,.42-.73,.87-.4,1.36-.12,5.67,3.35,11.34,6.7,17.01,10.04,.65,.39,.91,.72,.14,1.28-.77,.56-1.49,1.2-2.23,1.79-.32,.26-.68,.46-1.43,.41-3.13-1.2-7.17-1-9.53-4.73m12.47-1.43c-5.14-3.06-10.29-6.09-15.44-9.13-.58-.34-1.14-.65-.66-1.46,.14-.24,.3-.46,.73-.39,.19,.11,.48,.25,.74,.41,5.15,3.05,10.29,6.09,15.43,9.16,.43,.26,1.33,.39,.92,1.21-.4,.8-1.05,.6-1.72,.2m-8.69-26.68c1.02-.03,1.96-.23,2.9-.62,2.63-1.11,5.28-2.19,7.92-3.27,.41-.17,.87-.54,1.27-.24,.44,.33,.09,.84,0,1.27-.06,.36-.23,.71-.23,1.06-.03,2.7-1.79,4.08-3.91,5.2-.37,.2-.75,.31-1.16,.33-4.44,.19-8.87,.38-13.31,.57-.74,.03-1.42-.02-2.01-.6-.78-.77-1.76-.59-2.7-.37-2.87,.66-5.75,1.32-8.6,2.06-1.21,.31-2.21,.02-3.42-.81,2.37-1.34,4.53-2.57,6.71-3.77,.34-.18,.78-.24,1.18-.25,5.12-.2,10.23-.4,15.35-.56M27.93,19.77c.01-1.72,.06-1.78,1.74-1.79,3.82,0,7.63,0,11.45,0,6.72,0,13.44,0,20.16,0,3.04,0,4-.96,4.01-4,0-3.14,.04-6.27-.02-9.4-.02-1.15,.32-1.61,1.54-1.61,23.39,.03,46.78,.03,70.17,0,1.21,0,1.57,.45,1.55,1.61-.05,3.13-.02,6.27-.02,9.4,0,3.15,.86,4,4.07,4,10.31,0,20.62,0,30.93,0,.45,0,.91,0,1.36,.01,.68,0,.98,.36,.98,1.02,0,1.32-.01,2.63,0,3.95,0,.68-.33,.99-.98,1.04-.86,.06-1.72,.17-2.57,.2-2.9,.11-5.81,.2-8.71,.29-.71,.02-1.33,.27-1.92,.61-1.45,.84-2.93,1.65-4.36,2.53-.85,.52-1.72,.73-2.71,.71-2.22-.05-4.45-.06-6.68-.05-1.71,0-2.27,.58-2.32,2.29,0,.27-.03,.55,0,.82,.17,1.36-.53,1.6-1.71,1.49-2.21-.21-4.43-.38-6.65-.47-1.97-.08-2.73,.7-2.76,2.67-.01,.68-.01,1.36,.05,2.04,.05,.6,.2,1.29,.78,1.51,1.54,.59,2.07,1.96,2.68,3.26,.54,1.16,1.41,1.8,2.63,2.15,7.46,2.14,14.92,4.32,22.37,6.49,.3,.09,.64,.29,.91,.23,1.67-.31,2.02,.74,2.34,2.03,.6,2.38,1.34,4.72,1.99,7.08,.25,.92,.76,1.58,1.69,1.75,2.29,.43,4.45,1.67,6.91,1.11,.23-.05,.54,.07,.77,.19,1.96,1.05,3.92,2.11,5.88,3.17,.58,.31,.84,.77,.84,1.44-.02,7.04-.02,14.08-.03,21.12,0,.09-.05,.17-.11,.36-.57-.26-.85-.8-1.19-1.23-9.66-12.1-19.31-24.21-28.94-36.34-1.04-1.3-2.28-1.86-3.91-1.69-1.31,.14-2.62,.24-3.93,.35-1.25,.1-2.16,.78-3.09,1.57-4.22,3.6-7.25,8.11-9.85,12.93-.91,1.68-2.04,2.25-3.91,2.15-3.76-.21-7.53-.18-11.29-.31-1.5-.05-2.79,.35-3.78,1.49-.88,1.01-1.88,1.17-3.05,.56-.32-.17-.69-.24-1.01-.41-3.01-1.71-6.25-1.15-9.44-.95-.83,.05-1.57,.43-2.25,.91-1.12,.78-2.27,1.51-3.38,2.29-.88,.61-1.59,.6-2.35-.28-2.23-2.57-5.81-2.33-7.79,.44-1.38,1.92-2.78,3.82-4.18,5.72-1.05,1.42-1.59,1.51-3.02,.41-5.69-4.38-11.36-8.77-17.03-13.16-1.69-1.31-3.38-2.6-5.07-3.92-1.2-.93-2.46-1.03-3.97-.77-3.93,.68-6.56,2.85-8.88,6.06-6.15,8.5-12.61,16.77-18.96,25.12-.26,.34-.4,.82-.93,.93-.33-.41-.18-.88-.18-1.31-.01-7.13,.02-14.27-.03-21.4,0-1.18,.24-2.02,1.43-2.45,.5-.18,1.01-.47,1.42-.81,2.81-2.36,6.38-2.11,9.66-2.71,2.45-.45,3.75-1.55,4.23-4,.44-2.22,1.22-4.37,1.81-6.57,.19-.71,.41-1.16,1.29-.91,.63,.18,1.25-.1,1.86-.28,7.15-2.08,14.28-4.23,21.46-6.22,1.79-.5,2.97-1.39,3.69-3.06,.43-1,.89-1.96,2.06-2.39,.67-.24,.98-.92,.99-1.66,0-.64,.01-1.27,.01-1.91-.01-2.23-.71-2.93-2.98-2.83-2.08,.09-4.16,.25-6.24,.43-1.49,.13-1.67,.01-1.7-1.46-.07-2.61-.58-3.12-3.13-3.11-1.27,0-2.55-.07-3.81,.05-2.4,.22-4.62-.15-6.52-1.69-2.87-2.32-6.3-2.26-9.69-2.39-3.08-.12-6.17-.24-9.25-.29-1.08-.02-1.46-.45-1.4-1.48,.05-.9,0-1.81,.01-2.72m100.72,65.37c-1.83-1.19-3.74-2.04-5.94-2.11-5.34-.18-9.88-2.57-14.19-5.38-2.57-1.67-5.26-1.76-8.08-1.63-.58,.03-1.03,.34-1.48,.63-1.65,1.05-3.37,2-4.92,3.17-4.86,3.68-10.48,5.73-16.12,7.77-.43,.15-.87,.29-1.28,.49-4.59,2.2-9.4,2.89-14.51,2.78-11.22-.24-22.44-.07-33.66-.08-.51,0-1.23,.29-1.49-.27-.21-.46,.39-.86,.68-1.25,6.41-8.47,12.86-16.93,19.23-25.43,.86-1.14,2.04-1.37,3.19-1.88,2.37-1.05,4.2-.54,6.13,1.14,3.02,2.61,6.27,4.94,9.43,7.4,.24,.19,.57,.3,.65,.93h-1.57c-3.32,0-6.63,.02-9.95,0-.94,0-1.28,.4-1.27,1.32,.01,.9,.43,1.18,1.27,1.18,3.77-.02,7.55,.15,11.31-.05,2.8-.15,5.13,.45,7.16,2.43,1.06,1.04,2.34,1.87,3.54,2.76,2.11,1.57,4.08,1.33,5.68-.76,1.55-2.02,3-4.11,4.51-6.15,1.25-1.69,2.74-1.72,4.13-.12,1.27,1.46,3.11,1.83,4.79,.85,1.06-.61,2.06-1.32,3.07-2.03,2.7-1.9,5.68-1.52,8.64-.97,1.14,.21,2.21,.82,3.31,1.24,1.61,.61,3.17,.6,4.41-.73,1.18-1.27,2.58-1.53,4.19-1.36,3.85,.4,7.71,.2,11.57,.25,.84,.01,1.6,.18,2.36,.54,8.12,3.85,16.26,7.68,24.38,11.54,.84,.4,1.45,.57,1.98-.49,.55-1.13-.1-1.4-.91-1.78-7.68-3.63-15.34-7.3-23.03-10.89-1.21-.57-1.28-1.07-.56-2.1,1.03-1.49,2.01-3.03,2.84-4.65,1.71-3.32,4.52-5.66,7.13-8.17,1.14-1.09,2.78-.57,4.18-.88,1.39-.31,2.36,.26,3.24,1.4,4.25,5.44,8.58,10.81,12.87,16.22,.29,.36,.91,.72,.64,1.23-.21,.38-.84,.17-1.28,.17-2.54,.02-5.09,.02-7.63,0-.89,0-1.49,.2-1.52,1.26-.02,1.11,.6,1.25,1.48,1.24,3.41-.02,6.82,.01,10.22-.02,.85,0,1.43,.27,1.97,.94,3.85,4.89,7.74,9.74,11.61,14.62,.24,.31,.74,.59,.57,1.01-.21,.52-.8,.26-1.22,.31-.18,.02-.36,0-.55,0-13.4,0-26.8-.01-40.2,.02-1.29,0-2.38-.32-3.45-1-2.49-1.58-5.05-3.06-7.53-4.66m3.65,5.56h-54.81c-.02-.08-.04-.16-.06-.23,1.46-.55,2.89-1.2,4.38-1.65,5.19-1.58,9.81-4.23,14.23-7.29,.86-.59,1.77-1.11,2.62-1.71,2.62-1.86,5.25-1.83,7.99-.25,2.55,1.48,5.16,2.85,7.75,4.27,2.06,1.12,4.39,1.29,6.6,1.41,4.59,.24,7.76,3.18,11.3,5.46M18.58,55.21c3.74-2.24,7.49-4.45,11.24-6.68,1.8-1.06,3.58-2.15,5.39-3.19,.44-.26,.92-.74,1.42-.06,.43,.59,.9,1.13,.25,1.92-2.48,3.01-4.93,6.05-7.4,9.08-.11,.14-.25,.29-.41,.35-2.45,.98-5.04,1.48-7.34,2.21-.73-.03-3.79-2.22-3.91-2.67-.17-.65,.42-.74,.77-.95m-1.57-2.93c-.2-.47,.28-.6,.57-.78,5.41-3.22,10.82-6.43,16.24-9.64,.3-.17,.63-.5,.97-.17,.21,.2,.29,.54,.38,.72-.03,.61-.42,.81-.76,1.02-5.14,3.05-10.29,6.09-15.43,9.13-.27,.16-.57,.32-.87,.36-.5,.08-.9-.21-1.09-.64m21.53-16.28c1.85,1.18,3.85,1.57,5.99,1.26,.76-.11,1.51-.34,2.27-.44,1.8-.23,3.15-.9,3.21-2.98,0-.13,.04-.32,.13-.38,1.3-.78,2.28-2.09,3.49-2.78,1.45-.83,3.45-.55,5.21-.35,.98,.11,.65,1.03,.7,1.66,.05,.66-.17,1.14-.96,1.19-.99,.06-1.98,.2-2.98,.27-.66,.05-1.01,.32-.98,1.02,.03,.68,.4,.99,1.05,.95,1.72-.11,3.44-.26,5.15-.36,2.8-.17,5.61-.33,8.41-.48,.71-.04,1.39-.02,1.42,.99,.04,.92-.12,1.54-1.23,1.72-5.33,.87-10.64,1.79-15.96,2.7-.63,.11-1.33,.14-1.27,1.06,.06,.96,.56,1.17,1.47,1.01,4.15-.74,8.32-1.43,12.48-2.12,.5-.08,1.23-.49,1.45,.13,.21,.58-.31,1.21-.8,1.62-.3,.24-.74,.34-1.12,.45-7.05,2.06-14.12,4.09-21.16,6.2-1.36,.41-2.28,.14-3.27-.83-3.53-3.48-4.85-6.18-4.89-10.49,.07-.68-.35-1.87,.23-2.2,.67-.38,1.29,.72,1.95,1.14m-1.15-4.41c.17-.35,.46-.41,.8-.33,2.95,.7,5.91,1.39,8.86,2.09,.32,.08,.61,.26,.63,.62,.03,.48-.35,.6-.71,.67-1.28,.26-2.57,.51-3.61,.71-2.61-.11-4.37-1.29-5.83-3.02-.18-.22-.29-.47-.16-.75m2.28,18.35c-.62,2.14-1.21,4.28-1.81,6.42-1.02,3.61-1.37,3.91-5.15,4.35-.09,.01-.18,.02-.27,.03-.46,.04-.83-.1-.96-.57-.27-1.01-.95-1.99-.05-3.07,1.94-2.33,3.83-4.71,5.75-7.07,.26-.32,.5-.65,.76-.95,.32-.35,.58-.91,1.2-.53,.53,.32,.7,.78,.52,1.4M16.39,21.88c2.01,.85,4.09,1.53,6.02,2.51,2.72,1.39,5.61,1.66,8.56,1.76,3.9,.12,7.79,.23,11.69,.32,.79,.02,1.5,.21,2.18,.62,1.6,.95,3.23,1.84,4.84,2.77,.3,.17,.77,.28,.77,.68,0,.5-.56,.51-.89,.71-.59,.35-1.19,.29-1.84,.13-2.86-.69-5.74-1.35-8.61-2.02-.48-.11-.98-.19-1.5-.29-.34,.07-.81,.02-1.02,.23-1.62,1.58-3.61,.88-5.43,.85-3.35-.05-6.7-.32-10.04-.48-2.07-.1-4.6-2.16-5.09-4.18-.23-.92-.42-1.86-.66-2.78-.27-1.04,.06-1.23,1.01-.83m-9.99,.09c.11-.05,.23-.11,.35-.16,2.29,1.92,4.61,3.81,6.86,5.76,1.59,1.38,3.34,2.52,5.12,3.6,1.37,.84,3,.61,4.52,.69,3.26,.18,6.53,.22,9.79,.38,1.61,.08,1.76,.41,1.43,1.97-.17,.81-.59,.83-1.27,.79-5.75-.34-11.5-.65-17.26-.97-1.9-.11-3.8-.23-5.71-.33-1.05-.06-1.58-.52-1.79-1.63-.62-3.38-1.36-6.73-2.05-10.1m-3.3,17.89c-.37-.18-.02-.47,.18-.62,1.5-1.1,2.99-2.21,4.53-3.25,.76-.51,1.68-.21,2.62-.27,7.46,.45,15.01,.91,22.56,1.36,.57,.03,1.09,.08,1.15,.84,.06,.79-.39,1.04-1.05,1.12-3.14,.38-6.29,.77-9.44,1.14-5.17,.61-10.34,1.23-15.52,1.8-2.02,.22-3.39-1.33-5.02-2.12m2.13,16.21c1.08-2.63,2.43-5.19,3.17-7.91,.96-3.5,2.93-4.8,6.53-4.96,5-.22,9.97-1.1,15.05-1.46-8.16,4.84-16.32,9.68-24.48,14.52-.09-.07-.18-.13-.28-.2m4.15,225.86c-.03,1.62-1.17,2.71-2.79,2.66-1.54-.05-2.68-1.29-2.63-2.86,.05-1.54,1.17-2.58,2.74-2.57,1.62,.01,2.71,1.13,2.68,2.77m0-65.46c0,1.62-1.1,2.72-2.72,2.72-1.57,0-2.68-1.08-2.7-2.6-.01-1.58,1.15-2.8,2.68-2.82,1.61-.03,2.74,1.09,2.74,2.7m0-65.2c0,1.57-1.06,2.7-2.58,2.73-1.62,.03-2.85-1.17-2.84-2.8,0-1.52,1.11-2.61,2.67-2.63,1.63-.02,2.74,1.07,2.74,2.7m0-65.43c0,1.57-1.2,2.74-2.77,2.7-1.53-.04-2.68-1.28-2.65-2.86,.03-1.45,1.27-2.65,2.73-2.66,1.5,0,2.7,1.25,2.69,2.82m.08-14.32c-1.38,.75-1.42,.71-1.43-.92,0-1.04,0-2.09,0-3.13-1.04-3.63,.77-5.63,3.93-6.88,.46-.18,.85-.52,1.29-.76,.56-.3,.68-.66,.33-1.21-.32-.52-.66-.88-1.31-.5-1.09,.65-2.19,1.28-3.29,1.93-.61,.36-.88,.24-.96-.5-.15-1.48-.05-2.68,1.61-3.4,1.49-.64,2.84-1.6,4.24-2.45,.52-.32,.95-.42,1.48,0,.57,.44,.46,.86,.2,1.42-.47,1.01-.09,1.87,.69,2.55,.61,.54,1.25,1.06,1.91,1.53,.74,.53,.71,.96-.07,1.4-1.22,.7-2.42,1.44-3.65,2.12-.62,.34-.88,.66-.46,1.38,.41,.68,.84,.73,1.44,.34,.15-.1,.32-.17,.47-.27,3.56-2.59,7.65-3.89,11.86-4.91,.57-.14,1.15-.43,1.43,.44,.25,.76-.04,1.14-.71,1.5-6.35,3.42-12.68,6.88-19.02,10.32m174.87,184.93c0,12.8-8.62,22.61-21.33,24.37-5.49,.76-11.02,1.01-16.54,1.35-10.74,.65-21.48,1.41-31.8,4.84-3.24,1.07-6.41,2.32-9.41,3.94-1.24,.67-2.33,.69-3.59,.03-8.72-4.6-18.12-6.87-27.84-8.04-7.48-.9-15.01-1.22-22.52-1.65-3.84-.22-7.69-.5-11.51-1.1-8.99-1.4-16.11-8.89-17.07-17.9-.15-1.41-.21-2.8-.21-4.21,0-48.75-.03-97.49,.05-146.24,.01-5.08,.18-10.16,.23-15.24,.02-1.87,1.5-3.29,3.38-3.29,14.53,.01,29.07,.05,43.6,.04,36.83,0,73.66-.03,110.49-.05,.27,0,.55,0,.82,0,2.48,.03,3.24,.79,3.24,3.29,0,26.89,0,53.79,0,80.68h.02c0,26.4,0,52.79,0,79.18m9.73-196.42c1.33,.79,2.64,1.6,4.01,2.32,.92,.48,1.28,1.12,1.25,2.17-.07,2.23-.05,4.45-.01,6.68,.02,1.01-.27,1.21-1.17,.71-5.45-2.99-10.91-5.96-16.37-8.94-1-.54-1.98-1.1-2.99-1.63-.76-.4-1.05-.93-.7-1.78,.38-.88,1-.38,1.5-.27,4.01,.92,7.83,2.3,11.22,4.7,.3,.21,.64,.34,.96,.52,.58,.34,.91,.07,1.21-.42,.33-.52,.3-.93-.25-1.25-1.25-.74-2.5-1.49-3.76-2.2-.7-.4-.82-.77-.11-1.3,.72-.54,1.42-1.13,2.11-1.72,.85-.72,1.22-1.6,.65-2.65-.3-.55-.15-.91,.28-1.29,.46-.42,.87-.33,1.35-.04,1.71,1.04,3.41,2.09,5.15,3.06,.95,.53,.96,1.34,.89,2.41-.08,.32,.32,1.02-.25,1.31-.46,.24-.89-.31-1.32-.54-.91-.51-1.82-1.02-2.71-1.57-.63-.39-1.09-.52-1.56,.26-.52,.86,.07,1.14,.62,1.46m9.31,221.87c0,1.53-1.23,2.71-2.81,2.7-1.45,0-2.67-1.21-2.71-2.68-.04-1.49,1.2-2.73,2.76-2.75,1.58-.02,2.76,1.14,2.75,2.72m0-65.36c-.03,1.59-1.18,2.68-2.81,2.66-1.48-.02-2.68-1.2-2.7-2.65-.02-1.51,1.24-2.78,2.75-2.77,1.5,.01,2.8,1.31,2.77,2.77m0-65.16c-.05,1.48-1.23,2.61-2.75,2.63-1.51,.02-2.78-1.25-2.77-2.76,.01-1.5,1.27-2.68,2.84-2.67,1.57,.02,2.72,1.22,2.67,2.8m0-65.57c.01,1.44-1.23,2.71-2.66,2.74-1.55,.04-2.83-1.16-2.86-2.68-.03-1.45,1.29-2.81,2.75-2.84,1.51-.03,2.76,1.22,2.77,2.78m-1.41-29.8c-.09,.09-.17,.18-.25,.27-8.13-4.82-16.27-9.64-24.4-14.46,.04-.09,.07-.18,.11-.27,4.03,.47,8.06,.93,12.1,1.41,2.03,.24,4.05,.48,6.07,.71,.69,.08,1.35,.16,1.67,.93,1.57,3.81,3.14,7.61,4.71,11.41m-5.24-14.2c-7.17-1.08-14.39-1.77-21.6-2.61-.36-.04-.71-.14-1.08-.17-.66-.07-1.13-.28-1.08-1.08,.06-.87,.68-.83,1.28-.86,6.42-.37,12.85-.74,19.27-1.11,1.13-.06,2.25-.35,3.45-.2,1.51-.38,2.76,.23,3.93,1.22,.86,.73,1.81,1.37,2.74,2.01,.64,.44,.84,.75,0,1.22-2.16,1.2-4.23,1.97-6.9,1.56"/>
      <path class="cls-3" d="M178.89,105.79c-.18-2.98-2.83-4.81-5.06-4.21-.6,.16-1.27,.07-1.9,.06-23.38-.15-46.76,.11-70.15-.18-22.89-.28-45.78-.06-68.66-.06-.32,0-.64,0-.95,.03-2.09,.22-3.72,1.74-4.03,3.82-.13,.85-.18,1.72-.18,2.58-.02,4.54,0,9.08,0,13.63,0,43.57,0,87.14,0,130.7,0,3.96,.68,7.78,2.66,11.28,4.18,7.36,10.79,10.53,18.97,11.13,6.97,.51,13.96,.62,20.93,1.02,10.7,.62,21.12,2.26,30.72,7.38,1.46,.78,2.96,.73,4.45-.02,1.09-.55,2.2-1.09,3.32-1.59,8.75-3.91,18.07-4.93,27.48-5.43,6.61-.35,13.23-.44,19.83-1.1,13.32-1.33,22.6-11.47,22.6-24.85,0-23.67,0-47.34,0-71.01,0-23.85,0-47.7,0-71.55,0-.55,.02-1.09-.02-1.63m-21.76,166.29c-5.37,.64-10.76,.82-16.15,1.04-9.08,.36-18.14,.9-26.91,3.57-3.05,.93-6.01,2.07-8.82,3.58-1.24,.67-2.34,.6-3.6-.04-6.53-3.35-13.51-5.28-20.76-6.27-6.62-.9-13.27-1.18-19.94-1.43-5.2-.19-10.44-.2-15.59-1.22-8.59-1.71-14.68-9.1-14.69-17.84-.02-24.31,0-48.61,0-72.92V107.63c0-.54-.01-1.09,.02-1.63,.07-1.17,.65-1.86,1.88-1.87,.5,0,1-.01,1.5-.01,22.48,0,44.96,.2,67.44-.05,23.39-.26,46.77-.03,70.15-.17,.5,0,1,0,1.5,0,2.45,.06,3.04,.65,3.04,3.08,0,47.84-.08,95.68,.06,143.52,.03,10.22-7.59,20.22-19.12,21.58"/>
      <path class="cls-3" d="M74.48,23.76c-.21,.34-.38,.73-.53,1.11-1.51,3.7-.16,6.35,3.7,7.28,.26,.06,.53,.15,.8,.17,1.19,.12,1.28,.64,.75,1.63-1.44,2.7-1.56,5.47-.2,8.24,.29,.59,.28,1.06-.05,1.65-1.02,1.8-.89,3.58,.5,5.01,.82,.84,1.39,1.68,1.65,2.84,.3,1.34,1.3,2.11,2.71,2,1.1-.08,1.98-.01,2.67,1.01,.29,.43,.93,.65,1.47,.58,1.3-.16,2.47-.11,3.47,.93,.37,.38,1.06,.33,1.58,.21,1-.22,1.79,.34,2.65,.49,2.38,.41,4.79,.86,7.23,.7,.39-.03,.75-.28,1.18-.1,1.17,.5,2.31,.39,3.4-.22,.38-.2,.75-.3,1.17-.16,1.35,.43,2.6,.26,3.71-.67,.26-.22,.57-.26,.9-.17,2.58,.71,4.55-1.84,7.11-1.34,.18,.04,.5-.25,.64-.46,.48-.73,1.09-1.06,1.84-.78,2.08,.07,3.09-.62,3.41-2.48,.15-.88,.55-1.46,1.17-2.04,1.75-1.64,2-3.48,.75-5.48-.32-.51-.28-.87-.03-1.36,1.36-2.75,1.29-5.52-.02-8.27q-.72-1.51,.94-1.84c.27-.05,.54-.1,.8-.15,4.13-.91,4.48-3.84,3.45-7.1-.11-.34-.27-.68-.47-.98-1.07-1.61-.72-2.95,.48-4.42,2.31-2.84,1.25-5.42-2.36-6.09-.53-.1-1.08-.12-1.62-.15-.47-.02-.86-.14-1.23-.47-3.53-3.13-5.74-3.33-9.77-.84-.57,.35-.88,.34-1.37-.16-2.16-2.23-4.96-2.28-7.08-.13-.5,.51-.74,.56-1.3,.09-3.27-2.73-6.52-2.76-9.85-.08-.55,.44-.84,.58-1.42-.01-2.13-2.14-4.76-2.16-6.84-.02-.68,.71-1.02,.79-1.83,.14-2.49-2-6.04-2.07-8.29-.05-1.16,1.04-2.33,1.47-3.83,1.66-4,.52-5.04,3.23-2.48,6.3,1.07,1.28,1.35,2.52,.45,3.97m32.11,11.15c.64,.58,1.3,1.13,1.94,1.7,.2,.18,.43,.39,.33,.69-.11,.32-.43,.29-.7,.29-3.04,0-6.08,0-9.12,0-.26,0-.59,.06-.71-.25-.14-.36,.15-.6,.38-.8,.73-.68,1.52-1.3,2.23-2,1.22-1.21,1.37-2.1,.68-3.55-.67-1.39-1.97-2.24-3.37-2.07-.89,.11-1.81,.27-2.64,.62-1.36,.57-2.44,.26-3.46-.75,7.66-2.47,15.24-2.46,22.94-.01-.83,.8-1.63,1.36-2.84,.93-.85-.3-1.74-.53-2.62-.71-1.75-.36-3.2,.36-3.95,1.89-.74,1.51-.46,2.74,.93,4m-13.99-3.55c.66,.47,1.27,.55,2.03,.36,1.14-.29,2.22-.82,3.41-.91,.83-.06,1.54,.13,1.92,.96,.38,.83-.08,1.4-.66,1.88-1.3,1.07-2.58,2.13-3.38,3.68-.3,.58-1,.64-1.57,.61-.62-.03-.48-.69-.59-1.08-.96-3.43-4.19-5.36-7.42-4.4-3.13,.93-4.78,4.51-3.63,7.86,.19,.55,.77,1.17-.29,1.5-.87,.27-1.56,.33-1.96-.74-.35-.96-.56-1.91-.51-2.93,.05-3.45,1.92-5.78,4.81-7.32,2.66-1.41,5.34-1.23,7.83,.53m-2.15,8.52c-.93,.46-1.89,.88-2.79,1.4-1.13,.64-2,.28-2.72-.63-1.07-1.36-1.06-2.85-.39-4.35,.65-1.44,1.76-2.27,3.42-2.2,1.64-.12,2.76,.75,3.58,2.03,.96,1.48,.48,2.97-1.11,3.76m-2,13.52c-1.09,.05-1.29-.74-1.36-1.61-.1-1.36,.99-1.32,1.81-1.48,.93-.18,.8,.58,.86,1.12-.07,.92-.02,1.92-1.31,1.98m5.65-.02c0,.83-.45,1.26-1.24,1.32-.75,.05-1.28-.36-1.32-1.07-.08-1.3-.17-2.64,0-3.92,.14-1.04,1.28-1.31,2.1-1.7,.41-.19,.44,.33,.45,.63,.02,.81,0,1.63,0,2.44,0,.77,0,1.54,0,2.3m4.39-2.31c0,1.04,0,2.09,0,3.13,0,.78-.33,1.33-1.19,1.35-.87,.02-1.41-.43-1.42-1.3-.04-2.13-.04-4.26,0-6.39,.02-.99,.81-.91,1.5-.93,.71-.02,1.13,.25,1.12,1.02,0,1.04,0,2.08,0,3.13m4.12,3.65c0,.69-.13,1.33-1,1.32-.74-.01-1.18-.46-1.18-1.21-.01-2.31,0-4.62,0-6.93,0-.69,.38-.95,1.04-.96,.7-.01,1.15,.22,1.15,.99,0,1.22,0,2.45,0,3.67h0c0,1.04,0,2.08,0,3.13m4.31-.14c0,.93-.42,1.49-1.36,1.48-.94,0-1.04-.7-1.03-1.43,0-1.09,0-2.18,0-3.27,0-1.09,.03-2.18,0-3.27-.03-.9,.41-1.18,1.25-1.17,.8,0,1.16,.3,1.15,1.12-.02,2.18-.01,4.35,0,6.53m4.36-.31c0,.88-.5,1.32-1.38,1.3-.83-.02-1.24-.5-1.25-1.29-.02-1.09,0-2.17,0-3.26h-.01c0-.99,.02-1.99,0-2.99-.02-.83,.37-1.12,1.16-1.11,.78,.02,1.5,.06,1.5,1.1,0,2.08,.01,4.16,0,6.24m4.4-3.43c-.06,.25,0,.54,0,.81h-.04c0,.68,.05,1.36-.01,2.03-.06,.68-.49,1.06-1.19,1.04-.68-.02-1.15-.39-1.17-1.07-.05-1.67-.05-3.34-.04-5.01,0-.7,.37-.71,.89-.41,1.02,.58,1.94,1.2,1.57,2.62m3.17,2.59c-1.26,0-1.27-.87-1.26-1.87,.11-.43-.28-1.37,.79-1.2,.75,.12,1.91-.02,1.82,1.28-.05,.83-.1,1.78-1.35,1.79m7.82-6.03c-.76,1.09-1.86,1.56-3.14,1.64-2.79,.16-5.44-.31-7.8-1.9-2.11-1.42-4.38-2.03-6.94-1.95-3.58,.12-7.17,.09-10.76,0-2.26-.05-4.31,.45-6.18,1.73-2.42,1.65-5.1,2.31-8.01,2.11-1.26-.09-2.42-.46-3.22-1.52-.99-1.32-.69-2.6,.75-3.42,.96-.54,2.01-.48,3.27-.48,1.71,.15,3.51-.35,5.11-1.35,3.59-2.26,7.45-3.07,11.67-2.77,2.98,.21,5.99,0,8.98-.02,.78,0,1.53,.14,2.24,.47,1.31,.62,2.67,1.16,3.93,1.88,2.27,1.28,4.62,2.07,7.27,1.81,.74-.08,1.44,.14,2.08,.52,1.26,.75,1.57,2.04,.73,3.25m-11.51-9.37c-.05-2.18,1.81-3.97,4.13-3.93,1.71,.03,2.9,.78,3.45,2.35,.56,1.58,.5,3.13-.7,4.46-.61,.67-1.34,.92-2.2,.5-1.26-.61-2.52-1.23-3.79-1.84-.65-.31-.88-.84-.9-1.54m11.46,3.34c-.28,.59-.63,.75-1.3,.61-1.01-.22-1.31-.5-.86-1.62,1.27-3.16-.44-6.97-3.37-7.84-3.51-1.05-6.85,.95-7.62,4.56-.09,.4-.06,.91-.61,.9-.58,0-1.26-.06-1.58-.63-.88-1.59-2.22-2.74-3.6-3.86-.49-.4-.79-.88-.54-1.55,.27-.7,.75-1.12,1.53-1.13,1.26-.02,2.4,.45,3.56,.83,.87,.28,1.63,.27,2.43-.3,2.6-1.86,5.36-1.86,8.09-.37,2.89,1.58,4.42,4.08,4.62,7.06-.02,1.39-.3,2.38-.75,3.34m2.99-24.65c-.01-.47-.47-1.19,.35-1.38,.87-.19,1.72,0,2.38,.67,.47,.48,.59,1.04,.22,1.61-.41,.65-.89,1.26-1.35,1.87-1.03,1.37-1.15,2.81-.39,4.34,.6,1.22,1.22,2.44,1.17,3.86-.03,1.17-.54,2.03-1.69,2.35-1.22,.34-2.47,.59-3.7,.87-.39,.09-.73-.04-1.02-.27-2.97-2.35-6.64-2.79-10.13-3.69-2.23-.57-4.48-1.02-7-1.58,1.71-1.14,3.15-2.14,4.05-3.74,.45-.79,.73-.09,.93,.25,2.13,3.6,7.51,4.74,11.53,2.92,3.09-1.4,4.75-4.32,4.64-8.1m-14.86,3.14c4.56,3.85,8.66,3.11,12.47-1.23-.04,2.61-2.15,4.57-5.11,5-3.3,.49-6.42-1.05-7.36-3.78m3.54-4.49c.57-1.65,2.61-3.02,4.46-3.04,1.89-.02,3.77,1.21,4.48,2.98,.15,.37,.56,.9-.04,1.18-.58,.27-.86-.2-1.11-.69-1.02-2.02-2.51-2.76-4.37-2.19-1.12,.34-1.9,1.05-2.21,2.19-.16,.58-.47,.94-1.05,.72-.64-.23-.29-.77-.16-1.15m5.76,3.27c-1.39,2.28-5.1,2.34-7.38,0h7.38Zm-12.29-5.93c1.02-.69,2.19-.69,3.21,0,1.04,.7,1.29,1.82,1.16,3.02-.07,.59-.46,.86-1.04,.86-.59,0-1.18,0-1.77,0v.02c-.18,0-.36,.02-.54,0-.79-.1-1.86,.38-2.12-.88-.25-1.21,.08-2.31,1.11-3.01m-12.98,2.51c.6-1.88,2.76-3.43,4.77-3.44,2.23-.01,4.3,1.48,4.92,3.57,.12,.39,.5,.92-.14,1.17-.63,.24-1-.11-1.19-.74-.48-1.57-1.48-2.57-3.19-2.7-1.89-.15-3.18,.71-3.77,2.58-.18,.6-.38,1.06-1.08,.88-.83-.22-.49-.83-.33-1.32m9.02,3.11c-1.85,2.36-6.48,2.47-7.79,.34,2.55-.55,5.1-.31,7.79-.34m-10.58,.8c3.53,3.97,8.95,4.08,12.6,.29,.39-.4,.72-1.39,1.41-.88,.5,.38-.01,1.18-.27,1.74-1.14,2.52-3.82,3.98-8.14,3.98-2.18-.07-4.86-.98-6.42-3.97-.19-.36-.31-.75-.43-1.14-.08-.26-.15-.55,.17-.71,.24-.12,.44,.02,.61,.17,.17,.15,.31,.33,.46,.5m-5.89-5.22c.6-1.39,2.18-2.03,3.63-1.46,1.28,.5,2.01,2.14,1.59,3.51-.15,.48-.47,.63-.9,.63-.63,.01-1.26,0-1.89,0v.02h-.68c-1.95,0-2.52-.89-1.74-2.7m.98,6.11c-.68,2.52-3.74,4.05-6.95,3.66-2.89-.35-5.4-2.32-5.22-5.02,3.74,4.08,7.74,4.57,12.17,1.36m-2.7-1.68c.27,0,.59,.01,.68,.32,.09,.31-.2,.47-.41,.63-1.87,1.42-5.24,1.07-7.03-.95,2.44,0,4.6,0,6.76,0m-9.7-2.81c.51-1.7,2.74-3.22,4.66-3.16,1.97,.06,3.97,1.52,4.45,3.25,.04,.13,.07,.26,.11,.4-.04,.59-.42,.66-.86,.49-.18-.07-.32-.3-.43-.49-2.11-3.49-4.8-3.5-6.77,0-.24,.43-.51,.66-.96,.45-.44-.2-.3-.59-.2-.94m-5.11,.61c.52-.74,1.37-.83,2.2-.8,.59,.02,.69,.39,.69,.92,0,3.59,.8,6.86,4.39,8.5,3.57,1.62,7.06,1.33,10.25-1.13,.7-.54,1.18-1.25,1.64-1.98,.23-.37,.55-.6,.81-.09,.84,1.63,2.27,2.66,4.11,3.82-2.62,.58-4.82,1.04-7.01,1.57-3.6,.87-7.33,1.42-10.38,3.81-.36,.28-.75,.25-1.17,.15-.97-.23-1.96-.4-2.92-.66-1.86-.5-2.49-1.53-2.15-3.45,.18-.99,.57-1.92,1.06-2.79,.94-1.67,.75-3.21-.45-4.66-.29-.35-.55-.72-.82-1.08-.49-.66-.8-1.39-.27-2.13"/>
      <path class="cls-3" d="M163.5,191.06c-11.4,0-22.8,0-34.2,0-.45,0-.91,0-1.36-.01-.65,0-.97-.34-1.06-.99-.28-1.99-.34-3.98-.31-5.98,.01-.7,.28-1.09,1-1.21,3.33-.51,5.1-3.53,3.02-7.17-2.08-3.62-4.29-7.17-6.42-10.77-.41-.69-.85-.82-1.56-.5-1.37,.61-2.81,1.05-4.27,1.38-4.21,.95-8.19,.59-11.84-1.99-1.18-.84-1.73-1.75-1.72-3.26,.06-10.58,.03-21.17,.03-31.76,0-.46-.01-.91-.02-1.36,0-.61-.31-.89-.91-.95-1.18-.13-1.55,.24-1.55,1.75,0,10.18-.14,20.36,.08,30.53,.06,3.09-1.3,4.69-3.72,5.94-1.1,.57-2.21,1.04-3.43,1.28-3.81,.78-7.4-.05-10.9-1.46-.8-.32-1.39-.44-1.92,.48-2.1,3.61-4.34,7.15-6.37,10.8-1.89,3.4-.68,6.07,3.05,7,.83,.21,1.09,.6,1.11,1.41,.06,1.65-.19,3.26-.32,4.89-.15,1.87-.26,1.94-2.15,1.94-11.13,0-22.25,0-33.38,0-.45,0-.91,.01-1.36,.02-.6,.01-.88,.31-.94,.92-.13,1.24,.16,1.54,1.71,1.54,11.13,0,22.26,0,33.38,0,1.99,0,1.98,0,1.49,1.98-.57,2.29-1.41,4.51-1.86,6.83-1.4,7.31,1.6,12.9,8.47,15.75,2.62,1.09,5.34,1.76,8.13,2.19,1.34,.21,2.7,.38,4.04,.57,1.88,.27,3.2,1.47,4.45,2.73,.82,.83,.41,2,.42,3.01,.03,5.77,.02,11.54,.02,17.31,0,6.27,0,12.54,0,18.81,0,.7-.13,1.51,.93,1.68,1.19,.19,1.55-.17,1.55-1.68,0-12.32,0-24.63,0-36.94,0-2.47,1.14-3.99,3.55-4.7,.43-.13,.88-.23,1.33-.29,2.92-.42,5.86-.75,8.69-1.62,3.67-1.12,7.08-2.7,9.44-5.86,2.96-3.97,2.75-8.4,1.61-12.91-.39-1.54-.91-3.04-1.33-4.58-.62-2.28-.6-2.3,1.72-2.3,10.94,0,21.89,0,32.84,0,.45,0,.91-.02,1.36,0,.95,.02,1.26-.5,1.24-1.39-.03-1.3-.98-1.08-1.76-1.08m-39.8,22.84c-2.33,1.76-5.01,2.74-7.83,3.32-2.17,.45-4.37,.77-6.57,1.08-1.95,.28-3.67,1.02-5.08,2.39-.61,.6-1.15,.66-1.75,.05-1.87-1.91-4.28-2.42-6.81-2.69-3.9-.43-7.71-1.22-11.18-3.17-.59-.33-1.15-.73-1.7-1.12-.24-.17-.66-.32-.51-.7,.12-.31,.53-.32,.84-.35,6.94-.72,13.81-2.19,20.79-1.59,6.64-.53,13.08,.63,19.55,1.52,.34,.05,.84-.1,.95,.34,.11,.46-.37,.68-.68,.92m-37.19-11.38c0-1.77,.03-3.54,0-5.31-.02-.98,.48-1.23,1.36-1.24,.9,0,1.34,.3,1.33,1.26-.03,3.27,0,6.53-.02,9.8,0,.86-1.35,1.9-2.19,1.76-.62-.1-.46-.6-.46-.97-.02-1.77-.01-3.54-.01-5.31m10.9,3.7c.02,1.01-.27,1.46-1.38,1.49-4.37,.1-4.37,.14-4.37-4.22,0-2.81,.05-5.63-.02-8.44-.03-1.21,.51-1.78,1.61-1.94,.53-.08,1.08-.12,1.62-.1,2.12,.07,2.52,.48,2.52,2.58,0,1.63,0,3.27,0,4.9,0,1.91-.03,3.81,.01,5.72m9.8,.9h-.23c0-1.77,.02-3.56,0-5.32-.03-2.08-1.52-3.62-3.44-3.61-1.87,.02-3.28,1.52-3.34,3.55-.04,1.27-.06,5.38-.06,5.38h-.24c0-4.53,0-9.06,0-13.59,0-.74,.35-1.08,1.08-1.08,1.63,0,3.27,.03,4.9-.02,1.01-.03,1.34,.43,1.34,1.4-.03,4.4,0,8.89,0,13.29m-2.49-1.32c.02,.72-.28,1.08-1.04,1.07-.72,0-1.11-.28-1.1-1.03,0-1.35,0-2.7,.01-4.05,0-.6,.24-1.08,.92-1.1,.7-.02,1.11,.39,1.16,1.06l.04,4.05Zm10.91-5.17c0,1.95-.02,3.9,0,5.84,.01,.86-.32,1.25-1.2,1.22-1.22-.03-2.44-.02-3.66,0-.74,0-1.07-.32-1.07-1.06,.01-3.98,0-7.97,.01-11.96,0-.14,0-.28,.05-.4,.28-.98,1.87-1.5,3.85-1.21,1.07,.16,2.06,.43,2.03,1.87-.04,1.9-.01,3.81-.01,5.71m5.15,6.59c-.02,.51,.33,1.29-.57,1.44-.87,.14-2.03-.72-2.05-1.53-.04-1.72-.02-3.45-.02-5.18,0-1.54,.03-3.09,0-4.63-.03-1.02,.42-1.35,1.39-1.35,.93,0,1.31,.38,1.29,1.31-.03,1.72,0,3.45,0,5.17,0,1.59,.03,3.18-.02,4.77m6.5,1.76c-.36,1.53-1.23,1.6-2.5,1.43-1.26-.16-1.77-.63-1.74-1.99,.08-4.4,0-8.81,.05-13.22,.02-1.32-.44-1.83-1.73-1.69-.58,.06-1.18-.01-1.77,.01-.72,.03-1.15-.24-1.68-.82-1.79-1.97-4.16-2.45-6.73-2.03-.66,.11-1.28,.46-1.72-.45-.17-.37-.74-.25-1.14-.25-3.18,0-6.35,0-9.53,0-.27,0-.69-.07-.79,.08-.88,1.23-2.03,.46-3.07,.49-2.27,.05-4.44,.39-5.79,2.55-.27,.43-.67,.42-1.07,.42-.86,.01-1.73,.05-2.58,0-1.05-.06-1.47,.36-1.45,1.43,.05,2.32,.02,4.63,.02,6.95h0c0,2.32-.03,4.63,.02,6.95,.02,1.04-.44,1.45-1.42,1.58-2.75,.35-2.97,.15-3.49-2.62-.52-2.79,.11-5.42,.91-8.03,1.59-5.23,2.84-10.52,2.64-16.05-.01-.32-.01-.64-.04-.95q-.23-2.29-2.52-2.35c-2.12-.06-2.98-1.39-1.92-3.29,1.74-3.13,3.66-6.17,5.48-9.26,.48-.81,1.06-.46,1.65-.27,3.24,1.06,6.53,1.55,9.92,.97,2.71-.46,5.11-1.59,7.17-3.38,.65-.56,1.1-.6,1.74-.06,4.79,4.07,10.24,4.41,16.03,2.81,2.83-.78,2.04-1.16,3.63,1.42,1.55,2.51,3.04,5.06,4.52,7.61,.45,.78,.94,1.64,.28,2.54-.64,.88-1.63,.91-2.59,.87-1.74-.06-1.79,0-1.96,1.82-.6,6.29,.9,12.26,2.71,18.18,.86,2.82,1.17,5.66,.49,8.59"/>
      <path class="cls-3" d="M42.08,146.97c0,1.74,.13,1.87,1.85,1.87,2.82,0,5.63-.02,8.44-.01,.35,0,.82-.15,1.01,.2,.23,.43-.24,.73-.44,1.06-.55,.89-1.31,.35-1.96,.21-3.32-.71-3.31-.72-4.02,2.62-.73,3.42-1.28,3.22,2.55,3.99,.93,.19,1.32,.64,1.68,1.6,.78,2.05,.03,3.22-1.61,4.2-.31,.18-.58,.44-.87,.66-.48,.36-.58,.77-.17,1.27,1.03,1.27,2.06,2.54,3.07,3.82,.43,.54,.85,.59,1.38,.15,.66-.55,1.35-1.07,2.01-1.63,.62-.53,1.22-.74,1.93-.15,.27,.23,.62,.44,.96,.5,1.37,.24,1.64,1.08,1.62,2.35-.05,3.22-.35,2.92,2.9,2.92q3.57,.01,3.7-3.64c.02-.55,0-1.04,.62-1.38,2.67-1.45,2.67-1.47,5.1,.44,.25,.2,.52,.37,.76,.58,.54,.47,.95,.35,1.37-.18,.95-1.22,1.93-2.41,2.89-3.62,.48-.61,.43-1.15-.21-1.64-.72-.55-1.42-1.14-2.15-1.67-.59-.44-.62-.91-.52-1.64,.26-2.04,1.23-3.19,3.34-3.27,.35-.01,.7-.17,1.05-.26,.66-.17,.87-.58,.71-1.23-.35-1.5-.7-3.01-1.04-4.51-.18-.81-.67-.98-1.42-.77-.87,.24-1.76,.44-2.65,.6-1.06,.2-1.66-.65-1.71-1.36-.07-.88,.91-.42,1.38-.43,2.72-.07,5.45-.09,8.17-.03,1.32,.03,1.78-.49,1.73-1.77-.07-1.86-.02-3.72-.02-5.59,0-3.4,0-6.81-.01-10.22,0-.56,.07-1.43-.91-.91-1.41,.75-1.45,0-1.51-1.1-.23-4.53-.55-9.06-.78-13.59-.05-.96-.46-1.26-1.35-1.25-1.59,.03-3.18,.06-4.77-.01-1.16-.05-1.57,.38-1.63,1.56-.24,5.02-.58,10.05-.91,15.49-.24-2.13-1.12-1.07-1.71-.73-.8,.46-1.07,.41-1.12-.6-.24-4.76-.56-9.51-.79-14.27-.05-1.02-.38-1.51-1.45-1.45-1,.05-2-.02-3,.01-3.57,.1-3.17-.8-3.47,3.38-.4,5.56-.63,11.13-.94,16.7-.06,.01-.13,.02-.19,.03,0-.58,.04-1.17,0-1.75-.07-.84,.42-2-.3-2.44-.75-.46-1.52,.51-2.25,.91-1.46,.8-1.67,.69-1.76-.96-.26-4.89-.55-9.78-.81-14.67-.04-.86-.41-1.22-1.26-1.21-1.63,.02-3.27,.05-4.9-.01-1.08-.04-1.51,.31-1.57,1.46-.39,6.88-.87,13.76-1.26,20.64-.06,1.09-.4,1.83-1.42,2.21-1.1,.42-1.42,1.23-1.38,2.37,.07,2.04,.01,4.09,.02,6.13m32.46,5.28c1.83-.45,1.89-.36,2.27,1.38,.18,.85-.14,1.26-.89,1.31-2.3,.17-3.73,1.12-3.52,3.67,.02,.17-.08,.35-.13,.52q-.74,2.45,1.34,4.08c1.12,.88,.91,2.48-.39,3.02-.31,.13-.53-.01-.75-.17-.29-.21-.57-.44-.86-.67-.69-.52-1.3-1.27-2.07-1.5-.83-.24-1.25,.87-1.97,1.23-.74,.38-1.5,.68-2.31,.78-.8,.1-1.09,.53-1.07,1.28,.02,.68-.04,1.36,0,2.04,.07,1.05-.4,1.4-1.43,1.48-1.13,.1-1.65-.18-1.53-1.36,.04-.36-.03-.73,.01-1.09,.17-1.45-.09-2.46-1.9-2.49-.92-.01-1.74-.6-2.27-1.37-.58-.85-1.08-.75-1.73-.12-.49,.47-1.06,.85-1.59,1.29-.7,.58-1.25,1.07-2.08-.01-.8-1.05-.81-1.72,.31-2.39,.15-.09,.29-.22,.43-.33q1.72-1.36,.93-3.37c-.31-.78-.45-1.6-.31-2.41,.19-1.09-.32-1.47-1.28-1.61-.76-.12-1.51-.31-2.26-.51-1.14-.3-.76-1.12-.62-1.87,.15-.8,.49-1.32,1.37-.95,2.25,.93,3.89,.58,4.95-1.86,.66-1.52,2.09-1.67,3.78-1.28-5.66,3.9-4.78,10.09-1.95,12.99,3.41,3.5,8.95,3.21,12.17-.59,3.31-3.91,2.15-8.93-2.9-12.6,2.35-.52,3.29-.1,4.79,2.15q1.24,1.85,3.45,1.31m-11.73-2.17c3.59,0,6.29,2.74,6.25,6.32-.04,3.5-2.77,6.11-6.33,6.07-3.35-.04-6.14-2.81-6.1-6.07,.03-3.49,2.8-6.32,6.18-6.32m10.68-17.34c.27-5.07,.53-10.14,.83-15.21,.09-1.58,.41-1.67,2.85-1.64,1.35,.02,1.36,.8,1.41,1.79,.22,4.3,.47,8.6,.76,12.9,.06,.88-.12,1.46-.94,1.88-1.25,.64-2.44,1.4-3.67,2.09-1.18,.66-1.28,.6-1.29-.71,0-.36,0-.73,0-1.09h.05m-11.47-15.7c.05-.81,.43-1.08,1.2-1.14,2.67-.2,2.97,.06,3.09,2.68,.17,3.62,.38,7.25,.59,11.24,.86,1.89-.54,2.84-2.27,3.66-.94,.44-1.81,1.03-2.72,1.56-.55,.32-.95,.39-.9-.48,.34-5.84,.69-11.68,1.01-17.52m-14.18,.11c.08-1.55,1.16-1.17,1.98-1.24,2.09,0,2.21,.14,2.32,2.13,.24,4.52,.5,9.05,.79,13.57,.06,.93-.18,1.53-1.05,1.97-1.45,.74-2.85,1.59-4.26,2.41-.64,.38-.89,.25-.84-.52,.37-6.11,.74-12.21,1.06-18.32m.09,20.88c2.69-1.13,5.11-2.92,7.67-4.39,1.42-.82,1.43-.79,1.44,.79,0,1.36,.03,2.72,0,4.08-.03,1.14,.34,1.4,1.34,.82,3.25-1.9,6.52-3.78,9.78-5.65,.38-.22,.77-.71,1.19-.5,.46,.23,.21,.82,.22,1.25,.03,1.27,0,2.54,.02,3.81,.02,1.29,.2,1.39,1.31,.75,3.15-1.8,6.3-3.59,9.42-5.44,.95-.56,1.29-.57,1.27,.69-.06,3.63-.05,7.26,0,10.89,.02,1.12-.36,1.52-1.49,1.5-3.9-.05-7.8-.02-13.65-.02-5.58-.18-13.1,.4-20.63,.27-1.78-.03-1.58-.05-1.85-1.84-.52-3.47,.64-5.62,3.97-7.02"/>
      <path class="cls-3" d="M90.58,254.75c-3.57-2.73-7.06-5.56-10.62-8.32-.7-.55-1.1-1.13-1.06-2.05,.08-1.58-.37-3.06-1.09-4.45-.86-1.69-2.02-3.09-3.72-4.04-1.66-.93-3.19-2.1-5.21-2.22-.43-.02-.67-.57-.95-.93-2.52-3.28-5.04-6.55-7.56-9.82-.56-.72-1.05-1.46-1.3-2.36-.23-.84-.69-1.67-1.52-2.02-2.11-.88-2.68-2.99-3.78-4.63-.6-.89,.65-1.19,1.16-1.69,.26-.25,.5-.25,.73,.14,.75,1.23,1.97,1.4,2.82,.23,1.8-2.5,4.15-4.27,7.01-5.34,.35-.13,.79-.47,1.13-.06,.25,.31-.03,.7-.17,1.02-.68,1.59-1.27,3.22-1.59,4.92-.55,2.95-.19,5.78,1.29,8.44,.3,.54,.66,1.06,1.33,1,.77-.07,1.02,.41,1.32,.94,1.43,2.51,3.1,4.83,5.5,6.5,3.11,2.17,5.26,4.96,6.09,8.71,.14,.62,.43,1.27,1.22,1.28,.81,.01,1.21-.55,1.42-1.25,.25-.83,.44-1.67,.71-2.69,1.75,2.53,2.93,5.06,3.69,7.8,.14,.5,.3,.98,1.01,.78,.66-.19,.68-.68,.53-1.19-.98-3.5-2.56-6.69-4.83-9.54-.38-.47-.87-.68-1.45-.47-.59,.2-.81,.69-.82,1.28-.01,.73,0,1.46,0,2.19-1.39-3.34-3.47-5.94-6.35-7.97-2.53-1.79-4.36-4.22-5.72-7-.41-.84-.79-1.66-1.96-1.54-.5,.05-.68-.4-.82-.78-.28-.77-.53-1.54-.66-2.35-.55-3.52,.8-6.6,2.17-9.68,.31-.7,.89-1.36,.23-2.12-.62-.72-1.41-.42-2.16-.22-3.66,.99-6.71,2.92-9.04,5.95-.97-1.47-1.5-1.6-2.92-.7-.45,.29-.9,.59-1.3,.95-.61,.55-1.05,.51-1.49-.23-.44-.74-.98-1.42-1.46-2.13-2.07-3.05-2.05-3.04-5.01-.81-.67,.5-.71,.92-.25,1.58,1.15,1.64,2.22,3.32,3.38,4.95,.57,.79,.66,1.47,.2,2.38-1.22,2.38-1.71,5.06-1.75,7.73-.05,3.39,.29,6.72,1.32,10.13-.95-.09-1.71-.28-2.15,.56-.39,.76,.13,1.3,.5,1.85,1.92,2.89,3.13,6.01,3.45,9.5,.1,1.14,.11,2.26-.04,3.39-.08,.59,.06,1.12,.78,1.18,.71,.06,.77-.49,.83-1,.02-.13,.02-.27,.03-.41,.29-4.19-.54-8.13-2.63-11.79-.27-.47-.71-.88,.27-1.16,1.02-.29,1.01-1.16,.7-2.02-1.38-3.84-1.53-7.82-1.33-11.83,.08-1.64,.41-3.25,1.13-4.74,.15-.3,.37-1.04,.79-.48,.77,1.03,1.92,1.95,1.9,3.35-.02,1.28,.59,2.1,1.51,2.79,.42,.31,.78,.68,1.06,1.12,2.93,4.55,5.86,9.1,8.81,13.64,.39,.59,.37,1.33,.05,1.95-.59,1.13-.76,2.38-.48,3.62,.49,2.11-.45,3.6-1.92,4.91-4.54,4.01-9.21,7.85-14.46,10.91-.54,.31-.57,1.06-.06,1.42,.28,.2,.66,.2,.95,0,1.96-1.31,3.8-2.53,5.63-3.78,1.86-1.28,3.69-2.63,5.33-4.19,.79-.75,1.25-.81,1.71,.23,1.12,2.53,2.77,4.69,4.97,6.39,.64,.5,.78,.93,.16,1.54-.27,.26-.52,.56-.75,.86-.14,.18-.19,.42-.15,.64,.13,.64,.93,.87,1.37,.39,.69-.75,1.38-1.51,2.06-2.27,.15-.17,.39-.43,.34-.55-.4-1.07,.38-1.58,.99-2.14,.68-.62,.96-1.19,.08-1.87-.48-.37-.43-.83-.19-1.34,.36-.75,.79-1.4,1.59-1.79,1.11-.55,2.02-1.37,2.75-2.39,1.16-1.63,.9-1.14,3.03,1.41,2.07,2.47,3.97,5.08,5.87,7.68,.69,.95,1.26,.93,2.23,.08,1.46-1.27,2.98-2.48,4.65-3.46,1.79-1.05,2.21-1.46,.96-2.42m-36.34-35.05c-.65,.25-.74-.59-1.09-.75-.95-.43-1.53-1.41-1.9-2.39-.66-1.74-1.76-3.18-2.78-4.66-.28-.4-.24-.75,.17-1.05,.69-.49,1.39-.38,1.54,2.32,.15,2.57,2.08,4.4,4.5,5.29,.21,.08,.22,.32,.27,.48-.07,.44-.38,.63-.72,.76m22.47,22.52c-.17-.2-.43-.38-.49-.61-.44-1.64-1.86-2.3-3.17-2.91-.94-.44-1.21-1.07-1.31-1.95,2.81,.77,4.44,2.63,4.98,5.48m-15.78-10.76c-1.45-2.24-2.89-4.48-4.32-6.74-.22-.35-.72-.74-.24-1.18,.42-.39,.95-.67,1.33-.93,.52,.04,.68,.34,.86,.58,1.86,2.44,3.71,4.9,5.59,7.33,.6,.77,.32,1.14-.42,1.55-1.75,.98-1.74,1.02-2.8-.62m2.47,3.86c-.36-.51-.19-1.14,.37-1.42,.43-.22,.84-.46,1.25-.7,.61-.38,1.12-.3,1.49,.33,.71,1.21,1.72,1.95,3.21,2.09-1.41,.62-1.97,1.89-2.63,3.05-.5,.89-.89,1.05-1.48,.06-.69-1.17-1.45-2.3-2.22-3.41m2.86,23.53c-2.24-1.76-3.7-4.08-4.65-6.75-.17-.48,.1-.79,.5-.99,.41-.2,.59,.11,.73,.39,1.17,2.26,2.78,4.14,4.78,5.69,.2,.16,.33,.41,.43,.55,0,.83-1.23,1.56-1.8,1.1m8.85-14.15c-.86,1.09-1.29,2.33-1.56,3.7-.36,1.84-1.56,3.19-3.22,3.99-.97,.46-1.63,1.07-2.02,2.05-.11,.27-.2,.63-.68,.64-.17-.14-.39-.3-.57-.49-.9-.9-1.63-1.94-2.33-3-.78-1.17-1.26-2.24-.08-3.52,.62-.67,.46-1.71,.45-2.62-.01-.91-.08-1.82-.01-2.72,.04-.56,.1-1.36,1.01-.48,.61,.59,.9-.13,1.05-.54,.49-1.3,1.47-2.28,2.1-3.48,.14-.27,.29-.62,.67-.58,.47,.05,.48,.49,.56,.83,.11,.44,.16,.89,.24,1.33,.08,.45,.31,.86,.79,.76,2.22-.49,2.79,1.37,3.77,2.61,.36,.47,.22,1.04-.15,1.51m12.8,11.8c-1.13,.77-2.26,1.54-3.32,2.4-1.12,.91-1.29-.36-3.27-3.94-1.28-2.31-3.17-4.19-5.25-5.83-.48-.38-.72-.84-.68-1.39,.02-.68,.31-1.27,.85-1.63,.61-.4,.99,.22,1.39,.53,3.43,2.68,6.82,5.41,10.29,8.04,1.03,.78,.87,1.21,0,1.81"/>
      <path class="cls-3" d="M103.47,170.49c-4.4,.06-7.73,3.43-7.74,7.82,0,4.42,3.45,7.9,7.82,7.88,4.18-.02,7.78-3.67,7.77-7.9,0-4.21-3.67-7.86-7.85-7.8m-.02,13.23c-2.97,0-5.37-2.35-5.43-5.34-.06-2.89,2.52-5.48,5.47-5.5,2.93-.02,5.35,2.42,5.37,5.39,.01,3.1-2.31,5.44-5.4,5.45"/>
      <path class="cls-3" d="M163.24,205.58c-.37-.19-.82-.05-1.01,.31-3.03,5.75-8.35,12.52-13.05,18.48-1.11,1.42-2.18,2.77-3.16,4.04-3.5,1.34-6.4,4.11-7.95,7.5-.02-.2-.06-.39-.09-.59,.2-1.32,.46-2.68,.79-4.15,6.91-2.09,5.62-11.22,4.97-15.68-.03-.22-.17-.42-.36-.54-.2-.11-.43-.13-.65-.05l-.09,.04c-2.92,1.17-5.19,3.66-6.24,6.85-1.02,3.14-.69,6.43,.91,9.08-.07,.33-.15,.66-.21,.98-1.51-3.94-4.47-7.32-8.29-9.17-.26-.12-.56-.09-.78,.08-.22,.17-.33,.46-.28,.73,1.01,5.24,3,12.2,8.51,13.53-.36,3.44-.25,6.82,.4,11.41,.05,.37,.37,.64,.74,.64,.03,0,.07,0,.1,0,.41-.06,.69-.44,.64-.85-.36-2.53-.55-4.67-.58-6.67,.02,0,.04,.01,.05,.01h0c7.55-.03,11.02-9.07,12.16-12.96,0-.01,0-.02,.01-.03,.06-.23,0-.48-.15-.66-.16-.2-.42-.3-.67-.26-.18,.02-.35,.07-.52,.1,.62-.79,1.26-1.61,1.92-2.45,4.73-6.01,10.1-12.83,13.19-18.71,.19-.37,.05-.82-.31-1.01m-25.4,16.68c.81-2.46,2.45-4.45,4.58-5.56,.71,5.45,.69,10.91-3.23,12.75,.24-1,.5-2.05,.79-3.18,.1-.4-.14-.81-.54-.91-.4-.11-.81,.14-.91,.54-.24,.93-.46,1.8-.66,2.64-.7-1.95-.73-4.16-.03-6.29m-8.28,2.55c3.08,1.94,5.38,5.01,6.46,8.48-.55-.8-1.15-1.57-1.81-2.28-.28-.3-.76-.32-1.06-.04-.3,.28-.32,.76-.04,1.06,.88,.95,1.63,2.01,2.3,3.12-3.34-1.64-4.94-6.26-5.85-10.34m9.98,15c1.01-1.07,2.18-2.12,3.58-2.94,.36-.21,.48-.67,.27-1.02-.21-.36-.67-.48-1.02-.27-1.4,.82-2.57,1.84-3.59,2.88,1.16-4.38,4.78-8.03,9.21-9.1-1.17,3.49-3.76,9.18-8.44,10.45"/>
      <path class="cls-3" d="M159.96,232.72l-11.94,11.68c-.32-1.09-.92-2.08-1.78-2.93-.3-.29-.77-.29-1.06,.01-.29,.3-.29,.77,.01,1.06,1.29,1.26,1.82,2.93,1.53,4.81-.59,3.84-4.31,7.92-9.68,10.63-1.73,.76-3.67,1.15-5.5,1.46-1.02,.17-2.02,.32-2.99,.4-.14-.27-.3-.5-.46-.7-.17-.22-.32-.4-.38-.6-.13-.43-.1-.77,.09-1.09,.69-1.14,3.28-1.62,4.14-1.78,.3-.06,.64-.12,.97-.25,.41-.16,.74-.4,1.04-.62,.21-.16,.42-.31,.63-.41,.56-.26,1.17-.41,1.79-.44,.1,0,.3-.02,.51-.13,.24-.13,.35-.32,.42-.43,.36-.61,.96-1.06,1.65-1.24,.4-.1,.64-.51,.54-.91-.1-.4-.51-.64-.91-.54-.99,.26-1.87,.89-2.46,1.77-.74,.05-1.48,.25-2.16,.57-.33,.16-.62,.37-.87,.55-.25,.18-.48,.34-.71,.44-.2,.08-.44,.12-.7,.17-1.91,.36-4.22,.96-5.14,2.48-.41,.67-.49,1.47-.24,2.29,.12,.38,.32,.67,.51,.92-.57-.01-1.13-.07-1.66-.18-.28-.06-.54-.14-.76-.24-.25-.11-.33-.21-.34-.24,0,0-.02-.06,.03-.23,.1-.33,.35-.61,.65-.95,.14-.16,.28-.33,.41-.5,.02-.02,.03-.04,.05-.07,.02-.02,.04-.05,.06-.07,.01-.02,.01-.03,.02-.05,.05-.07,.13-.13,.15-.23,.41-1.53,2.25-2.56,4.03-3.57,1.33-.75,2.71-1.53,3.59-2.56,.27-.31,.23-.79-.08-1.05-.31-.27-.79-.23-1.05,.08-.71,.83-1.91,1.51-3.19,2.23-1.72,.97-3.47,1.97-4.34,3.52-.06-.06-.1-.11-.13-.13-.24-.32-.4-.68-.46-1.03-.07-.47,.07-.84,.45-1.17,.29-.24,.62-.45,.97-.66,.3-.18,.6-.37,.88-.58l.58-.43c.44-.33,.88-.67,1.35-.99,.92-.62,1.87-1.27,2.71-2.09,1.48-1.44,2.41-3.38,2.68-5.61,.03-.27-.08-.54-.3-.69-.22-.16-.51-.19-.75-.08-.75,.35-2.25,.64-3.09,.62-.23-.02-.45,.1-.6,.27-.15,.18-.2,.42-.15,.65,.36,1.57-.85,2.59-1.24,2.86-.73,.52-1.59,.76-2.24,.65,.07-.26,.14-.52,.21-.77,1.3-4.74,1.89-6.9,7.24-8.77,.39-.13,.6-.56,.46-.95-.14-.39-.56-.6-.95-.46-6.1,2.12-6.84,4.84-8.19,9.78-.12,.45-.25,.92-.39,1.42-.09,.32,.04,.67,.33,.84,1.19,.73,2.96,.51,4.41-.54,1.25-.91,1.94-2.18,1.92-3.54,.52-.05,1.09-.16,1.62-.29-.35,1.38-1.03,2.56-2.01,3.51-.76,.73-1.65,1.34-2.51,1.93-.49,.33-.95,.68-1.41,1.03l-.57,.43c-.25,.18-.51,.34-.77,.5-.38,.24-.77,.48-1.14,.79-.79,.66-1.12,1.54-.97,2.53,.09,.6,.35,1.19,.75,1.71,0,0,.21,.27,.49,.55-.35,.39-.73,.84-.92,1.45-.13,.41-.13,.79-.03,1.13,.16,.48,.54,.87,1.15,1.15,.32,.15,.68,.26,1.07,.35,.76,.16,1.54,.23,2.34,.23,1.5,0,3.05-.23,4.64-.5,1.93-.32,3.97-.74,5.88-1.58,5.83-2.95,9.86-7.45,10.53-11.76,.07-.46,.09-.91,.08-1.36,.01-.01,.02-.01,.03-.02l12.68-12.41c.3-.29,.3-.76,.01-1.06-.29-.3-.76-.3-1.06-.01"/>
      <path class="cls-3" d="M115.02,119.53h.02c1.26,0,2.04,1,2.94,2.15,1.03,1.32,2.19,2.81,4.3,2.81h.03c2.19-.02,3.14-1.65,3.89-2.96,.77-1.34,1.26-2.09,2.41-2.1,1.28,.01,2.05,.99,2.95,2.15,1.03,1.33,2.19,2.8,4.33,2.82,2.19-.02,3.13-1.65,3.89-2.96,.77-1.34,1.26-2.09,2.41-2.1h.02c1.26,0,2.04,1,2.94,2.15,1.03,1.33,2.21,2.85,4.33,2.82,2.19-.02,3.14-1.65,3.89-2.96,.77-1.34,1.26-2.09,2.41-2.1,.48,0,.86-.39,.86-.87,0-.47-.39-.86-.86-.86h0c-2.19,.02-3.14,1.65-3.89,2.96-.77,1.33-1.26,2.09-2.41,2.1-1.27,.04-2.05-.99-2.96-2.15-1.03-1.32-2.19-2.81-4.3-2.81h-.03c-2.19,.02-3.14,1.65-3.89,2.96-.77,1.33-1.26,2.09-2.41,2.1h-.02c-1.26,0-2.04-1-2.94-2.15-1.03-1.33-2.22-2.8-4.33-2.82-2.19,.02-3.14,1.65-3.89,2.96-.77,1.34-1.26,2.09-2.41,2.1h-.02c-1.26,0-2.04-1-2.93-2.15-1.04-1.33-2.2-2.85-4.33-2.82-.48,0-.86,.39-.86,.87,0,.47,.39,.86,.86,.86"/>
      <path class="cls-3" d="M115.02,127.42h.02c1.26,0,2.04,1,2.94,2.15,1.03,1.32,2.19,2.82,4.3,2.82h.03c2.19-.02,3.14-1.65,3.89-2.96,.77-1.34,1.26-2.09,2.41-2.1h.02c1.26,0,2.04,1,2.94,2.15,1.03,1.32,2.19,2.82,4.3,2.82h.03c2.19-.02,3.14-1.65,3.9-2.96,.77-1.33,1.26-2.09,2.41-2.1h.02c1.26,0,2.04,1,2.94,2.15,1.03,1.32,2.19,2.82,4.3,2.82h.03c2.19-.02,3.14-1.65,3.89-2.96,.77-1.33,1.26-2.09,2.41-2.1,.48,0,.86-.39,.86-.87,0-.47-.37-.83-.87-.86-2.19,.02-3.14,1.65-3.89,2.96-.77,1.33-1.26,2.09-2.41,2.1h-.02c-1.26,0-2.04-.99-2.94-2.15-1.03-1.32-2.19-2.82-4.3-2.82h-.03c-2.19,.02-3.14,1.65-3.89,2.96-.77,1.33-1.26,2.09-2.41,2.1h-.02c-1.26,0-2.04-1-2.94-2.15-1.03-1.32-2.2-2.81-4.3-2.81h-.03c-2.19,.02-3.14,1.65-3.89,2.96-.77,1.33-1.26,2.09-2.41,2.1h-.02c-1.26,0-2.04-1-2.94-2.15-1.03-1.32-2.2-2.82-4.3-2.82h-.03c-.48,0-.86,.39-.86,.87,0,.47,.39,.86,.86,.86"/>
      <path class="cls-3" d="M115.02,135.69h.02c1.26,0,2.04,1,2.94,2.15,1.03,1.32,2.19,2.81,4.3,2.81h.03c2.19-.02,3.14-1.65,3.89-2.96,.77-1.34,1.26-2.09,2.41-2.1,1.28,.02,2.05,.99,2.95,2.15,1.03,1.33,2.19,2.81,4.33,2.82,2.19-.02,3.13-1.65,3.89-2.96,.77-1.34,1.26-2.09,2.41-2.1h.02c1.26,0,2.04,1,2.94,2.15,1.03,1.33,2.21,2.85,4.33,2.82,2.19-.02,3.14-1.65,3.89-2.96,.77-1.34,1.26-2.09,2.41-2.1,.48,0,.86-.39,.86-.87,0-.47-.39-.86-.86-.86h0c-2.19,.02-3.14,1.65-3.89,2.96-.77,1.33-1.26,2.09-2.41,2.1-1.27,.05-2.05-.99-2.96-2.15-1.03-1.32-2.19-2.81-4.3-2.81h-.03c-2.19,.02-3.14,1.65-3.89,2.96-.77,1.33-1.26,2.09-2.41,2.1h-.02c-1.26,0-2.04-1-2.94-2.15-1.03-1.33-2.22-2.8-4.33-2.82-2.19,.02-3.14,1.65-3.89,2.96-.77,1.34-1.26,2.09-2.41,2.1h-.02c-1.26,0-2.04-1-2.93-2.15-1.03-1.32-2.2-2.82-4.3-2.82h-.03c-.48,0-.86,.39-.86,.87,0,.47,.39,.86,.86,.86"/>
      <path class="cls-3" d="M115.02,144.6h.02c1.26,0,2.04,1,2.94,2.15,1.03,1.32,2.19,2.82,4.3,2.82h.03c2.19-.02,3.14-1.65,3.89-2.96,.77-1.34,1.26-2.09,2.41-2.1h.02c1.26,0,2.04,1,2.94,2.15,1.03,1.32,2.19,2.82,4.3,2.82h.03c2.19-.02,3.14-1.65,3.9-2.96,.77-1.34,1.26-2.09,2.41-2.1,1.3-.02,2.05,.99,2.96,2.15,1.03,1.32,2.19,2.82,4.3,2.82h.03c2.19-.02,3.14-1.65,3.89-2.96,.77-1.33,1.26-2.09,2.41-2.1,.48,0,.86-.4,.86-.87,0-.47-.39-.86-.86-.86h0c-2.19,.02-3.14,1.65-3.89,2.96-.77,1.33-1.26,2.09-2.41,2.1-1.27,.02-2.05-.99-2.96-2.15-1.03-1.33-2.21-2.85-4.33-2.81-2.19,.02-3.14,1.65-3.89,2.96-.77,1.33-1.26,2.09-2.41,2.1-1.28,.03-2.05-.99-2.95-2.15-1.03-1.33-2.21-2.85-4.33-2.81-2.19,.02-3.14,1.65-3.89,2.96-.77,1.33-1.26,2.09-2.41,2.1-1.29-.02-2.05-.99-2.95-2.15-1.03-1.32-2.2-2.82-4.3-2.82h-.03c-.48,0-.86,.39-.86,.87,0,.47,.39,.86,.86,.86"/>
      <path class="cls-3" d="M115.02,153.51h0c1.27-.03,2.05,.99,2.96,2.15,1.03,1.32,2.19,2.82,4.3,2.82h.03c2.19-.02,3.14-1.65,3.89-2.96,.77-1.33,1.26-2.09,2.41-2.1h.02c1.26,0,2.04,1,2.94,2.15,1.03,1.32,2.19,2.81,4.3,2.81h.03c2.19-.02,3.14-1.65,3.9-2.96,.77-1.34,1.26-2.09,2.41-2.1h.02c1.26,0,2.04,1,2.94,2.15,1.03,1.32,2.19,2.82,4.3,2.82h.03c2.19-.02,3.14-1.65,3.89-2.96,.77-1.34,1.26-2.09,2.41-2.1,.48,0,.86-.39,.86-.87,0-.47-.39-.86-.86-.86h0c-2.19,.02-3.14,1.65-3.89,2.96-.77,1.33-1.26,2.09-2.41,2.1h-.02c-1.26,0-2.04-1-2.94-2.15-1.03-1.32-2.19-2.82-4.3-2.82h-.03c-2.19,.02-3.14,1.65-3.89,2.97-.77,1.33-1.26,2.09-2.41,2.1-1.28,0-2.05-.99-2.95-2.15-1.03-1.32-2.2-2.82-4.3-2.82h-.03c-2.19,.02-3.14,1.65-3.89,2.96-.77,1.34-1.26,2.09-2.41,2.1h-.02c-1.26,0-2.04-1-2.94-2.15-1.04-1.33-2.2-2.84-4.33-2.82-.48,0-.86,.39-.86,.87,0,.47,.39,.86,.86,.86"/>
      <path class="cls-3" d="M166.73,112.04c-.48,0-.86,.39-.86,.86v3.69l-2.88-4.18s-.04-.03-.05-.05c-.04-.05-.08-.09-.13-.12-.04-.03-.08-.06-.13-.09-.05-.03-.1-.04-.15-.06-.06-.02-.12-.03-.18-.04-.02,0-.05-.01-.07-.01-.03,0-.05,.01-.08,.02-.06,0-.12,.02-.17,.04-.06,.02-.11,.04-.16,.07-.03,.02-.05,.02-.08,.03-.02,.01-.03,.04-.05,.05-.05,.04-.08,.08-.12,.13-.03,.04-.06,.08-.09,.13-.03,.05-.04,.1-.06,.15-.02,.06-.03,.11-.04,.17,0,.03-.02,.05-.02,.08v46.59c0,.48,.39,.86,.87,.86s.86-.39,.86-.86v-5.74l2.7,3.91s.02,.02,.03,.03v1.8c0,.48,.39,.86,.86,.86s.87-.39,.87-.86v-46.59c0-.48-.39-.86-.87-.86m-3.45,26.18l2.59-3.76v7.52l-2.59-3.76Zm-.14-2.85v-6.99l2.41,3.49-2.41,3.49Zm.14-9.84l2.59-3.76v7.52l-2.59-3.76Zm-.14-2.85v-6.99l2.41,3.5-2.41,3.49Zm0,18.39l2.41,3.49-2.41,3.49v-6.99Zm.14,9.84l2.59-3.76v7.52l-2.59-3.76Z"/>
      <path class="cls-4" d="M234.83,57.28h41.05c22.73,0,38.16,10.33,38.16,33.75v.96c0,24.79-16.94,34.44-38.16,34.44h-13.64v27.27h-27.41V57.28Zm38.43,44.77c8.68,0,13.64-2.48,13.64-10.06v-.41c0-7.16-4.82-9.5-13.64-9.5h-11.02v19.97h11.02Z"/>
      <path class="cls-4" d="M320.51,121.75V57.28h27.41v58.41c0,8.13,5.37,13.22,14.33,13.22h.41c9.78,0,14.46-4.96,14.46-13.22V57.28h27.41V121.61c0,21.63-15.15,33.61-41.46,33.61h-.41c-27,0-42.15-11.99-42.15-33.47"/>
      <polygon class="cls-4" points="414.45 57.28 485.81 57.28 485.81 82.08 441.86 82.08 441.86 95.44 484.57 95.44 484.57 115 441.86 115 441.86 128.91 485.67 128.91 485.67 153.71 414.45 153.71 414.45 57.28"/>
      <path class="cls-4" d="M494.35,57.29h46.42c19.97,0,30.3,8.54,30.3,23.55,0,12.67-7.44,20.39-18.46,22.04v.69c11.43,1.24,22.45,7.58,22.45,24.11s-11.71,26.04-35.54,26.04h-45.18V57.29Zm39.81,39.12c5.92,0,8.82-2.48,8.82-7.72,0-4.96-2.89-7.16-9.37-7.16h-11.84v14.88h12.4Zm.96,33.06c7.71,0,11.16-1.93,11.16-7.71s-3.3-8.13-10.33-8.13h-14.19v15.84h13.36Z"/>
      <polygon class="cls-4" points="582.92 57.28 610.34 57.28 610.34 128.91 651.52 128.91 651.52 153.71 582.92 153.71 582.92 57.28"/>
      <path class="cls-4" d="M687.61,57.28h32.92l34.02,96.42h-28.93l-6.34-18.87h-32.51l-5.92,18.87h-28.79l35.54-96.42Zm26.59,56.61l-11.16-34.85-10.88,34.85h22.04Z"/>
      <path class="cls-3" d="M246.92,245.87v-.1c0-1.69-.96-3.18-3.48-3.18h-.2c-2.09,0-3.58,1.03-3.94,3.85l-4.34-.56c.56-4.87,3.51-6.96,8.35-6.96h.3c5.4,0,7.96,2.75,7.96,6.66v.1c0,7.06-9.15,9.41-11.54,13.23h11.27v3.75h-16.54v-1.69c0-7.66,12.17-9.38,12.17-15.08"/>
      <path class="cls-3" d="M297.64,251.37v-.4c0-7.82,4.21-11.96,9.64-11.96h.23c5.2,0,9.41,4.01,9.41,11.93v.4c0,7.69-3.98,11.73-9.58,11.73h-.23c-5.27,0-9.48-3.94-9.48-11.7m14.68-.23v-.33c0-4.47-1.99-7.62-5.01-7.62h-.23c-2.95,0-5.07,2.92-5.07,7.73v.33c0,4.61,2.02,7.66,5.07,7.66h.23c3.02,0,5.01-2.92,5.01-7.76"/>
      <path class="cls-3" d="M374.91,245.87v-.1c0-1.69-.96-3.18-3.48-3.18h-.2c-2.09,0-3.58,1.03-3.94,3.85l-4.34-.56c.56-4.87,3.51-6.96,8.35-6.96h.3c5.4,0,7.96,2.75,7.96,6.66v.1c0,7.06-9.15,9.41-11.54,13.23h11.27v3.75h-16.54v-1.69c0-7.66,12.17-9.38,12.17-15.08"/>
      <path class="cls-3" d="M435,257.5h-11.01v-3.52l10.57-14.55h4.87v14.39h2.75v3.68h-2.92v5.14h-4.28v-5.14Zm.23-3.65v-9.15l-6.8,9.15h6.8Z"/>
      <rect class="cls-3" x="488.44" y="252.17" width="7.96" height="2.52"/>
      <path class="cls-3" d="M555.53,245.87v-.1c0-1.69-.96-3.18-3.48-3.18h-.2c-2.09,0-3.58,1.03-3.94,3.85l-4.34-.56c.56-4.87,3.51-6.96,8.35-6.96h.3c5.4,0,7.96,2.75,7.96,6.66v.1c0,7.06-9.15,9.41-11.54,13.23h11.27v3.75h-16.54v-1.69c0-7.66,12.17-9.38,12.17-15.08"/>
      <path class="cls-3" d="M606.25,251.37v-.4c0-7.82,4.21-11.96,9.64-11.96h.23c5.2,0,9.41,4.01,9.41,11.93v.4c0,7.69-3.98,11.73-9.58,11.73h-.23c-5.27,0-9.48-3.94-9.48-11.7m14.68-.23v-.33c0-4.47-1.99-7.62-5.01-7.62h-.23c-2.95,0-5.07,2.92-5.07,7.73v.33c0,4.61,2.02,7.66,5.07,7.66h.23c3.02,0,5.01-2.92,5.01-7.76"/>
      <path class="cls-3" d="M671.29,256.34l4.41-.86c.46,2.98,2.22,4.04,4.47,4.04h.07c2.12,0,4.01-1.19,4.01-3.71v-.17c0-2.65-1.49-3.61-5.07-3.61h-1.06v-2.65l.7-.03c3.11-.03,4.87-1.23,4.87-3.48v-.1c0-1.69-.96-3.18-3.28-3.18h-.16c-2.09,0-3.65,.96-4.05,3.65l-4.44-.7c.66-4.67,4.21-6.63,8.52-6.63h.23c4.81,0,7.62,2.75,7.62,6.16v.1c0,2.68-1.36,4.38-3.74,5.24v.07c3.08,.56,4.57,2.42,4.57,5.7v.1c0,4.41-3.75,6.89-8.78,6.89h-.07c-4.97,0-8.29-2.35-8.82-6.83"/>
      <path class="cls-3" d="M734.87,251.37v-.4c0-7.82,4.21-11.96,9.64-11.96h.23c5.2,0,9.41,4.01,9.41,11.93v.4c0,7.69-3.98,11.73-9.58,11.73h-.23c-5.27,0-9.48-3.94-9.48-11.7m14.68-.23v-.33c0-4.47-1.99-7.62-5.01-7.62h-.23c-2.95,0-5.07,2.92-5.07,7.73v.33c0,4.61,2.02,7.66,5.07,7.66h.23c3.02,0,5.01-2.92,5.01-7.76"/>
      <path class="cls-3" d="M234.56,187.61v-.41c0-12.76,4.93-20.41,17.51-20.41,10.32,0,15.31,5.04,16.12,14.21l-7.89,1.45c-.64-6.44-3.54-8.29-8.12-8.29h-.23c-6.38,0-9.39,4-9.39,13.68v.23c0,9.39,2.43,13.68,9.22,13.68h.23c4.99,0,8.06-2.61,8.47-9.34h-7.6v-4.64h15.65v20.53h-6.96v-5.57c-1.97,4.58-5.74,6.49-11.02,6.49h-.17c-11.77,0-15.83-8.41-15.83-21.63m17.57-20.82h0Z"/>
      <path class="cls-3" d="M272.19,194.63v-.64c0-9.28,5.8-15.6,15.89-15.6h.7c9.86,0,15.08,6.15,15.08,14.96v.52c0,8.7-5.16,15.36-15.71,15.36h-.52c-10.38,0-15.42-6.15-15.42-14.61m24.24-.81v-.41c0-4.87-2.38-8.7-8.06-8.7h-.52c-5.74,0-8.52,3.71-8.52,8.93v.47c0,4.93,2.43,8.76,8.29,8.76h.29c6.15,0,8.52-4.12,8.52-9.05"/>
      <path class="cls-3" d="M315.5,203.9v4.41h-7.6v-41.17h7.6v16.58c2.15-3.3,5.74-5.33,10.09-5.33h.64c6.96,0,12.23,5.91,12.23,14.67v.58c0,10.61-5.1,15.6-12.7,15.6h-.46c-5.1,0-8.06-2.26-9.8-5.33m15.48-10.21v-.41c0-5.04-2.55-8.52-7.42-8.52h-.29c-4.7,0-7.31,3.6-7.77,6.84v4.29c.52,3.77,3.25,6.67,7.48,6.67h.41c5.22,0,7.6-3.36,7.6-8.87"/>
      <path class="cls-3" d="M341.82,167.66c0-2.67,2.09-4.52,4.52-4.52s4.46,2.03,4.46,4.52-2.03,4.52-4.46,4.52-4.52-2.03-4.52-4.52m.64,11.65h7.6v28.99h-7.6v-28.99Z"/>
      <path class="cls-3" d="M354.17,193.87v-.64c0-8.29,4.99-14.9,14.73-14.9h.41c9.39,0,14.84,5.28,15.02,14.09l.06,2.73h-23.37c.58,5.45,3.77,8.12,8.41,8.12h.23c3.59,0,6.61-1.62,7.36-5.1l6.55,2.55c-1.85,5.39-6.55,8.52-13.92,8.52h-.29c-9.16,0-15.19-5.28-15.19-15.37m22.84-2.84v-.64c-.06-4.23-2.73-6.84-7.42-6.84h-.29c-5.05,0-7.83,2.67-8.35,7.48h16.06Z"/>
      <path class="cls-3" d="M388.03,179.32h7.6v5.51c1.85-3.6,5.57-5.51,10.32-5.51h1.16v7.07h-2.43c-5.05,0-7.83,1.74-9.05,5.91v16h-7.6v-28.99Z"/>
      <path class="cls-3" d="M424.5,185.58c-3.88,0-6.44,1.97-7.77,5.51v17.22h-7.6v-28.99h7.6v4.46c2.26-3.48,5.86-5.39,10.73-5.39,7.13,0,10.84,3.77,10.84,10.78v19.13h-7.65v-16.99c0-3.77-2.2-5.74-6.15-5.74"/>
      <path class="cls-3" d="M442.36,194.63v-.64c0-9.28,5.8-15.6,15.89-15.6h.7c9.86,0,15.08,6.15,15.08,14.96v.52c0,8.7-5.16,15.36-15.71,15.36h-.52c-10.38,0-15.42-6.15-15.42-14.61m24.24-.81v-.41c0-4.87-2.38-8.7-8.06-8.7h-.52c-5.74,0-8.52,3.71-8.52,8.93v.47c0,4.93,2.43,8.76,8.29,8.76h.29c6.15,0,8.52-4.12,8.52-9.05"/>
      <path class="cls-3" d="M508.11,203.9c-1.74,3.07-4.52,5.33-9.62,5.33h-.46c-7.59,0-12.81-4.99-12.81-15.6v-.58c0-8.99,5.51-14.67,12.76-14.67h.64c4.35,0,7.42,2.03,9.51,5.33v-16.58h7.6v41.17h-7.6v-4.41Zm0-8v-3.94c-.29-3.25-2.78-7.19-7.48-7.19h-.35c-4.87,0-7.6,3.25-7.6,8.41v.41c0,5.62,2.49,8.99,7.71,8.99h.41c4.23,0,6.84-2.9,7.31-6.67"/>
      <path class="cls-3" d="M519.77,193.87v-.64c0-8.29,4.99-14.9,14.73-14.9h.41c9.39,0,14.84,5.28,15.02,14.09l.06,2.73h-23.37c.58,5.45,3.77,8.12,8.41,8.12h.23c3.6,0,6.61-1.62,7.36-5.1l6.55,2.55c-1.85,5.39-6.55,8.52-13.92,8.52h-.29c-9.16,0-15.19-5.28-15.19-15.37m22.84-2.84v-.64c-.06-4.23-2.73-6.84-7.42-6.84h-.29c-5.05,0-7.83,2.67-8.35,7.48h16.06Z"/>
      <rect class="cls-3" x="553.63" y="167.14" width="7.6" height="41.17"/>
      <path class="cls-3" d="M605.46,201.06l7.19-.75c.93,2.61,4,3.71,8.12,3.71h.29c5.39,0,6.78-1.91,6.78-4.12v-.06c0-6.61-21.57-1.62-21.57-12.7v-.35c0-5.62,5.57-8.41,13.51-8.41h.41c7.02,0,12.58,2.55,13.45,9.22l-6.61,.52c-.64-4.12-4.06-5.1-7.25-5.1h-.29c-4.35,0-6.2,1.51-6.2,3.65v.06c0,5.68,21.05,1.16,21.05,13.22v.17c0,5.68-3.71,9.1-13.57,9.1h-.23c-9.33,0-14.09-3.02-15.07-8.18"/>
      <path class="cls-3" d="M641.07,198.63v-13.51h-6.2v-5.8h6.44v-11.6h7.36v11.6h6.32v5.8h-6.32v12.35c0,3.25,.75,4.58,3.3,4.58h2.09v6.26h-3.19c-6.73,0-9.8-2.9-9.8-9.68"/>
      <path class="cls-3" d="M677.25,202.28c-1.68,4-6.2,6.9-10.96,6.9h-.46c-6.09,0-10.15-3.02-10.15-8.29v-.29c0-6.03,4.41-8.29,12.7-9.34l8.58-.93v-.41c.06-3.77-2.26-5.97-6.15-5.97h-.35c-3.25,0-6.09,1.22-6.78,5.04l-6.73-1.39c1.45-6.38,7.13-9.22,13.74-9.22h.52c8.7,0,13.33,3.71,13.33,11.13v18.79h-7.3v-6.03Zm-.46-8.35l-6.49,.75c-5.04,.64-7.02,2.09-7.02,4.76v.35c0,1.97,1.74,3.94,4.81,3.94h.52c4,0,7.65-3.48,8.18-9.8"/>
      <path class="cls-3" d="M711.51,203.9c-1.74,3.07-4.52,5.33-9.62,5.33h-.46c-7.6,0-12.81-4.99-12.81-15.6v-.58c0-8.99,5.51-14.67,12.76-14.67h.64c4.35,0,7.42,2.03,9.51,5.33v-16.58h7.59v41.17h-7.59v-4.41Zm0-8v-3.94c-.29-3.25-2.78-7.19-7.48-7.19h-.35c-4.87,0-7.6,3.25-7.6,8.41v.41c0,5.62,2.49,8.99,7.71,8.99h.41c4.23,0,6.84-2.9,7.31-6.67"/>
      <path class="cls-3" d="M723.17,194.63v-.64c0-9.28,5.8-15.6,15.89-15.6h.7c9.86,0,15.08,6.15,15.08,14.96v.52c0,8.7-5.16,15.36-15.71,15.36h-.52c-10.38,0-15.42-6.15-15.42-14.61m24.24-.81v-.41c0-4.87-2.38-8.7-8.06-8.7h-.52c-5.74,0-8.52,3.71-8.52,8.93v.47c0,4.93,2.43,8.76,8.29,8.76h.29c6.15,0,8.52-4.12,8.52-9.05"/>
      <polygon class="cls-3" points="577.18 168.3 603.58 168.3 603.58 175.22 584.84 175.22 584.84 185.22 602.84 185.22 602.84 190.82 584.84 190.82 584.84 201.39 603.64 201.39 603.64 208.31 577.18 208.31 577.18 168.3"/>
    </g>
  </g>
</svg>