<?xml version="1.0" encoding="utf-8"?>
<!-- Generator: Adobe Illustrator 26.5.0, SVG Export Plug-In . SVG Version: 6.00 Build 0)  -->
<svg version="1.1" id="Capa_1" xmlns="http://www.w3.org/2000/svg" xmlns:xlink="http://www.w3.org/1999/xlink" x="0px" y="0px"
	 viewBox="0 0 220 77.8" style="enable-background:new 0 0 220 77.8;" xml:space="preserve">
<style type="text/css">
	.st0{fill:none;}
	.st1{clip-path:url(#SVGID_00000049903870850152960480000008822720000198709423_);}
	.st2{fill:url(#SVGID_00000128466062342608854910000013085187087053821063_);}
	.st3{clip-path:url(#SVGID_00000023276396012107832810000010631170944337430968_);}
	.st4{fill:url(#SVGID_00000028302790304559233920000003635792578150324379_);}
	.st5{clip-path:url(#SVGID_00000005955776235936863980000010811583530895699861_);}
	.st6{fill:url(#SVGID_00000090984579645675279680000000297448296596595864_);}
	.st7{clip-path:url(#SVGID_00000109717101859249841020000015884819865085816737_);}
	.st8{fill:url(#SVGID_00000146501246494926464260000011995858226058471062_);}
	.st9{clip-path:url(#SVGID_00000060014007348191462460000012142842853242338961_);}
	.st10{fill:url(#SVGID_00000003794599274402427670000009846130061782475441_);}
	.st11{clip-path:url(#SVGID_00000060011909386173523990000018244214216890261666_);}
	.st12{fill:url(#SVGID_00000020383146983474185630000017961740088210473903_);}
	.st13{clip-path:url(#SVGID_00000173153938244138898240000010753414254523469703_);}
	.st14{fill:url(#SVGID_00000143595181187329764680000015927561257646734239_);}
	.st15{clip-path:url(#SVGID_00000090287745957009435310000016426494437584452778_);}
	.st16{fill:url(#SVGID_00000072965053939144691100000015567975593140171145_);}
</style>
<rect x="-14.6" y="-10.8" class="st0" width="250" height="138.2"/>
<g>
	<defs>
		<rect id="SVGID_1_" x="117.3" y="44.1" width="7" height="5.6"/>
	</defs>
	<clipPath id="SVGID_00000183927389642092787520000016923073776163531952_">
		<use xlink:href="#SVGID_1_"  style="overflow:visible;"/>
	</clipPath>
	<g style="clip-path:url(#SVGID_00000183927389642092787520000016923073776163531952_);">
		
			<linearGradient id="SVGID_00000090266156780733084320000011626060358853956233_" gradientUnits="userSpaceOnUse" x1="-1005.5424" y1="371.0421" x2="-1005.1024" y2="371.0421" gradientTransform="matrix(374.4 0 0 -374.4 376529.5312 138965.0469)">
			<stop  offset="0" style="stop-color:#955B4D"/>
			<stop  offset="0.24" style="stop-color:#8C5249"/>
			<stop  offset="0.64" style="stop-color:#743A3F"/>
			<stop  offset="1" style="stop-color:#581E34"/>
		</linearGradient>
		
			<rect x="117.3" y="44.1" style="fill:url(#SVGID_00000090266156780733084320000011626060358853956233_);" width="7" height="5.6"/>
	</g>
</g>
<g>
	<defs>
		<path id="SVGID_00000015331315513648569480000013777473247208220094_" d="M42.6,21.5v12.8l3.8,2.3v41.1h4.8V16.5L42.6,21.5z
			 M14.6,5.1v24.8l2.9,1.7v46.2H8.8V26.5l-8.7,5v46.3h37.7V31.6l-8.7,5.1v41.1h-5.7V0L14.6,5.1z"/>
	</defs>
	<clipPath id="SVGID_00000035532959432381889560000014345370019382850471_">
		<use xlink:href="#SVGID_00000015331315513648569480000013777473247208220094_"  style="overflow:visible;"/>
	</clipPath>
	<g style="clip-path:url(#SVGID_00000035532959432381889560000014345370019382850471_);">
		
			<linearGradient id="SVGID_00000114767593153673816130000000828227565312222365_" gradientUnits="userSpaceOnUse" x1="-999.4672" y1="367.9818" x2="-999.0273" y2="367.9818" gradientTransform="matrix(115.94 0 0 -115.94 115878.625 42702.6797)">
			<stop  offset="0" style="stop-color:#581E34"/>
			<stop  offset="0.24" style="stop-color:#612738"/>
			<stop  offset="0.64" style="stop-color:#793F42"/>
			<stop  offset="1" style="stop-color:#955B4D"/>
		</linearGradient>
		<rect x="0.1" style="fill:url(#SVGID_00000114767593153673816130000000828227565312222365_);" width="51.2" height="77.8"/>
	</g>
</g>
<rect x="-14.6" y="-10.8" class="st0" width="250" height="138.2"/>
<g>
	<defs>
		<path id="SVGID_00000107587816723235233440000016773799299240810687_" d="M98.3,58.1l3.1,6.2h7.5v-6.2H98.3z M90.4,44.1v33.7h22.6
			v-5.6H97.1V49.7h15.8v-5.6H90.4z"/>
	</defs>
	<clipPath id="SVGID_00000074400733309848547090000007115696621007867558_">
		<use xlink:href="#SVGID_00000107587816723235233440000016773799299240810687_"  style="overflow:visible;"/>
	</clipPath>
	<g style="clip-path:url(#SVGID_00000074400733309848547090000007115696621007867558_);">
		
			<linearGradient id="SVGID_00000154422625252016725650000016516507019330155679_" gradientUnits="userSpaceOnUse" x1="-1005.5424" y1="371.0894" x2="-1005.1024" y2="371.0894" gradientTransform="matrix(374.4 0 0 -374.4 376529.5312 138996.75)">
			<stop  offset="0" style="stop-color:#955B4D"/>
			<stop  offset="0.24" style="stop-color:#8C5249"/>
			<stop  offset="0.64" style="stop-color:#743A3F"/>
			<stop  offset="1" style="stop-color:#581E34"/>
		</linearGradient>
		
			<rect x="90.4" y="44.1" style="fill:url(#SVGID_00000154422625252016725650000016516507019330155679_);" width="22.6" height="33.7"/>
	</g>
</g>
<g>
	<defs>
		<rect id="SVGID_00000110440330895068087180000000040170389237384081_" x="117.3" y="55.3" width="7" height="22.4"/>
	</defs>
	<clipPath id="SVGID_00000170985690948141603850000012443613548000814488_">
		<use xlink:href="#SVGID_00000110440330895068087180000000040170389237384081_"  style="overflow:visible;"/>
	</clipPath>
	<g style="clip-path:url(#SVGID_00000170985690948141603850000012443613548000814488_);">
		
			<linearGradient id="SVGID_00000072241531120203846690000003169975887447236251_" gradientUnits="userSpaceOnUse" x1="-1005.5424" y1="371.1083" x2="-1005.1024" y2="371.1083" gradientTransform="matrix(374.4 0 0 -374.4 376529.5312 139009.4688)">
			<stop  offset="0" style="stop-color:#955B4D"/>
			<stop  offset="0.24" style="stop-color:#8C5249"/>
			<stop  offset="0.64" style="stop-color:#743A3F"/>
			<stop  offset="1" style="stop-color:#581E34"/>
		</linearGradient>
		
			<rect x="117.3" y="55.3" style="fill:url(#SVGID_00000072241531120203846690000003169975887447236251_);" width="7" height="22.4"/>
	</g>
</g>
<g>
	<defs>
		<path id="SVGID_00000133516928063065898830000015825957574178112948_" d="M138.6,45c-4.1,1.7-7.4,5.1-9.2,9.2
			c-3.7,8.7,0.4,18.9,9.1,22.6c2.1,0.9,4.4,1.4,6.8,1.4c2.3,0,4.5-0.4,6.6-1.3c2-0.9,3.8-2.1,5.3-3.7c1.5-1.6,2.7-3.4,3.5-5.5
			c0.8-2.1,1.3-4.3,1.3-6.5v-0.4c0-0.4,0-0.8,0-1.3s-0.1-1-0.1-1.4h-19.4l3.1,6.2h9.1c-0.3,1.1-0.7,2.2-1.4,3.2
			c-0.6,0.9-1.3,1.8-2.1,2.5c-0.8,0.7-1.7,1.3-2.7,1.6c-2.4,0.9-5,0.8-7.3-0.3c-1.2-0.6-2.3-1.4-3.3-2.4c-1.9-2.2-3-5-3-7.9
			c0-1.5,0.3-3,0.8-4.4c0.5-1.3,1.3-2.5,2.2-3.6c0.9-1,2-1.8,3.3-2.4c1.2-0.6,2.6-0.9,4-0.9c1.9,0,3.8,0.5,5.4,1.5
			c1.6,1,2.9,2.5,3.7,4.2l5.6-3.6c-1.5-2.4-3.6-4.5-6.1-5.9c-2.6-1.5-5.5-2.3-8.5-2.2C143,43.6,140.8,44.1,138.6,45"/>
	</defs>
	<clipPath id="SVGID_00000124160511791543355810000002613909818830914210_">
		<use xlink:href="#SVGID_00000133516928063065898830000015825957574178112948_"  style="overflow:visible;"/>
	</clipPath>
	<g style="clip-path:url(#SVGID_00000124160511791543355810000002613909818830914210_);">
		
			<linearGradient id="SVGID_00000082340116882463587270000017203185140012138425_" gradientUnits="userSpaceOnUse" x1="-1005.5424" y1="371.0893" x2="-1005.1024" y2="371.0893" gradientTransform="matrix(374.4 0 0 -374.4 376529.5312 138996.75)">
			<stop  offset="0" style="stop-color:#955B4D"/>
			<stop  offset="0.24" style="stop-color:#8C5249"/>
			<stop  offset="0.64" style="stop-color:#743A3F"/>
			<stop  offset="1" style="stop-color:#581E34"/>
		</linearGradient>
		
			<rect x="128.1" y="43.7" style="fill:url(#SVGID_00000082340116882463587270000017203185140012138425_);" width="34" height="34.5"/>
	</g>
</g>
<g>
	<defs>
		<path id="SVGID_00000079479324080898882990000009520059595327348891_" d="M173.9,58.1l3.1,6.2h7.5v-6.2H173.9z M166,44.1v33.7
			h22.6v-5.6h-15.8l0.1-22.5h15.8v-5.6H166z"/>
	</defs>
	<clipPath id="SVGID_00000159468175712917373690000010521127470387111323_">
		<use xlink:href="#SVGID_00000079479324080898882990000009520059595327348891_"  style="overflow:visible;"/>
	</clipPath>
	<g style="clip-path:url(#SVGID_00000159468175712917373690000010521127470387111323_);">
		
			<linearGradient id="SVGID_00000119108239680328486370000017573626887522289548_" gradientUnits="userSpaceOnUse" x1="-1005.5424" y1="371.0894" x2="-1005.1024" y2="371.0894" gradientTransform="matrix(374.4 0 0 -374.4 376529.5312 138996.75)">
			<stop  offset="0" style="stop-color:#955B4D"/>
			<stop  offset="0.24" style="stop-color:#8C5249"/>
			<stop  offset="0.64" style="stop-color:#743A3F"/>
			<stop  offset="1" style="stop-color:#581E34"/>
		</linearGradient>
		
			<rect x="165.9" y="44.1" style="fill:url(#SVGID_00000119108239680328486370000017573626887522289548_);" width="22.6" height="33.7"/>
	</g>
</g>
<g>
	<defs>
		<path id="SVGID_00000181080594209771773850000008097536597181813414_" d="M192.8,44.1v33.7h6.7V49.9h8.5c0.7,0,1.4,0.2,2,0.5
			c0.6,0.3,1.2,0.7,1.6,1.2c0.5,0.5,0.8,1.1,1.1,1.8c0.3,0.6,0.4,1.3,0.4,2c0,0.8-0.1,1.6-0.4,2.3c-0.2,0.7-0.6,1.3-1.1,1.8
			c-0.4,0.5-1,0.9-1.6,1.2c-0.6,0.3-1.3,0.4-2,0.4h-7.4l3.7,6.7h3.8c1.6,0,3.2-0.3,4.6-0.9c1.4-0.6,2.7-1.5,3.8-2.5
			c1.1-1.1,2-2.3,2.6-3.8c1.3-3,1.3-6.3,0-9.2c-0.6-1.4-1.5-2.7-2.6-3.7c-1.1-1.1-2.4-1.9-3.8-2.6c-1.5-0.6-3-0.9-4.6-0.9H192.8z"/>
	</defs>
	<clipPath id="SVGID_00000030469313122466778910000013038257772945424831_">
		<use xlink:href="#SVGID_00000181080594209771773850000008097536597181813414_"  style="overflow:visible;"/>
	</clipPath>
	<g style="clip-path:url(#SVGID_00000030469313122466778910000013038257772945424831_);">
		
			<linearGradient id="SVGID_00000088834008309871899950000010747868073352839048_" gradientUnits="userSpaceOnUse" x1="-1005.5424" y1="371.0894" x2="-1005.1024" y2="371.0894" gradientTransform="matrix(374.4 0 0 -374.4 376529.5312 138996.75)">
			<stop  offset="0" style="stop-color:#955B4D"/>
			<stop  offset="0.24" style="stop-color:#8C5249"/>
			<stop  offset="0.64" style="stop-color:#743A3F"/>
			<stop  offset="1" style="stop-color:#581E34"/>
		</linearGradient>
		
			<rect x="192.9" y="44.1" style="fill:url(#SVGID_00000088834008309871899950000010747868073352839048_);" width="27.1" height="33.7"/>
	</g>
</g>
<g>
	<defs>
		<path id="SVGID_00000099630124658529022460000003105314894857738129_" d="M65.1,45c-1.9,0.8-3.6,1.9-5.1,3.3v25.1
			c3.2,3,7.5,4.7,11.9,4.7c1.5,0,3-0.2,4.5-0.6c1.4-0.4,2.7-0.9,4-1.7c1.2-0.7,2.4-1.6,3.4-2.6c1-1,2-2.1,2.7-3.3l-5.6-3.6
			c-0.9,1.7-2.1,3.1-3.7,4.2c-1.6,1-3.4,1.6-5.3,1.6c-1.4,0-2.7-0.3-4-0.9c-1.2-0.6-2.3-1.4-3.3-2.4c-1.9-2.2-3-5-3-7.9
			c0-1.5,0.3-3,0.8-4.4c0.5-1.3,1.3-2.5,2.2-3.6c0.9-1,2-1.8,3.3-2.4c1.2-0.6,2.6-0.9,4-0.9c1.9,0,3.8,0.5,5.3,1.5
			c1.6,1,2.8,2.5,3.7,4.2l5.6-3.6c-0.8-1.2-1.7-2.3-2.7-3.3c-1-1-2.2-1.9-3.4-2.6c-1.3-0.7-2.6-1.3-4-1.7c-1.5-0.4-3-0.6-4.5-0.6
			C69.6,43.6,67.3,44.1,65.1,45"/>
	</defs>
	<clipPath id="SVGID_00000009564084211056370470000012190799502069725059_">
		<use xlink:href="#SVGID_00000099630124658529022460000003105314894857738129_"  style="overflow:visible;"/>
	</clipPath>
	<g style="clip-path:url(#SVGID_00000009564084211056370470000012190799502069725059_);">
		
			<linearGradient id="SVGID_00000183953438501150372860000010399402061666646699_" gradientUnits="userSpaceOnUse" x1="-1005.5424" y1="371.0893" x2="-1005.1024" y2="371.0893" gradientTransform="matrix(374.4 0 0 -374.4 376529.5312 138996.75)">
			<stop  offset="0" style="stop-color:#955B4D"/>
			<stop  offset="0.24" style="stop-color:#8C5249"/>
			<stop  offset="0.64" style="stop-color:#743A3F"/>
			<stop  offset="1" style="stop-color:#581E34"/>
		</linearGradient>
		
			<rect x="60" y="43.7" style="fill:url(#SVGID_00000183953438501150372860000010399402061666646699_);" width="26.5" height="34.5"/>
	</g>
</g>
</svg>
