<svg xmlns="http://www.w3.org/2000/svg" xmlns:xlink="http://www.w3.org/1999/xlink" viewBox="0 0 232.44 69.24"><defs><style>.cls-1{fill:none;}.cls-2{clip-path:url(#clip-path);}.cls-3{fill:#444242;}.cls-4{fill:#c07c6c;}.cls-5{fill:#d49581;}.cls-6{fill:#efd7d8;}.cls-7{fill:#f4e4e5;}.cls-8{fill:#bd8479;}.cls-9{fill:#b5786b;}.cls-10{fill:#945147;}</style><clipPath id="clip-path" transform="translate(-6.41 -3.13)"><rect class="cls-1" width="250" height="78.73"/></clipPath></defs><title>Recurso 1</title><g id="Capa_2" data-name="Capa 2"><g id="Capa_1-2" data-name="Capa 1"><g class="cls-2"><path class="cls-3" d="M125.38,61.58H135v-37h-9.62Zm-3-37H101.33v37h21.06V53.43H111V47.05h10.8V38.9H111V32.71h11.44Zm-24.7,2A25,25,0,0,0,92,24.29a23.68,23.68,0,0,0-5.74-.76,15.2,15.2,0,0,0-5.33.89,10.84,10.84,0,0,0-6.58,6.3,13.24,13.24,0,0,0-.91,5,10.56,10.56,0,0,0,.86,4.54,8.88,8.88,0,0,0,2.26,3,11.8,11.8,0,0,0,3.19,1.89c1.2.47,2.41.91,3.66,1.3,1,.36,1.94.69,2.67,1a7.5,7.5,0,0,1,1.8,1,3.21,3.21,0,0,1,1,1.13,3.39,3.39,0,0,1,.29,1.44A3.28,3.28,0,0,1,88,53.38a5,5,0,0,1-3.51,1.08,10.23,10.23,0,0,1-4.17-.93A16.64,16.64,0,0,1,76,50.68l-4.13,7.76a22.3,22.3,0,0,0,13,4.17,18.92,18.92,0,0,0,6.06-.91,13.06,13.06,0,0,0,4.52-2.55,10.79,10.79,0,0,0,2.8-4A13.24,13.24,0,0,0,99.21,50,10.35,10.35,0,0,0,97,43.19,14.83,14.83,0,0,0,90.13,39c-.78-.27-1.58-.51-2.38-.74a13.54,13.54,0,0,1-2.16-.81,5,5,0,0,1-1.54-1.11,2.25,2.25,0,0,1-.59-1.62,2.74,2.74,0,0,1,1.18-2.3,4.9,4.9,0,0,1,3-.89,8.34,8.34,0,0,1,3,.62A11.76,11.76,0,0,1,93.86,34Z" transform="translate(-6.41 -3.13)"/><path class="cls-3" d="M235.32,56.35v.73h0a1.7,1.7,0,0,1,.7-.66,2,2,0,0,1,.89-.21,2.54,2.54,0,0,1,.95.16,1.43,1.43,0,0,1,.58.43,1.83,1.83,0,0,1,.3.68,4.79,4.79,0,0,1,.08.88v3.22h-1.43V58.63a1.92,1.92,0,0,0-.2-1,.8.8,0,0,0-.72-.32,1,1,0,0,0-.85.35,2,2,0,0,0-.26,1.15v2.74H234V56.35Zm-6.71-2.7-1.07,1.79h1l1.65-1.79Zm-2.82,4.18a2.49,2.49,0,0,1,.55-.86,2.38,2.38,0,0,1,.85-.56,3.18,3.18,0,0,1,2.22,0,2.42,2.42,0,0,1,.86.56,2.62,2.62,0,0,1,.54.86A3.17,3.17,0,0,1,231,59a3.08,3.08,0,0,1-.19,1.13,2.31,2.31,0,0,1-1.4,1.42,3.34,3.34,0,0,1-2.22,0,2.5,2.5,0,0,1-.85-.55,2.44,2.44,0,0,1-.55-.87A3.3,3.3,0,0,1,225.6,59a3.41,3.41,0,0,1,.19-1.14m1.31,1.75a1.83,1.83,0,0,0,.2.54,1.18,1.18,0,0,0,.39.38,1.25,1.25,0,0,0,.61.14,1.28,1.28,0,0,0,.61-.14,1.18,1.18,0,0,0,.39-.38,1.6,1.6,0,0,0,.21-.54,3.08,3.08,0,0,0,.06-.61,3.26,3.26,0,0,0-.06-.62,1.47,1.47,0,0,0-.21-.53,1.12,1.12,0,0,0-1-.53,1.15,1.15,0,0,0-.61.15,1.18,1.18,0,0,0-.39.38,1.67,1.67,0,0,0-.2.53A3.26,3.26,0,0,0,227,59a3.08,3.08,0,0,0,.06.61m-4.49,2h-1.43V56.35h1.43Zm-1.43-7.21h1.43v1.18h-1.43Zm-5.37,2.92a1,1,0,0,0-.57.16,1.32,1.32,0,0,0-.38.4,1.74,1.74,0,0,0-.21.55,3,3,0,0,0-.06.59,2.93,2.93,0,0,0,.06.58,1.87,1.87,0,0,0,.2.53,1.15,1.15,0,0,0,.37.39,1,1,0,0,0,.56.15,1.07,1.07,0,0,0,.8-.29,1.34,1.34,0,0,0,.34-.77h1.39a2.4,2.4,0,0,1-.81,1.58,2.56,2.56,0,0,1-1.71.55,2.83,2.83,0,0,1-1.07-.2,2.32,2.32,0,0,1-.84-.55,2.67,2.67,0,0,1-.53-.84,2.92,2.92,0,0,1-.19-1.08,3.65,3.65,0,0,1,.17-1.12,2.66,2.66,0,0,1,.52-.9,2.29,2.29,0,0,1,.84-.59,2.71,2.71,0,0,1,1.13-.22,3,3,0,0,1,.9.13,2.59,2.59,0,0,1,.77.36,2.19,2.19,0,0,1,.55.62,2,2,0,0,1,.24.87h-1.41a1,1,0,0,0-1.06-.9m-7.06,2.27a2,2,0,0,1,0,.32,1.07,1.07,0,0,1-.14.4,1,1,0,0,1-.34.34,1.32,1.32,0,0,1-.66.14,1.84,1.84,0,0,1-.33,0,.78.78,0,0,1-.28-.11.64.64,0,0,1-.2-.2.81.81,0,0,1,0-.66.67.67,0,0,1,.19-.22.84.84,0,0,1,.27-.13,1.92,1.92,0,0,1,.32-.09l.35,0,.32-.05.3-.07a.54.54,0,0,0,.22-.13ZM206.88,58a.82.82,0,0,1,.28-.61,1.08,1.08,0,0,1,.66-.18,2,2,0,0,1,.36,0,1,1,0,0,1,.3.1.58.58,0,0,1,.2.21.79.79,0,0,1,.07.37.37.37,0,0,1-.13.34,1,1,0,0,1-.38.18,3.86,3.86,0,0,1-.56.09c-.21,0-.42,0-.63.08s-.43.08-.64.13a2,2,0,0,0-.57.26,1.27,1.27,0,0,0-.4.46,1.46,1.46,0,0,0-.16.73,1.54,1.54,0,0,0,.14.7,1.19,1.19,0,0,0,.37.48,1.62,1.62,0,0,0,.57.29,2.63,2.63,0,0,0,.7.09,3.41,3.41,0,0,0,.95-.14,1.81,1.81,0,0,0,.8-.5,2,2,0,0,0,0,.26,2.33,2.33,0,0,0,.07.25h1.45a1.25,1.25,0,0,1-.14-.49,4.83,4.83,0,0,1,0-.67V57.7a1.25,1.25,0,0,0-.21-.76,1.41,1.41,0,0,0-.55-.45,2.46,2.46,0,0,0-.74-.22,5.35,5.35,0,0,0-.79-.06,4.28,4.28,0,0,0-.87.09,2.46,2.46,0,0,0-.77.29,1.7,1.7,0,0,0-.57.53,1.74,1.74,0,0,0-.25.84Zm-11.16-1.61v.71h0a1.94,1.94,0,0,1,.69-.62,1.81,1.81,0,0,1,.91-.23,2,2,0,0,1,.9.2,1.26,1.26,0,0,1,.63.67,2,2,0,0,1,.63-.6,1.62,1.62,0,0,1,.94-.27,3.12,3.12,0,0,1,.77.1,1.57,1.57,0,0,1,.61.33,1.64,1.64,0,0,1,.39.58,2.46,2.46,0,0,1,.14.86v3.5h-1.43v-3c0-.18,0-.34,0-.5a1.17,1.17,0,0,0-.11-.4.64.64,0,0,0-.27-.27,1,1,0,0,0-.48-.11.89.89,0,0,0-.49.12.83.83,0,0,0-.29.3,1.22,1.22,0,0,0-.15.43,3.87,3.87,0,0,0,0,.48v2.91h-1.44V58.65c0-.16,0-.31,0-.46a1.16,1.16,0,0,0-.08-.42.69.69,0,0,0-.25-.31,1,1,0,0,0-.52-.12,1.12,1.12,0,0,0-.27,0,1,1,0,0,0-.33.17,1.06,1.06,0,0,0-.26.37,1.35,1.35,0,0,0-.11.62v3h-1.44V56.35Zm-6,0v1h0a1.5,1.5,0,0,1,.27-.45,1.88,1.88,0,0,1,.39-.35,2.12,2.12,0,0,1,.48-.23,1.82,1.82,0,0,1,.52-.08,1.32,1.32,0,0,1,.32,0V57.6l-.25,0h-.27a1.54,1.54,0,0,0-.67.13,1.19,1.19,0,0,0-.44.36,1.28,1.28,0,0,0-.23.53,2.7,2.7,0,0,0-.07.65v2.36h-1.44V56.35Zm-9.53,1.48a2.49,2.49,0,0,1,.55-.86,2.29,2.29,0,0,1,.85-.56,2.93,2.93,0,0,1,1.11-.2,3,3,0,0,1,1.11.2,2.42,2.42,0,0,1,.86.56,2.62,2.62,0,0,1,.54.86,3.17,3.17,0,0,1,.19,1.14,3.08,3.08,0,0,1-.19,1.13,2.31,2.31,0,0,1-1.4,1.42,3.23,3.23,0,0,1-1.11.19,3.14,3.14,0,0,1-1.11-.19,2.4,2.4,0,0,1-.85-.55,2.44,2.44,0,0,1-.55-.87A3.08,3.08,0,0,1,180,59a3.17,3.17,0,0,1,.19-1.14m1.3,1.75a1.6,1.6,0,0,0,.21.54,1.18,1.18,0,0,0,.39.38,1.22,1.22,0,0,0,.61.14,1.28,1.28,0,0,0,.61-.14,1.18,1.18,0,0,0,.39-.38,1.6,1.6,0,0,0,.21-.54A3.08,3.08,0,0,0,184,59a3.26,3.26,0,0,0-.06-.62,1.47,1.47,0,0,0-.21-.53,1.12,1.12,0,0,0-1-.53,1.13,1.13,0,0,0-.61.15,1.18,1.18,0,0,0-.39.38,1.47,1.47,0,0,0-.21.53,3.26,3.26,0,0,0-.06.62,3.08,3.08,0,0,0,.06.61m-7.26-2.27v-1h.86V56a1.58,1.58,0,0,1,.44-1.14,1.72,1.72,0,0,1,1.31-.44h.38l.38,0v1.07a4.58,4.58,0,0,0-.53,0,.56.56,0,0,0-.42.13.7.7,0,0,0-.13.46v.31h1v1h-1v4.27h-1.43V57.31Zm-6.1-1v.73h0a1.67,1.67,0,0,1,.71-.66,2,2,0,0,1,.89-.21,2.48,2.48,0,0,1,.94.16,1.36,1.36,0,0,1,.58.43,1.83,1.83,0,0,1,.3.68,4,4,0,0,1,.09.88v3.22h-1.44V58.63a1.82,1.82,0,0,0-.2-1,.78.78,0,0,0-.72-.32,1,1,0,0,0-.85.35,2,2,0,0,0-.26,1.15v2.74H166.8V56.35Zm-4.62,5.23H162V54.36h1.59Zm-12.72-1.26a1.3,1.3,0,0,0,.93.32,1.25,1.25,0,0,0,.75-.22.84.84,0,0,0,.38-.46h1.27a2.45,2.45,0,0,1-.93,1.34,2.76,2.76,0,0,1-1.52.41,3,3,0,0,1-1.11-.2,2.34,2.34,0,0,1-.84-.56,2.54,2.54,0,0,1-.53-.87A3.27,3.27,0,0,1,149,59a3,3,0,0,1,.2-1.09,2.42,2.42,0,0,1,.54-.87,2.7,2.7,0,0,1,1.93-.8,2.48,2.48,0,0,1,1.16.26,2.38,2.38,0,0,1,.82.69,3,3,0,0,1,.46,1,4,4,0,0,1,.1,1.16h-3.77a1.45,1.45,0,0,0,.35,1m1.62-2.74a1,1,0,0,0-.78-.29,1.2,1.2,0,0,0-.57.12,1,1,0,0,0-.36.29,1.07,1.07,0,0,0-.2.36,2.57,2.57,0,0,0-.06.35h2.33a1.68,1.68,0,0,0-.36-.83m-7.64,3.33a1.49,1.49,0,0,1-.66.61,2.1,2.1,0,0,1-.92.19,2.23,2.23,0,0,1-1-.23,2.12,2.12,0,0,1-.74-.62A2.73,2.73,0,0,1,141,60a3.7,3.7,0,0,1-.15-1,3.38,3.38,0,0,1,.15-1,2.72,2.72,0,0,1,.43-.87,2.24,2.24,0,0,1,.73-.6,2.15,2.15,0,0,1,1-.23,2.06,2.06,0,0,1,.88.2,1.55,1.55,0,0,1,.66.58h0V54.37h1.44v7.21h-1.37v-.67Zm-.06-2.58a1.55,1.55,0,0,0-.21-.53,1.06,1.06,0,0,0-.37-.36,1.08,1.08,0,0,0-.59-.15,1.14,1.14,0,0,0-.6.15,1,1,0,0,0-.38.37,1.69,1.69,0,0,0-.22.53,3.18,3.18,0,0,0-.06.62,2.54,2.54,0,0,0,.07.61,1.63,1.63,0,0,0,.23.54,1.18,1.18,0,0,0,.39.38,1.05,1.05,0,0,0,.57.15,1.17,1.17,0,0,0,.59-.14,1.06,1.06,0,0,0,.38-.38,1.83,1.83,0,0,0,.2-.54,3.28,3.28,0,0,0,.06-.63,3.18,3.18,0,0,0-.06-.62" transform="translate(-6.41 -3.13)"/><path class="cls-3" d="M235.18,51.48h-.64V44.26h.64Zm-4.6-2.85a.34.34,0,0,1-.23.16,2.11,2.11,0,0,1-.3.07l-.84.13a4.48,4.48,0,0,0-.78.16,1.62,1.62,0,0,0-.58.32.78.78,0,0,0-.23.59,1,1,0,0,0,.1.43.9.9,0,0,0,.26.32.85.85,0,0,0,.37.21,1.31,1.31,0,0,0,.44.07,2,2,0,0,0,.69-.11,1.64,1.64,0,0,0,.58-.32,1.48,1.48,0,0,0,.4-.52,1.65,1.65,0,0,0,.14-.68v-.83Zm-3.18-1.56a1.56,1.56,0,0,1,.44-.54,2,2,0,0,1,.65-.32,3.56,3.56,0,0,1,.83-.1,4,4,0,0,1,.69.07,1.57,1.57,0,0,1,.61.25,1.32,1.32,0,0,1,.45.51,1.89,1.89,0,0,1,.17.85v2.77a.33.33,0,0,0,.37.38.49.49,0,0,0,.21,0v.54l-.2,0h-.22a1,1,0,0,1-.39-.07.46.46,0,0,1-.22-.19.63.63,0,0,1-.11-.28,2.22,2.22,0,0,1,0-.37h0a4.39,4.39,0,0,1-.34.45,1.8,1.8,0,0,1-.4.33,2.18,2.18,0,0,1-.49.2,3.21,3.21,0,0,1-.67.07,2.54,2.54,0,0,1-.68-.09,1.66,1.66,0,0,1-.55-.27,1.29,1.29,0,0,1-.38-.48,1.56,1.56,0,0,1-.13-.68,1.34,1.34,0,0,1,.24-.85,1.53,1.53,0,0,1,.64-.47,4,4,0,0,1,.9-.23l1-.12.35,0a.64.64,0,0,0,.25-.11.49.49,0,0,0,.16-.21,1,1,0,0,0,0-.34,1.17,1.17,0,0,0-.1-.53.8.8,0,0,0-.3-.33,1.17,1.17,0,0,0-.43-.17,3,3,0,0,0-.53,0,1.57,1.57,0,0,0-1,.29,1.1,1.1,0,0,0-.4.92h-.64a2.13,2.13,0,0,1,.19-.79m-3.07-.81v.54h-1.06v3.52a1.13,1.13,0,0,0,.09.49c0,.11.2.18.43.19a4.89,4.89,0,0,0,.54,0v.54h-.56a.95.95,0,0,1-1.14-1.16V46.8h-.9v-.54h.9V44.7h.64v1.56Zm-6,2.37a.37.37,0,0,1-.23.16l-.3.07-.84.13a4.48,4.48,0,0,0-.78.16,1.54,1.54,0,0,0-.58.32.78.78,0,0,0-.23.59.85.85,0,0,0,.1.43.9.9,0,0,0,.26.32.85.85,0,0,0,.37.21,1.29,1.29,0,0,0,.43.07,2,2,0,0,0,.7-.11,1.64,1.64,0,0,0,.58-.32,1.48,1.48,0,0,0,.4-.52,1.65,1.65,0,0,0,.14-.68v-.83Zm-3.18-1.56a1.46,1.46,0,0,1,.44-.54,1.88,1.88,0,0,1,.65-.32,3.56,3.56,0,0,1,.83-.1,4,4,0,0,1,.69.07,1.64,1.64,0,0,1,.61.25,1.41,1.41,0,0,1,.45.51,1.89,1.89,0,0,1,.17.85v2.77a.33.33,0,0,0,.37.38.42.42,0,0,0,.2,0v.54l-.19,0h-.22a1,1,0,0,1-.39-.07.54.54,0,0,1-.23-.19.63.63,0,0,1-.1-.28,2.22,2.22,0,0,1,0-.37h0A3.34,3.34,0,0,1,218,51a1.75,1.75,0,0,1-.39.33,2.27,2.27,0,0,1-.5.2,3,3,0,0,1-.66.07,2.48,2.48,0,0,1-.68-.09,1.57,1.57,0,0,1-.55-.27,1.29,1.29,0,0,1-.38-.48,1.56,1.56,0,0,1-.13-.68,1.34,1.34,0,0,1,.24-.85,1.47,1.47,0,0,1,.64-.47,3.82,3.82,0,0,1,.9-.23l1-.12.36,0a.64.64,0,0,0,.25-.11.49.49,0,0,0,.16-.21,1,1,0,0,0,.05-.34,1.17,1.17,0,0,0-.1-.53.87.87,0,0,0-.3-.33,1.17,1.17,0,0,0-.43-.17,3,3,0,0,0-.53,0,1.53,1.53,0,0,0-1,.29,1.13,1.13,0,0,0-.41.92h-.63a2.13,2.13,0,0,1,.19-.79m-3.07-.81v.54H211v3.52a1.32,1.32,0,0,0,.08.49.48.48,0,0,0,.43.19,4.93,4.93,0,0,0,.55,0v.54h-.57a1.3,1.3,0,0,1-.89-.25,1.32,1.32,0,0,1-.24-.91V46.8h-.91v-.54h.91V44.7H211v1.56Zm-5.95,1a1,1,0,0,0-.3-.36,1.44,1.44,0,0,0-.43-.21,2.26,2.26,0,0,0-.94,0,1.09,1.09,0,0,0-.4.16.84.84,0,0,0-.29.27.75.75,0,0,0-.11.43.61.61,0,0,0,.1.36.9.9,0,0,0,.27.24,1.62,1.62,0,0,0,.35.17l.36.11.84.19a2.61,2.61,0,0,1,.55.14,2.43,2.43,0,0,1,.47.28,1.44,1.44,0,0,1,.34.43,1.22,1.22,0,0,1,.13.59,1.25,1.25,0,0,1-.19.72,1.64,1.64,0,0,1-.49.49,2.35,2.35,0,0,1-.67.27,3.81,3.81,0,0,1-.74.08,2.4,2.4,0,0,1-1.49-.44,1.83,1.83,0,0,1-.65-1.39h.63a1.26,1.26,0,0,0,.47,1,1.73,1.73,0,0,0,1.07.33,2.06,2.06,0,0,0,.48-.05,1.5,1.5,0,0,0,.46-.17,1,1,0,0,0,.35-.31.76.76,0,0,0,.13-.46.8.8,0,0,0-.09-.39.92.92,0,0,0-.26-.26,1.82,1.82,0,0,0-.37-.18l-.42-.12-.82-.18a4.24,4.24,0,0,1-.57-.18,1.86,1.86,0,0,1-.46-.27,1,1,0,0,1-.31-.38,1.33,1.33,0,0,1-.11-.56,1.25,1.25,0,0,1,.18-.68,1.24,1.24,0,0,1,.46-.45,2.09,2.09,0,0,1,.63-.26,3.25,3.25,0,0,1,.69-.08,2.8,2.8,0,0,1,.73.1,1.73,1.73,0,0,1,.6.32,1.5,1.5,0,0,1,.41.52,2.06,2.06,0,0,1,.17.74h-.64a1.13,1.13,0,0,0-.12-.51m-5.91-3v.59h-4.29v2.61h4V48h-4v2.85h4.34v.59h-5V44.26Zm-13.88,4.37a.34.34,0,0,1-.23.16,2.11,2.11,0,0,1-.3.07L185,49a4.41,4.41,0,0,0-.79.16,1.62,1.62,0,0,0-.58.32.77.77,0,0,0-.22.59,1,1,0,0,0,.09.43,1,1,0,0,0,.26.32.91.91,0,0,0,.37.21,1.31,1.31,0,0,0,.44.07,2,2,0,0,0,.69-.11,1.55,1.55,0,0,0,.58-.32,1.48,1.48,0,0,0,.4-.52,1.51,1.51,0,0,0,.14-.68v-.83Zm-3.18-1.56a1.56,1.56,0,0,1,.44-.54,2,2,0,0,1,.65-.32,3.56,3.56,0,0,1,.83-.1,4,4,0,0,1,.69.07,1.57,1.57,0,0,1,.61.25,1.32,1.32,0,0,1,.45.51,1.89,1.89,0,0,1,.17.85v2.77a.34.34,0,0,0,.37.38.46.46,0,0,0,.21,0v.54l-.2,0h-.22a1,1,0,0,1-.39-.07.51.51,0,0,1-.22-.19.63.63,0,0,1-.11-.28,2.23,2.23,0,0,1,0-.37h0A4.39,4.39,0,0,1,186,51a1.8,1.8,0,0,1-.4.33,2.18,2.18,0,0,1-.49.2,3.18,3.18,0,0,1-.66.07,2.56,2.56,0,0,1-.69-.09,1.66,1.66,0,0,1-.55-.27,1.4,1.4,0,0,1-.38-.48,1.56,1.56,0,0,1-.13-.68,1.34,1.34,0,0,1,.24-.85,1.53,1.53,0,0,1,.64-.47,4,4,0,0,1,.9-.23l1-.12.35,0a.58.58,0,0,0,.25-.11.49.49,0,0,0,.16-.21.81.81,0,0,0,.05-.34,1.17,1.17,0,0,0-.1-.53.85.85,0,0,0-.29-.33,1.23,1.23,0,0,0-.44-.17,2.93,2.93,0,0,0-.53,0,1.57,1.57,0,0,0-1,.29,1.13,1.13,0,0,0-.4.92H183a2.35,2.35,0,0,1,.19-.79m-10-.81v.88h0a2,2,0,0,1,.67-.75,1.77,1.77,0,0,1,1-.28,1.8,1.8,0,0,1,.94.26,1.26,1.26,0,0,1,.56.76,1.54,1.54,0,0,1,.68-.76,2,2,0,0,1,1-.26c1.15,0,1.73.61,1.73,1.83v3.54h-.64V48a1.53,1.53,0,0,0-.27-1,1.15,1.15,0,0,0-1-.34,1.33,1.33,0,0,0-.69.16,1.21,1.21,0,0,0-.43.41,1.93,1.93,0,0,0-.23.61,3.88,3.88,0,0,0-.06.7v2.95h-.64V47.94a2.73,2.73,0,0,0-.05-.5,1.11,1.11,0,0,0-.19-.41.79.79,0,0,0-.34-.28,1.13,1.13,0,0,0-.51-.1,1.68,1.68,0,0,0-.7.14,1.4,1.4,0,0,0-.49.41,1.83,1.83,0,0,0-.27.6,2.71,2.71,0,0,0-.1.77v2.91h-.63V46.26Zm-7.37,3.49a1.73,1.73,0,0,0,.84,1.15,1.46,1.46,0,0,0,.78.19,1.58,1.58,0,0,0,1.09-.36,1.93,1.93,0,0,0,.54-1h.64a2.56,2.56,0,0,1-.74,1.37,2.18,2.18,0,0,1-1.53.49,2.38,2.38,0,0,1-1.07-.22,1.93,1.93,0,0,1-.73-.59,2.65,2.65,0,0,1-.42-.88,4.11,4.11,0,0,1-.14-1.06,3.85,3.85,0,0,1,.14-1,2.65,2.65,0,0,1,.42-.88,2.13,2.13,0,0,1,.73-.63,2.25,2.25,0,0,1,1.07-.24,2.15,2.15,0,0,1,1.07.26,2.07,2.07,0,0,1,.72.66,2.75,2.75,0,0,1,.4.94,4.27,4.27,0,0,1,.1,1.07h-4a2.53,2.53,0,0,0,.1.71m3.15-1.94a2,2,0,0,0-.33-.59,1.5,1.5,0,0,0-.52-.41,1.39,1.39,0,0,0-.68-.16,1.42,1.42,0,0,0-.7.16,1.72,1.72,0,0,0-.52.41,1.93,1.93,0,0,0-.33.6,2.68,2.68,0,0,0-.17.69h3.37a2.28,2.28,0,0,0-.12-.7m-6.56-1.55v.54h-1.06v3.52a1.14,1.14,0,0,0,.08.49.48.48,0,0,0,.43.19,5.07,5.07,0,0,0,.55,0v.54h-.57a1.3,1.3,0,0,1-.89-.25,1.23,1.23,0,0,1-.24-.91V46.8h-.91v-.54h.91V44.7h.64v1.56Zm-5.95,1a1.31,1.31,0,0,0-.3-.36,1.44,1.44,0,0,0-.43-.21,2.1,2.1,0,0,0-.51-.06,2,2,0,0,0-.43,0,1.09,1.09,0,0,0-.4.16,1,1,0,0,0-.3.27.83.83,0,0,0-.11.43.61.61,0,0,0,.11.36.9.9,0,0,0,.27.24,1.27,1.27,0,0,0,.35.17l.35.11.85.19a2.69,2.69,0,0,1,.54.14,2.24,2.24,0,0,1,.48.28,1.44,1.44,0,0,1,.34.43,1.35,1.35,0,0,1,.13.59,1.33,1.33,0,0,1-.19.72,1.76,1.76,0,0,1-.49.49,2.42,2.42,0,0,1-.68.27,3.71,3.71,0,0,1-.73.08,2.38,2.38,0,0,1-1.49-.44,1.83,1.83,0,0,1-.65-1.39h.63a1.26,1.26,0,0,0,.47,1,1.71,1.71,0,0,0,1.07.33,2.06,2.06,0,0,0,.48-.05,1.6,1.6,0,0,0,.46-.17,1,1,0,0,0,.34-.31.7.7,0,0,0,.14-.46.8.8,0,0,0-.09-.39.92.92,0,0,0-.26-.26,1.82,1.82,0,0,0-.37-.18l-.42-.12-.82-.18a3.83,3.83,0,0,1-.57-.18,1.86,1.86,0,0,1-.46-.27,1,1,0,0,1-.31-.38,1.19,1.19,0,0,1-.11-.56,1.34,1.34,0,0,1,.17-.68,1.32,1.32,0,0,1,.46-.45,2.2,2.2,0,0,1,.63-.26,3.42,3.42,0,0,1,.7-.08,2.86,2.86,0,0,1,.73.1,1.77,1.77,0,0,1,.59.32,1.4,1.4,0,0,1,.41.52,2.06,2.06,0,0,1,.18.74h-.64a1.28,1.28,0,0,0-.12-.51m-6.24,4.2h-.64V46.26h.64Zm0-6.19h-.64v-1h.64ZM141.77,50a1.55,1.55,0,0,0,.5.6A2.26,2.26,0,0,0,143,51,4.42,4.42,0,0,0,144,51a2.35,2.35,0,0,0,.62-.08,2,2,0,0,0,.62-.26,1.58,1.58,0,0,0,.48-.45,1.15,1.15,0,0,0,.19-.67,1,1,0,0,0-.13-.53,1.16,1.16,0,0,0-.36-.37,2.17,2.17,0,0,0-.48-.25l-.51-.16-1.61-.39a4.35,4.35,0,0,1-.61-.2,1.82,1.82,0,0,1-.52-.32,1.53,1.53,0,0,1-.36-.5,1.69,1.69,0,0,1-.13-.72,2.14,2.14,0,0,1,.1-.61,1.57,1.57,0,0,1,.38-.67,2.23,2.23,0,0,1,.76-.53,3.13,3.13,0,0,1,1.24-.22,3.75,3.75,0,0,1,1,.14,2.62,2.62,0,0,1,.85.43,2.07,2.07,0,0,1,.58.7,2.05,2.05,0,0,1,.22,1h-.69a1.55,1.55,0,0,0-.19-.73,1.63,1.63,0,0,0-.43-.51,1.81,1.81,0,0,0-.62-.31,2.19,2.19,0,0,0-.73-.11,3.08,3.08,0,0,0-.68.07,2,2,0,0,0-.58.25,1.42,1.42,0,0,0-.4.44,1.36,1.36,0,0,0-.15.67,1,1,0,0,0,.09.44,1,1,0,0,0,.24.32,1.08,1.08,0,0,0,.34.21,2.25,2.25,0,0,0,.42.13l1.76.44a4.67,4.67,0,0,1,.72.25,2.23,2.23,0,0,1,.6.36,1.41,1.41,0,0,1,.4.53,1.75,1.75,0,0,1,.15.76c0,.08,0,.19,0,.32a1.5,1.5,0,0,1-.13.43,2,2,0,0,1-.27.46,2,2,0,0,1-.48.42,3.09,3.09,0,0,1-.77.3,4.26,4.26,0,0,1-1.09.12,4.43,4.43,0,0,1-1.18-.15,2.69,2.69,0,0,1-.93-.45,2,2,0,0,1-.59-.78,2.49,2.49,0,0,1-.18-1.14h.69a2,2,0,0,0,.17.93" transform="translate(-6.41 -3.13)"/><polygon class="cls-4" points="14.32 50.18 14.32 54.77 18.91 57.49 18.91 52.86 14.32 50.18"/><polygon class="cls-4" points="20.99 41.87 20.99 46.47 25.59 49.19 25.59 44.56 20.99 41.87"/><polygon class="cls-4" points="14.07 27.25 14.07 36.44 23.27 41.87 23.27 32.62 14.07 27.25"/><polygon class="cls-5" points="20.43 22.45 20.43 27.04 25.02 29.76 25.02 25.13 20.43 22.45"/><polygon class="cls-5" points="24.15 19.02 24.15 23.61 28.74 26.33 28.74 21.7 24.15 19.02"/><polygon class="cls-6" points="18.96 14.59 18.96 19.19 23.55 21.9 23.55 17.28 18.96 14.59"/><polygon class="cls-6" points="13.75 13.96 13.75 18.55 18.34 21.27 18.34 16.64 13.75 13.96"/><polygon class="cls-4" points="24.73 30.79 24.73 35.39 29.32 38.1 29.32 33.48 24.73 30.79"/><polygon class="cls-4" points="10.39 36.29 10.39 45.48 19.59 50.91 19.59 41.66 10.39 36.29"/><polygon class="cls-5" points="14.4 20.57 14.4 25.17 18.99 27.88 18.99 23.26 14.4 20.57"/><polygon class="cls-4" points="4.62 35.37 4.62 39.97 9.22 42.68 9.22 38.06 4.62 35.37"/><polygon class="cls-4" points="5.7 45.15 5.7 49.75 10.29 52.46 10.29 47.84 5.7 45.15"/><polygon class="cls-4" points="8.67 23.33 8.67 27.93 13.27 30.65 13.27 26.02 8.67 23.33"/><polygon class="cls-4" points="5.49 26.34 5.49 28.64 7.78 30 7.78 27.68 5.49 26.34"/><polygon class="cls-4" points="4.91 41.73 4.91 44.02 7.21 45.38 7.21 43.07 4.91 41.73"/><polygon class="cls-4" points="11.16 48.46 11.16 50.76 13.46 52.12 13.46 49.8 11.16 48.46"/><polygon class="cls-5" points="11.54 20.63 11.54 22.92 13.84 24.28 13.84 21.97 11.54 20.63"/><polygon class="cls-4" points="6.63 32 6.63 34.3 8.93 35.66 8.93 33.34 6.63 32"/><polygon class="cls-4" points="9.82 31.54 9.82 33.84 12.12 35.19 12.12 32.88 9.82 31.54"/><polygon class="cls-4" points="24.72 56.1 24.72 60.7 29.32 63.41 29.32 58.78 24.72 56.1"/><polygon class="cls-4" points="24.73 49.07 24.73 53.67 29.32 56.38 29.32 51.76 24.73 49.07"/><polygon class="cls-4" points="20.71 51.73 20.71 54.02 23.01 55.38 23.01 53.07 20.71 51.73"/><polygon class="cls-4" points="0 27.26 0 31.85 4.6 34.57 4.6 29.94 0 27.26"/><polygon class="cls-6" points="20.12 13.96 20.12 11.38 28.3 16.19 26.15 17.5 20.12 13.96"/><polygon class="cls-7" points="39.53 0 20.12 11.1 20.12 11.38 28.3 16.19 39.76 9.64 51 16.19 59.6 10.8 40.03 0 39.53 0"/><polygon class="cls-6" points="59.6 21.05 50.98 16.19 59.6 10.8 59.6 21.05"/><polygon class="cls-8" points="26.13 17.45 28.3 16.19 39.76 22.95 39.76 32.75 29.32 26.61 29.32 19.3 26.13 17.45"/><polygon class="cls-9" points="50.98 16.19 39.76 22.95 39.76 32.75 59.6 21.05 50.98 16.19"/><polygon class="cls-5" points="28.3 16.19 39.76 9.6 51.04 16.19 39.76 22.96 28.3 16.19"/><polygon class="cls-9" points="29.32 26.61 39.76 32.74 39.76 69.24 39.13 69.24 29.32 63.53 29.32 26.61"/><polygon class="cls-10" points="39.76 32.75 59.6 21.05 59.6 57.93 40.33 69.24 39.76 69.24 39.76 32.75"/></g></g></g></svg>